<?xml version="1.0" encoding="UTF-8"?>
<svg xmlns="http://www.w3.org/2000/svg" xmlns:xlink="http://www.w3.org/1999/xlink" width="512pt" height="472pt" viewBox="0 0 512 512" version="1.1">
<g id="surface1">
<path style=" stroke:none;fill-rule:nonzero;fill:rgb(17.647059%,17.647059%,18.823529%);fill-opacity:1;" d="M 230.398438 8.535156 L 281.601562 8.535156 C 281.601562 22.671875 270.136719 34.132812 256 34.132812 C 241.863281 34.132812 230.398438 22.671875 230.398438 8.535156 Z M 230.398438 8.535156 "/>
<path style=" stroke:none;fill-rule:nonzero;fill:rgb(17.647059%,17.647059%,18.823529%);fill-opacity:1;" d="M 170.667969 264.535156 L 341.332031 264.535156 L 341.332031 332.800781 L 170.667969 332.800781 Z M 170.667969 264.535156 "/>
<path style=" stroke:none;fill-rule:nonzero;fill:rgb(17.647059%,17.647059%,18.823529%);fill-opacity:1;" d="M 311.464844 114.261719 C 330.152344 126.953125 341.335938 148.078125 341.332031 170.667969 L 256 170.667969 L 256 102.398438 L 273.066406 102.398438 C 286.773438 102.363281 300.167969 106.5 311.464844 114.261719 Z M 311.464844 114.261719 "/>
<path style=" stroke:none;fill-rule:nonzero;fill:rgb(17.647059%,17.647059%,18.823529%);fill-opacity:1;" d="M 256 102.398438 L 256 170.667969 L 170.667969 170.667969 C 170.707031 132.984375 201.25 102.441406 238.933594 102.398438 Z M 256 102.398438 "/>
<path style=" stroke:none;fill-rule:nonzero;fill:rgb(24.313725%,23.921569%,25.882353%);fill-opacity:1;" d="M 209.066406 131.328125 C 220.367188 123.566406 233.757812 119.429688 247.464844 119.464844 L 256 119.464844 L 256 102.398438 L 238.933594 102.398438 C 201.25 102.441406 170.707031 132.984375 170.667969 170.667969 L 181.359375 170.667969 C 185.527344 154.632812 195.375 140.652344 209.066406 131.328125 Z M 209.066406 131.328125 "/>
<path style=" stroke:none;fill-rule:nonzero;fill:rgb(34.117647%,33.72549%,36.078431%);fill-opacity:1;" d="M 341.332031 170.667969 L 341.332031 264.535156 L 170.667969 264.535156 L 170.667969 170.667969 Z M 341.332031 170.667969 "/>
<path style=" stroke:none;fill-rule:nonzero;fill:rgb(34.117647%,33.72549%,36.078431%);fill-opacity:1;" d="M 341.332031 332.800781 L 341.332031 418.132812 C 341.332031 465.261719 303.128906 503.464844 256 503.464844 C 208.871094 503.464844 170.667969 465.261719 170.667969 418.132812 L 170.667969 332.800781 Z M 341.332031 332.800781 "/>
<path style=" stroke:none;fill-rule:nonzero;fill:rgb(24.313725%,23.921569%,25.882353%);fill-opacity:1;" d="M 221.269531 478.460938 C 205.242188 462.480469 196.242188 440.769531 196.265625 418.132812 L 196.265625 332.800781 L 170.667969 332.800781 L 170.667969 418.132812 C 170.484375 443.054688 181.285156 466.789062 200.191406 483.023438 C 219.101562 499.257812 244.195312 506.347656 268.800781 502.398438 C 250.804688 499.707031 234.144531 491.320312 221.269531 478.460938 Z M 221.269531 478.460938 "/>
<path style=" stroke:none;fill-rule:nonzero;fill:rgb(24.313725%,23.921569%,25.882353%);fill-opacity:1;" d="M 170.667969 170.667969 L 196.265625 170.667969 L 196.265625 264.535156 L 170.667969 264.535156 Z M 170.667969 170.667969 "/>
<path style=" stroke:none;fill-rule:nonzero;fill:rgb(15.294118%,15.294118%,16.470588%);fill-opacity:1;" d="M 170.667969 264.535156 L 196.265625 264.535156 L 196.265625 332.800781 L 170.667969 332.800781 Z M 170.667969 264.535156 "/>
<path style=" stroke:none;fill-rule:nonzero;fill:rgb(13.72549%,12.156863%,12.54902%);fill-opacity:1;" d="M 318.167969 108.671875 L 278.621094 33.902344 C 285.914062 27.484375 290.105469 18.246094 290.132812 8.535156 C 290.132812 3.820312 286.3125 0 281.601562 0 L 230.398438 0 C 225.6875 0 221.867188 3.820312 221.867188 8.535156 C 221.894531 18.246094 226.085938 27.484375 233.378906 33.902344 L 193.832031 108.679688 C 173.957031 123.078125 162.175781 146.121094 162.132812 170.667969 L 162.132812 418.132812 C 162.132812 469.976562 204.160156 512 256 512 C 307.839844 512 349.867188 469.976562 349.867188 418.132812 L 349.867188 170.667969 C 349.824219 146.121094 338.042969 123.074219 318.167969 108.671875 Z M 332.800781 324.265625 L 179.199219 324.265625 L 179.199219 273.066406 L 332.800781 273.066406 Z M 179.199219 256 L 179.199219 179.199219 L 332.800781 179.199219 L 332.800781 256 Z M 264.535156 43.757812 L 292.429688 96.511719 C 286.113281 94.804688 279.609375 93.917969 273.066406 93.867188 L 264.535156 93.867188 Z M 247.464844 93.867188 L 238.933594 93.867188 C 232.390625 93.917969 225.886719 94.804688 219.570312 96.511719 L 247.464844 43.757812 Z M 332.1875 162.132812 L 264.535156 162.132812 L 264.535156 110.933594 L 273.066406 110.933594 C 285.058594 110.898438 296.777344 114.519531 306.664062 121.308594 C 320.511719 130.742188 329.769531 145.550781 332.1875 162.132812 Z M 270.746094 17.066406 C 267.695312 22.335938 262.066406 25.582031 255.976562 25.582031 C 249.882812 25.582031 244.253906 22.335938 241.203125 17.066406 Z M 205.363281 121.292969 C 215.242188 114.511719 226.949219 110.898438 238.933594 110.933594 L 247.464844 110.933594 L 247.464844 162.132812 L 179.8125 162.132812 C 182.238281 145.542969 191.503906 130.730469 205.363281 121.292969 Z M 256 494.933594 C 213.605469 494.882812 179.25 460.527344 179.199219 418.132812 L 179.199219 341.332031 L 332.800781 341.332031 L 332.800781 418.132812 C 332.75 460.527344 298.394531 494.882812 256 494.933594 Z M 256 494.933594 "/>
</g>
</svg>
