<svg id="Layer_1" height="512" viewBox="0 0 512 512" width="512" xmlns="http://www.w3.org/2000/svg" data-name="Layer 1"><path d="m488.2 166.63h-.03c-9.01 0-23.42 1.77-35.41 11.33-11.09 8.86-17.6 22.32-19.36 40.07a92.871 92.871 0 0 0 -34.68 12.73c-17.87 10.91-40.71 33.23-49.89 77.9a132.795 132.795 0 0 0 -31.06-1.4c-26.76 2.01-48.35 12.61-62.44 30.68a4.862 4.862 0 0 0 -1.12 3.9 4.632 4.632 0 0 0 2.13 3.23c1.16 1.07 16.89 16.98 16.14 89.42a4.708 4.708 0 0 0 .03.53 61.707 61.707 0 0 0 6.2 20.09c7.05 13.96 18.55 23.13 33.32 26.54 1.52.32 33.42 6.83 56.22-9.79l.3.42-2.5 1.79a3.4 3.4 0 0 0 -.3.23c-32.3 27.04-73.69 8.86-77.03 7.32-34.33-21.97-44.98-67.81-46.33-74.29l1.66-10.69a5 5 0 1 0 -9.88-1.53l-6.03 38.82-12.17-.32a19.013 19.013 0 0 0 -18.79 14.14l-2.2-.6v-8.82a8.843 8.843 0 0 1 7.54-8.79l11.54-1.77a5.01 5.01 0 0 0 4.24-4.95 21.3 21.3 0 0 0 -12.93-19.6l-.36-.15a11.383 11.383 0 0 1 -6.77-8.97l-1.37-10.63a11.364 11.364 0 0 1 9.01-12.54l17.15-3.43a11.332 11.332 0 0 1 10.01 2.88l10.9 10.33a5 5 0 0 0 6.88-7.26l-10.9-10.33a21.337 21.337 0 0 0 -18.85-5.43l-17.15 3.43c-.42-.3-.88-.62-1.37-.96-3.63-2.55-9.11-6.4-16.24-10.95-16.22-10.39-23.83-31.4-27.24-45.52a71.661 71.661 0 0 1 6.55 5.72 5 5 0 1 0 7.01-7.13c-34.74-34.17-80.89-23.36-82.84-22.88a5 5 0 0 0 2.37 9.71c.08-.02 1.76-.4 4.62-.79-5.07 10.28-16.54 14.77-16.66 14.82a4.964 4.964 0 0 0 -2.47 2l-6.34 9.96-10-1.82a.806.806 0 0 1 -.66-.81l1.13-30.42c.12-1.66 2.94-37 21-53.93a66.219 66.219 0 0 1 -.15 13.33 34.7 34.7 0 0 0 -9.65 13.25 53.564 53.564 0 0 0 -4.15 19.27 4.991 4.991 0 0 0 4.99 4.99h.01a5.01 5.01 0 0 0 5-4.98c0-1.08.34-23.84 17.89-28.68-2.2 6.81-5.26 15.55-7.54 19.55a5 5 0 1 0 8.68 4.96 90.677 90.677 0 0 0 5.49-12.92 77.06 77.06 0 0 1 20.7 2.08c34.18 7.95 52.08 19.11 52.25 19.22a5.046 5.046 0 0 0 3.73.67c.23-.05 23.21-4.85 45.88 0 12.52 2.68 19.68-11.29 26-23.61 2.91-5.68 5.92-11.56 8.86-14.59 54.95-56.7 71.76-93.25 75.73-114.7 9.43-1.58 37.18-5.54 66.81-3.22 43.53 3.4 72.04 18.16 84.89 43.89z" fill="#de3c44"/><g fill="#ad2a34"><path d="m173.978 304.7a4.986 4.986 0 0 0 6.652-7.417c-34.74-34.17-80.89-23.36-82.84-22.88a5 5 0 0 0 -3.755 4.181c12.458-1.991 49.52-4.9 78.6 23.7a4.936 4.936 0 0 1 1.343 2.416z"/><path d="m69.31 308.28a.806.806 0 0 1 -.66-.81l1.13-30.42c0-.032.008-.1.012-.158a4.949 4.949 0 0 1 -.962-2.922 53.564 53.564 0 0 1 4.15-19.27 41.457 41.457 0 0 1 2.156-4.271 80.5 80.5 0 0 1 7.883-17.629c-.039-1.63-.126-3.216-.239-4.684-18.06 16.93-20.88 52.27-21 53.93l-1.13 30.42a.806.806 0 0 0 .66.81l10 1.82 3.683-5.786z"/><path d="m88.12 298.14a4.964 4.964 0 0 0 -2.47 2l-.056.088a37.775 37.775 0 0 0 3.429-2.48c-.553.252-.883.384-.903.392z"/><path d="m350.169 302.741a132.772 132.772 0 0 0 -24.4-.481c-18.4 1.382-34.353 6.825-47.107 15.964 11.212-6.131 24.37-9.857 39.107-10.964a132.795 132.795 0 0 1 31.06 1.4c.417-2.024.871-3.986 1.34-5.919z"/><path d="m259.91 250.25c2.91-5.68 5.92-11.56 8.86-14.59 51.746-53.394 69.665-88.914 74.9-110.788-2.964.409-5.39.791-7.165 1.088-3.97 21.45-20.78 58-75.73 114.7-2.94 3.03-5.95 8.91-8.86 14.59-3.416 6.66-7.08 13.8-11.7 18.53 8.778-2.251 14.519-13.441 19.695-23.53z"/><path d="m78.862 272.969a4.949 4.949 0 0 0 2.958.991h.01a5.01 5.01 0 0 0 5-4.98c0-.841.209-14.836 8.6-23.27-14.53 4.981-16.347 22.758-16.568 27.259z"/><path d="m296.72 476.62c-34.33-21.97-44.98-67.81-46.33-74.29l1.66-10.69a5 5 0 1 0 -9.88-1.53l-.255 1.644a5 5 0 0 1 2.135 4.886l-1.66 10.69c1.35 6.48 12 52.32 46.33 74.29 3.232 1.49 42.086 18.557 73.862-4.833-29.956 15.672-62.897 1.2-65.862-.167z"/><path d="m203.92 361.12 10.916-2.183c-.42-.3-3.8-3.437-4.286-3.777-3.63-2.55-9.11-6.4-16.24-10.95-12.068-7.73-19.367-21.338-23.719-33.614a4.871 4.871 0 0 1 -4.971-1.186 71.661 71.661 0 0 0 -6.55-5.72c3.41 14.12 11.02 35.13 27.24 45.52 7.13 4.55 12.61 8.4 16.24 10.95.49.34.95.66 1.37.96z"/><path d="m461.3 172.554a61.2 61.2 0 0 1 26.868-5.924h.03c-.72-1.442-1.5-2.844-2.315-4.217a53.1 53.1 0 0 0 -24.583 10.141z"/><path d="m406.72 225.76c-1.554.949-3.148 1.99-4.766 3.119a92.377 92.377 0 0 1 31.446-10.849c.119-1.2.264-2.376.426-3.536a94.981 94.981 0 0 0 -27.106 11.266z"/><path d="m222.06 422.77a5.01 5.01 0 0 0 4.24-4.95 21.3 21.3 0 0 0 -12.93-19.6l-.36-.15a11.383 11.383 0 0 1 -6.77-8.97l-1.37-10.63a11.272 11.272 0 0 1 1.833-7.7l-.823.164a11.364 11.364 0 0 0 -9.01 12.54l1.37 10.63a11.383 11.383 0 0 0 6.77 8.97l.36.15a21.3 21.3 0 0 1 12.93 19.6 4.709 4.709 0 0 1 -.049.534z"/><path d="m223.97 428.61a18.929 18.929 0 0 0 -14.164 5.879 18.494 18.494 0 0 1 6.164-.879l12.17.32.806-5.189z"/><path d="m202.98 433.33a8.919 8.919 0 0 1 .945-4l-1.405.215a8.843 8.843 0 0 0 -7.54 8.79v8.82l2.2.6a18.827 18.827 0 0 1 5.8-9.384z"/></g><path d="m400.12 419.92-.48 10.34a40.442 40.442 0 0 1 -12.46 27.42l-5.29 5.08-13.34 9.52-.3-.42a48.388 48.388 0 0 0 8.21-7.56 5.075 5.075 0 0 0 1.19-2.79l.73-7.59a40.54 40.54 0 0 1 13.09-26.13z" fill="#f4c161"/><path d="m500.686 170.465a5 5 0 0 1 -5.539 6.629c-.2-.03-21.179-3.329-36.218 8.74-9.61 7.7-14.95 20.159-15.89 37.018a5 5 0 0 1 -4.809 4.72c-.15 0-16.679.82-34.728 11.989-24.149 14.939-39.558 40.448-45.778 75.826a5 5 0 0 1 -6.109 3.989 119.815 119.815 0 0 0 -33.379-2.119c-22.408 1.729-39.987 9.669-52.337 23.6 6.14 8.26 17.189 31.738 16.59 93.435.359 3.06 4.4 31.278 31.708 37.588.27.05 34.908 7.039 53.647-12.979l.58-5.95a50.46 50.46 0 0 1 16.309-32.568l17.559-15.983a5 5 0 0 1 8.359 3.929l-1.04 22.389a50.341 50.341 0 0 1 -15.511 34.16l-5.559 5.33a4.154 4.154 0 0 1 -.56.46l-15.97 11.419c-15.789 13.139-33.048 17.089-48.067 17.109q-5.715.4-11.049.41c-37.628 0-60.737-14.349-73.856-27.118a89.626 89.626 0 0 1 -8.82-9.96l-.75 2.44a5.012 5.012 0 0 1 -4.779 3.52 5.079 5.079 0 0 1 -2.02-.42l-10.75-4.75a5.006 5.006 0 0 1 -2.959-5.039l1.22-12.92a8.832 8.832 0 0 0 -3.35 5l-1.17 4.76a5 5 0 0 1 -2.32 3.12 5.073 5.073 0 0 1 -2.54.69 5 5 0 0 1 -1.32-.18l-10.829-2.98a5 5 0 0 1 -3.67-4.82v-12.629a18.757 18.757 0 0 1 9.179-16.209 5.777 5.777 0 0 0 -5.319-3.51 15.69 15.69 0 0 1 -12.38-6l-7.6-9.619a15.733 15.733 0 0 1 -2.53-14.949l11.329-32.7c-9.409-7.079-17.029-17.679-22.688-31.578a131.965 131.965 0 0 1 -7.61-27.5c-14.339-7.29-28.978-8.87-39.568-8.73-4.339 14.809-17.8 22.119-22.538 24.279l-7.307 11.496a5.006 5.006 0 0 1 -4.22 2.32 5.451 5.451 0 0 1 -.89-.08l-13.309-2.42a10.747 10.747 0 0 1 -8.869-10.909l.01-.3 1.128-30.311c0-.05.01-.09.01-.14.13-2.04 3.579-50.268 32.428-66.807a5.005 5.005 0 0 1 7.409 3.46 104.842 104.842 0 0 1 1.39 17.809 36.892 36.892 0 0 1 10.75-1.52 5 5 0 0 1 4.8 6.4c-.08.28-.79 2.68-1.85 6.04a89.04 89.04 0 0 1 19.589 2.389c.46.11.9.22 1.36.33a291.611 291.611 0 0 0 -23.458-50.277c-16.35-27.768-44.9-64.966-88.075-84.425a4.978 4.978 0 0 1 -2.77-3.25c-.36-1.33-8.63-32.878 7.809-61.4 10.541-18.266 28.68-30.936 53.918-37.655a5.008 5.008 0 0 1 5.8 7c-.31.64-7.51 16.359 1.21 32.559 9.129 16.968 33.138 28.717 69.446 33.987a5 5 0 0 1 4.18 5.939c-.03.16-3.26 16.959 1.53 38.728 6.379 28.968 23.238 52.627 50.117 70.326a4.994 4.994 0 0 1 1.14 7.33c-.88 1.09-20.439 26.068-7.47 58.286a118.608 118.608 0 0 1 26.937 2.37c5.019 1.07 10.559-9.719 15.009-18.389 3.39-6.629 6.6-12.889 10.579-16.989 59.257-61.146 71.526-96.834 73.556-112.663a4.993 4.993 0 0 1 3.98-4.26 294.314 294.314 0 0 1 72.756-4.02c51.109 3.95 84.587 23.909 96.806 57.707zm-12.529-3.83h.03c-12.849-25.729-41.358-40.488-84.885-43.887-29.629-2.32-57.377 1.639-66.807 3.219-3.969 21.449-20.778 58-75.725 114.694-2.94 3.03-5.95 8.909-8.86 14.589-6.319 12.319-13.479 26.289-26 23.609-22.669-4.85-45.648-.05-45.878 0a5.046 5.046 0 0 1 -3.73-.67c-.169-.11-18.068-11.27-52.247-19.219a77.046 77.046 0 0 0 -20.7-2.08 90.659 90.659 0 0 1 -5.49 12.919 5 5 0 0 1 -8.68-4.959c2.28-4 5.34-12.74 7.54-19.549-17.545 4.839-17.885 27.599-17.885 28.678a5.01 5.01 0 0 1 -5 4.98h-.01a4.99 4.99 0 0 1 -4.989-4.99 53.572 53.572 0 0 1 4.149-19.269 34.694 34.694 0 0 1 9.65-13.249 66.21 66.21 0 0 0 .15-13.329c-18.059 16.929-20.879 52.267-21 53.927l-1.13 30.418a.806.806 0 0 0 .66.81l10 1.82 6.34-9.96a4.964 4.964 0 0 1 2.47-2c.12-.05 11.589-4.539 16.659-14.819-2.86.39-4.54.77-4.62.79a5 5 0 0 1 -2.369-9.708c1.95-.48 48.1-11.29 82.836 22.878a5 5 0 0 1 -7.01 7.13 71.661 71.661 0 0 0 -6.55-5.72c3.41 14.12 11.02 35.128 27.239 45.518 7.13 4.549 12.609 8.4 16.239 10.949.49.34.95.66 1.37.96l17.149-3.43a21.335 21.335 0 0 1 18.849 5.43l10.9 10.329a5 5 0 0 1 -6.879 7.26l-10.9-10.329a11.33 11.33 0 0 0 -10.009-2.88l-17.149 3.43a11.362 11.362 0 0 0 -9.01 12.539l1.37 10.629a11.383 11.383 0 0 0 6.77 8.97l.36.15a21.3 21.3 0 0 1 12.929 19.6 5.01 5.01 0 0 1 -4.24 4.949l-11.539 1.77a8.843 8.843 0 0 0 -7.54 8.79v8.819l2.2.6a19.013 19.013 0 0 1 18.787-14.141l12.17.32 6.029-38.818a5 5 0 1 1 9.88 1.53l-1.66 10.689c1.35 6.48 12 52.318 46.327 74.286 3.34 1.54 44.728 19.719 77.026-7.319a3.4 3.4 0 0 1 .3-.23l2.5-1.79 13.339-9.52 5.29-5.079a40.443 40.443 0 0 0 12.459-27.419l.48-10.339-8.65 7.869a40.541 40.541 0 0 0 -13.089 26.129l-.73 7.589a5.075 5.075 0 0 1 -1.19 2.79 48.421 48.421 0 0 1 -8.209 7.56c-22.8 16.619-54.7 10.109-56.217 9.789-14.769-3.41-26.269-12.579-33.318-26.538a61.705 61.705 0 0 1 -6.2-20.089 4.708 4.708 0 0 1 -.03-.53c.75-72.436-14.979-88.345-16.139-89.415a4.632 4.632 0 0 1 -2.13-3.23 4.862 4.862 0 0 1 1.12-3.9c14.089-18.069 35.678-28.668 62.437-30.678a132.78 132.78 0 0 1 31.058 1.4c9.179-44.667 32.018-66.986 49.887-77.9a92.871 92.871 0 0 1 34.678-12.729c1.76-17.749 8.27-31.208 19.359-40.068 11.989-9.555 26.398-11.325 35.408-11.325zm-241.776 299.033a81.043 81.043 0 0 0 27.448 17.349c-18.429-15.517-29.138-36.668-35.038-52.507l-1.44 9.3a5.026 5.026 0 0 1 -5.07 4.229l-1.84-.05a78.739 78.739 0 0 0 15.94 21.679zm-24.8-9.019 1.55-5.02c-1.22-2.22-2.19-4.22-2.94-5.91l-.93 9.91zm-17.789-37.428 3.72-.57a11.287 11.287 0 0 0 -6.07-6.24l-.37-.16a21.387 21.387 0 0 1 -12.749-16.889l-1.36-10.629a21.321 21.321 0 0 1 6.86-18.489c-2.13-1.48-4.67-3.22-7.57-5.15l-10.468 30.206a5.76 5.76 0 0 0 .929 5.48l7.59 9.62a5.759 5.759 0 0 0 4.54 2.2 15.75 15.75 0 0 1 14.569 9.7zm-13.208-151.932c-9.98-28.278 1.22-51.377 7.089-60.726-33.288-23.579-45.717-53.107-50.267-74.106a119.739 119.739 0 0 1 -2.2-37.218c-37.428-6.19-61.636-19.139-71.976-38.548a47.146 47.146 0 0 1 -4.379-31.748c-17.979 6.38-31.079 16.539-38.988 30.257-12.08 20.949-8.75 44.418-7.32 51.6 25.089 11.8 60.387 36.488 90.445 87.655 17.119 29.149 24.939 53.837 26.219 58.107 2.089.59 4.079 1.19 6.009 1.79-2.85-8.609-9.209-27.428-13.829-38.128a5 5 0 0 1 9.18-3.97c6.289 14.56 15.269 42.388 15.649 43.568a4.919 4.919 0 0 1 .16 2.31 160.315 160.315 0 0 1 23.538 10.568c2.13-.381 5.87-.961 10.67-1.411z" fill="#0f3047"/><path d="m273.83 483.03a81.054 81.054 0 0 1 -27.45-17.35 78.755 78.755 0 0 1 -15.94-21.68l1.84.05a5.026 5.026 0 0 0 5.07-4.23l1.44-9.3c5.9 15.84 16.61 36.99 35.04 52.51z" fill="#f4c161"/><path d="m207.51 418.66-3.72.57-.38-.92a15.751 15.751 0 0 0 -14.57-9.7 5.757 5.757 0 0 1 -4.54-2.2l-7.59-9.62a5.758 5.758 0 0 1 -.93-5.48l10.47-30.21c2.9 1.93 5.44 3.67 7.57 5.15a21.323 21.323 0 0 0 -6.86 18.49l1.36 10.63a21.389 21.389 0 0 0 12.75 16.89l.37.16a11.287 11.287 0 0 1 6.07 6.24z" fill="#f4c161"/><path d="m197.67 206.56c-5.87 9.35-17.07 32.45-7.09 60.73-4.8.45-8.54 1.03-10.67 1.41a160.287 160.287 0 0 0 -23.54-10.57 4.919 4.919 0 0 0 -.16-2.31c-.38-1.18-9.36-29.01-15.65-43.57a5 5 0 0 0 -9.18 3.97c4.62 10.7 10.98 29.52 13.83 38.13-1.93-.6-3.92-1.2-6.01-1.79-1.28-4.27-9.1-28.96-26.22-58.11-30.06-51.17-65.36-75.86-90.45-87.66-1.43-7.18-4.76-30.65 7.32-51.6 7.91-13.72 21.01-23.88 38.99-30.26a47.147 47.147 0 0 0 4.38 31.75c10.34 19.41 34.55 32.36 71.98 38.55a119.752 119.752 0 0 0 2.2 37.22c4.55 21 16.98 50.53 50.27 74.11z" fill="#c92b32"/><path d="m348.342 132.3a4.99 4.99 0 0 0 -5.6 4.321c-4.742 36.886-48.124 86.425-73.562 112.672a5 5 0 0 0 7.181 6.96c58.209-60.059 73.622-97.512 76.3-118.356a5 5 0 0 0 -4.319-5.597z" fill="#0f3047"/><path d="m360.309 153.11a5 5 0 1 0 -1.627 9.867c47.12 7.774 57.174 46.637 57.58 48.288a5 5 0 0 0 9.721-2.343c-.458-1.912-11.837-46.93-65.674-55.812z" fill="#0f3047"/><path d="m336.582 206.563a5 5 0 0 0 -2.55 6.595c14.683 33.2-.023 78.524-.174 78.978a5 5 0 0 0 9.492 3.15c.664-2 16.089-49.406-.173-86.173a5 5 0 0 0 -6.595-2.55z" fill="#0f3047"/><path d="m52.114 57.391c-20.045 20.009-10.026 46.709-9.591 47.835a5 5 0 0 0 9.331-3.6c-.334-.884-8.043-21.823 7.325-37.161a5 5 0 1 0 -7.065-7.078z" fill="#0f3047"/><path d="m134.468 114.343a5 5 0 0 0 -2.071-6.761c-1.479-.786-36.545-19.126-64.7-8.859a5 5 0 0 0 3.424 9.395c23.909-8.715 56.147 8.062 56.591 8.3a5 5 0 0 0 6.761-2.07z" fill="#0f3047"/><path d="m384.766 317.242a161.826 161.826 0 0 0 -6.885 26.417 5 5 0 0 0 4.058 5.791 5.082 5.082 0 0 0 .873.076 5 5 0 0 0 4.918-4.134 151.734 151.734 0 0 1 6.45-24.779 5 5 0 1 0 -9.414-3.371z" fill="#0f3047"/><path d="m402.065 284.873c-1.491 1.947-2.946 3.993-4.324 6.08a5 5 0 1 0 8.344 5.511c1.251-1.894 2.569-3.748 3.92-5.511a5 5 0 1 0 -7.94-6.08z" fill="#0f3047"/><path d="m422.394 277.74a85.692 85.692 0 0 1 29.441-16.72 68.076 68.076 0 0 1 16.421-3.455 5 5 0 0 0 -.194-10c-.061 0-.124 0-.187 0a76.339 76.339 0 0 0 -19.159 3.946 95.674 95.674 0 0 0 -32.879 18.67 5 5 0 1 0 6.557 7.551z" fill="#0f3047"/><path d="m231.9 199.443a5 5 0 0 0 5.5-8.352 122.99 122.99 0 0 1 -31.531-29.357 5 5 0 1 0 -8.039 5.948 132.968 132.968 0 0 0 34.07 31.761z" fill="#0f3047"/><path d="m181.447 117.7a5 5 0 0 0 -3.768 5.984 118.641 118.641 0 0 0 8.167 23.889 5 5 0 1 0 9.06-4.232 108.607 108.607 0 0 1 -7.475-21.872 5 5 0 0 0 -5.984-3.769z" fill="#0f3047"/><path d="m179.526 97.6h.182a5 5 0 0 0 4.994-4.821 75.621 75.621 0 0 1 1.043-10.756 5 5 0 0 0 -9.8-1.977 83.243 83.243 0 0 0 -1.234 12.375 5 5 0 0 0 4.815 5.179z" fill="#0f3047"/><circle cx="69.404" cy="293.709" fill="#0f3047" r="5.5"/><path d="m221.58 456.66 1.55-5.02c-1.22-2.22-2.19-4.22-2.94-5.91l-.93 9.91z" fill="#f4c161"/><path d="m168.37 258.13c.12-.76-15.08-4.98-17.17-5.57-1.28-4.27-9.1-28.96-26.22-58.11-30.06-51.17-65.36-75.86-90.45-87.66-1.43-7.18-4.76-30.65 7.32-51.6 5.891-10.218 14.665-18.457 26.184-24.635a52.127 52.127 0 0 1 .806-5.625c-17.98 6.38-31.08 16.54-38.99 30.26-12.08 20.95-8.75 44.42-7.32 51.6 25.09 11.8 60.39 36.49 90.45 87.66 17.12 29.15 24.94 53.84 26.22 58.11 2.09.59 17.29 4.81 17.17 5.57a160.287 160.287 0 0 1 23.54 10.57c1.97-.351 5.331-.873 9.621-1.306a172.2 172.2 0 0 0 -21.161-9.264z" fill="#ad2a34"/><path d="m207.51 418.66-3.72.57-.38-.92a15.751 15.751 0 0 0 -14.57-9.7 5.757 5.757 0 0 1 -4.54-2.2l-7.59-9.62a5.758 5.758 0 0 1 -.93-5.48l10.47-30.21c2.9 1.93 5.44 3.67 7.57 5.15a21.323 21.323 0 0 0 -6.86 18.49l1.36 10.63a21.389 21.389 0 0 0 12.75 16.89l.37.16a11.287 11.287 0 0 1 6.07 6.24z" fill="#f4c161"/><path d="m189.3 407.41-7.59-9.62a5.758 5.758 0 0 1 -.93-5.48l9.8-28.288q-2.008-1.371-4.334-2.922l-10.47 30.21a5.758 5.758 0 0 0 .93 5.48l7.59 9.62a5.757 5.757 0 0 0 4.54 2.2 15.889 15.889 0 0 1 1.947.129 5.841 5.841 0 0 1 -1.483-1.329z" fill="#efaf48"/><path d="m201.44 412.42-.37-.16a21.116 21.116 0 0 1 -4.079-2.326 15.88 15.88 0 0 0 -2.555-.3 15.743 15.743 0 0 1 8.974 8.678l.38.92 3.72-.57a11.287 11.287 0 0 0 -6.07-6.242z" fill="#efaf48"/><path d="m256.14 463.685a80.129 80.129 0 0 1 -9.76-8 78.964 78.964 0 0 1 -10.766-12.8 4.983 4.983 0 0 1 -3.334 1.174l-1.84-.05a78.755 78.755 0 0 0 15.94 21.68 81.054 81.054 0 0 0 27.45 17.35 105.257 105.257 0 0 1 -17.69-19.354z" fill="#efaf48"/><path d="m393.807 425.664-.167 3.6a40.442 40.442 0 0 1 -12.46 27.42l-3.377 3.243-.153 1.587a5.075 5.075 0 0 1 -1.19 2.79 48.388 48.388 0 0 1 -8.21 7.56l.3.42 13.34-9.52 5.29-5.08a40.442 40.442 0 0 0 12.46-27.42l.48-10.34z" fill="#efaf48"/></svg>