<svg height="512" viewBox="0 0 512 512" width="512" xmlns="http://www.w3.org/2000/svg"><path d="m316 128v72a24 24 0 0 1 -48 0v-88a96 96 0 0 0 -96-96v112a32 32 0 0 1 -32 32 32 32 0 0 0 -32 32v144a160 160 0 0 0 320 0v-96a112 112 0 0 0 -112-112z" fill="#f06423"/><path d="m380 16a0 0 0 0 1 0 0v66.667a32 32 0 0 1 -32 32 32 32 0 0 1 -32-32v-2.667a64 64 0 0 1 64-64z" fill="#f06423"/><path d="m236 224v96a32 32 0 0 0 32 32 32 32 0 0 0 32-32v-32a64 64 0 0 1 64 64 96 96 0 0 1 -96 96 96 96 0 0 1 -96-96v-64a64 64 0 0 1 64-64z" fill="#fabe19"/><circle cx="268" cy="416" fill="#d7e6f0" r="32"/><circle cx="108" cy="96" fill="#f06423" r="24"/></svg>