<svg id="Capa_1" enable-background="new 0 0 512 512" height="512" viewBox="0 0 512 512" width="512" xmlns="http://www.w3.org/2000/svg"><g><g><path d="m472.921 333.902c1.739-7.242 2.533-14.851 2.215-22.7-1.805-44.574-39.195-79.447-83.805-79.447h-135.331-135.332c-44.609 0-81.998 34.871-83.805 79.443-.318 7.849.476 15.459 2.215 22.703 1.131 4.712.534 9.658-1.673 13.972-10.449 20.421-29.905 70.065-29.905 156.627h248.5 248.5c0-86.562-19.456-136.206-29.905-156.626-2.207-4.313-2.805-9.26-1.674-13.972z" fill="#407093"/></g><g><path d="m472.92 333.908c1.74-7.244 2.535-14.855 2.217-22.704-1.803-44.574-39.195-79.448-83.805-79.448h-135.332-135.332c-8.979 0-17.656 1.434-25.818 4.054 7.912 42.819 20.835 62.332 22.876 65.209 4.634 6.529 12.066 10.215 19.774 10.215 1.346 0 2.7-.112 4.049-.342 7.418 14.138 15.647 22.324 17.262 23.858 4.344 4.126 9.95 6.405 15.701 6.639 9.795 17.99 22.95 29.991 25.225 31.995 4.561 4.012 10.281 6.043 16.021 6.043.879 0 1.758-.047 2.634-.143 15.869 15.607 31.546 18.51 34.012 18.88 1.193.179 2.394.268 3.597.268s2.404-.09 3.597-.268c2.466-.37 18.143-3.273 34.012-18.88.876.096 1.755.143 2.634.143 5.739 0 11.461-2.031 16.021-6.043 2.276-2.004 15.427-14 25.221-31.987 5.753-.237 11.361-2.52 15.706-6.647 1.615-1.534 9.843-9.72 17.261-23.857 1.351.229 2.703.341 4.05.341 7.707-.001 15.142-3.686 19.774-10.215 1.252-1.765 6.6-9.795 12.374-25.626 2.948-8.084 13.972-9.076 18.269-1.621 6.393 11.091 10.272 23.806 10.823 37.431.318 7.862-.479 15.484-2.225 22.738-1.108 4.605-.629 9.439 1.537 13.651 10.413 20.242 30.05 69.945 30.05 156.909h39.395c0-86.569-19.46-136.215-29.908-156.631-2.206-4.311-2.803-9.254-1.672-13.962z" fill="#365e7d"/></g><g><path d="m256 7.5c139.744 0 152.042 168.811 152.042 168.811-4.472-11.18-8.944-14.533-8.944-14.533 0 90.554-24.595 125.211-24.595 125.211 0-17.887-15.651-27.949-15.651-27.949 0 36.892-22.359 58.134-22.359 58.134 0-14.533-12.297-15.651-12.297-15.651 0 29.067-27.949 53.662-27.949 53.662 4.472-10.062-3.354-17.887-3.354-17.887-14.534 33.537-36.893 36.891-36.893 36.891s-22.359-3.354-36.893-36.892c0 0-7.826 7.826-3.354 17.887 0 0-27.949-24.595-27.949-53.662 0 0-12.298 1.118-12.298 15.651 0 0-22.359-21.241-22.359-58.134 0 0-15.651 10.062-15.651 27.949 0 0-24.595-34.657-24.595-125.211 0 0-4.472 3.354-8.944 14.533.001.001 12.299-168.81 152.043-168.81z" fill="#4a80aa"/></g><g><path d="m256 7.5c-6.039 0-11.835.322-17.407.926 102.887 11.139 127.804 120.464 133.241 156.459.326 2.16-2.511 3.236-3.727 1.421-.037-.056-.075-.111-.112-.166-1.129-1.666-3.72-.896-3.742 1.116-.742 66.543-14.887 101.573-21.369 114.187-.887 1.726-3.425 1.347-3.818-.553-1.932-9.335-7.924-15.906-11.733-19.268-1.293-1.141-3.309-.259-3.387 1.464-1.163 25.969-13.264 43.557-19.123 50.616-1.093 1.317-3.219.784-3.567-.892-1.434-6.908-6.199-9.618-9.24-10.66-1.283-.44-2.629.461-2.701 1.815-1.078 20.304-15.265 38.104-22.975 46.348-1.25 1.336-3.539.469-3.529-1.36.02-3.646-1.309-6.7-2.564-8.766-.84-1.383-2.887-1.24-3.58.222-5.592 11.797-12.138 19.515-18.075 24.55 9.481 8.04 17.407 9.232 17.407 9.232s22.359-3.354 36.893-36.893c0 0 7.826 7.826 3.354 17.887 0 0 27.949-24.595 27.949-53.662 0 0 12.297 1.118 12.297 15.651 0 0 22.359-21.241 22.359-58.134 0 0 15.651 10.062 15.651 27.949 0 0 24.595-34.657 24.595-125.211 0 0 4.472 3.354 8.944 14.533.001 0-12.297-168.811-152.041-168.811z" fill="#407093"/></g><g><g><circle cx="325.701" cy="167.106" fill="#dd636e" r="40.407"/></g><g><path d="m343.696 130.928c2.701 5.42 4.229 11.528 4.229 17.995 0 22.316-18.091 40.407-40.407 40.407-6.467 0-12.575-1.528-17.995-4.229 6.62 13.282 20.329 22.412 36.178 22.412 22.316 0 40.406-18.091 40.406-40.406.001-15.85-9.129-29.559-22.411-36.179z" fill="#da4a54"/></g></g><g><g><circle cx="186.299" cy="167.106" fill="#dd636e" r="40.407"/></g><g><path d="m204.294 130.928c2.701 5.42 4.229 11.528 4.229 17.995 0 22.316-18.091 40.407-40.406 40.407-6.467 0-12.575-1.528-17.995-4.229 6.62 13.282 20.329 22.412 36.178 22.412 22.316 0 40.407-18.091 40.407-40.406-.002-15.85-9.131-29.559-22.413-36.179z" fill="#da4a54"/></g></g><g><path d="m26.197 374.492c-3.953-1.237-8.16.968-9.396 4.921-11.149 35.677-16.801 77.763-16.801 125.087 0 4.143 3.357 7.5 7.5 7.5s7.5-3.357 7.5-7.5c0-45.806 5.423-86.386 16.118-120.612 1.236-3.954-.968-8.16-4.921-9.396z"/><path d="m495.155 408.448c-4.065.792-6.719 4.73-5.927 8.796 5.157 26.465 7.772 55.822 7.772 87.256 0 4.143 3.357 7.5 7.5 7.5s7.5-3.357 7.5-7.5c0-32.395-2.708-62.717-8.049-90.125-.791-4.065-4.731-6.724-8.796-5.927z"/><path d="m495.272 379.636c-4.093-13.18-8.806-25.016-14.003-35.176-1.391-2.725-1.766-5.854-1.058-8.807 1.938-8.062 2.753-16.389 2.422-24.757-1.807-44.622-36.511-80.892-80.598-86.004 1.885-11.942 3.354-25.669 4.074-41.334 1.149.307 2.387.344 3.614.061 3.604-.831 6.064-4.165 5.796-7.854-.062-.85-1.606-21.113-9.357-47.814-1.154-3.979-5.315-6.264-9.294-5.112-3.978 1.155-6.267 5.316-5.112 9.294 2.39 8.23 4.157 15.855 5.454 22.391-.501.131-.993.314-1.467.552-2.54 1.271-4.145 3.867-4.145 6.707 0 53.435-8.808 86.903-15.573 104.728-5.42-8.73-12.639-13.466-13.121-13.777-2.309-1.481-5.242-1.586-7.649-.273-2.408 1.315-3.906 3.84-3.906 6.583 0 19.201-6.726 33.845-12.382 42.765-4.01-4.952-9.668-7.352-14.087-7.754-2.106-.2-4.181.51-5.737 1.93-1.557 1.421-2.443 3.432-2.443 5.539 0 13.895-7.616 26.974-14.509 35.964-1.239-2.31-2.694-4.185-4.002-5.49-1.756-1.754-4.267-2.524-6.706-2.061-2.438.466-4.489 2.107-5.476 4.386-10.778 24.88-25.66 30.903-30.008 32.171-4.348-1.268-19.229-7.291-30.008-32.171-.986-2.278-3.037-3.92-5.476-4.386-2.436-.462-4.949.306-6.706 2.061-1.312 1.311-2.773 3.196-4.017 5.518-6.889-8.968-14.494-22.031-14.494-35.991 0-2.107-.887-4.118-2.443-5.539-1.556-1.42-3.635-2.122-5.737-1.93-4.418.402-10.076 2.802-14.086 7.753-5.659-8.925-12.383-23.566-12.383-42.764 0-2.743-1.498-5.268-3.906-6.583-2.407-1.313-5.341-1.208-7.649.273-.482.311-7.699 5.046-13.119 13.774-6.771-17.835-15.575-51.3-15.575-104.725 0-2.84-1.604-5.437-4.145-6.707-.469-.235-.956-.417-1.451-.548 3.133-15.743 8.996-37.84 19.699-59.713.905-1.849 1.833-3.659 2.774-5.445 17.033 4.781 36.017 7.455 55.082 7.455 32.725 0 39.905 24.566 40.227 25.732.888 3.358 3.922 5.585 7.246 5.585.62 0 1.251-.078 1.879-.24 4.011-1.034 6.423-5.125 5.388-9.136-3.297-12.777-18.98-36.941-54.739-36.941-16.175 0-32.468-2.135-47.256-5.923 25.924-40.434 63.14-60.903 110.896-60.903 47.853 0 85.059 20.458 110.922 60.893-14.794 3.792-31.097 5.93-47.282 5.93-35.759 0-51.442 24.164-54.739 36.941-1.035 4.011 1.37 8.127 5.381 9.162.633.163 1.268.241 1.892.241 3.332 0 6.366-2.227 7.238-5.604.287-1.052 7.422-25.741 40.229-25.741 19.066 0 38.05-2.675 55.084-7.456 1.851 3.522 3.636 7.159 5.344 10.929 1.71 3.772 6.152 5.443 9.927 3.735 3.772-1.71 5.445-6.154 3.735-9.927-1.416-3.123-2.941-6.291-4.578-9.479 13.288-5.042 24.8-11.465 33.394-18.938l1.952-1.698c21.051-18.321 56.284-48.988 80.001-48.988 4.143 0 7.5-3.357 7.5-7.5s-3.357-7.5-7.5-7.5c-29.33 0-65.749 31.699-89.849 52.675l-1.947 1.694c-7.691 6.688-18.455 12.482-30.997 17.001-22.343-36.383-60.727-71.37-125.707-71.37-53.916 0-97.021 24.595-125.71 71.37-12.541-4.519-23.305-10.312-30.995-17l-1.946-1.694c-24.1-20.977-60.519-52.676-89.849-52.676-4.143 0-7.5 3.357-7.5 7.5s3.357 7.5 7.5 7.5c23.717 0 58.95 30.667 80.001 48.989l1.951 1.698c8.595 7.474 20.107 13.896 33.396 18.939-.678 1.322-1.356 2.644-2.014 3.995-20.934 43.006-24.225 85.36-24.354 87.143-.269 3.688 2.192 7.022 5.796 7.854 1.229.283 2.465.246 3.614-.061.72 15.666 2.189 29.393 4.074 41.334-44.087 5.112-78.79 41.383-80.598 86.011-.331 8.361.484 16.688 2.421 24.747.709 2.956.334 6.085-1.053 8.802l-.637 1.241c-1.892 3.685-.439 8.206 3.245 10.099 1.097.562 2.268.83 3.421.83 2.722 0 5.348-1.487 6.678-4.075l.648-1.267c3.015-5.906 3.826-12.7 2.282-19.133-1.615-6.72-2.294-13.668-2.018-20.644 1.52-37.53 31.02-67.961 68.324-71.806 7.446 35.332 18.022 50.671 18.705 51.634 1.89 2.662 5.284 3.796 8.395 2.805s5.223-3.88 5.223-7.145c0-3.764.952-7.113 2.323-9.986 5.418 28.562 22.177 44.802 23.021 45.604 2.175 2.065 5.37 2.638 8.124 1.454 2.354-1.011 4.001-3.137 4.43-5.604 7.189 23.89 26.881 41.459 27.897 42.354 2.646 2.327 6.554 2.498 9.396.413 1.008-.741 1.785-1.695 2.304-2.764 14.827 20.257 31.524 23.018 32.394 23.147.368.056.74.083 1.111.083s.743-.027 1.111-.083c.869-.13 17.566-2.891 32.394-23.147.519 1.068 1.296 2.022 2.304 2.764 2.84 2.087 6.75 1.914 9.396-.413 1.017-.895 20.708-18.464 27.897-42.354.429 2.468 2.075 4.594 4.43 5.604 2.755 1.183 5.951.61 8.124-1.454.845-.803 17.605-17.041 23.021-45.606 1.371 2.873 2.323 6.224 2.323 9.989 0 3.265 2.111 6.154 5.222 7.146 3.112.992 6.506-.143 8.395-2.805.683-.962 11.26-16.301 18.705-51.634 37.305 3.845 66.805 34.276 68.324 71.8.276 6.982-.402 13.931-2.019 20.653-1.543 6.43-.731 13.224 2.286 19.136 3.307 6.464 8.253 17.402 13.035 32.799.998 3.215 3.961 5.277 7.16 5.277.736 0 1.486-.109 2.227-.34 3.956-1.229 6.167-5.431 4.937-9.387z"/><path d="m331.16 479.269c-3.336-2.455-8.029-1.745-10.487 1.589l-8.086 10.976c-2.384 3.235-6.207 5.167-10.227 5.167h-26.157c-7.005 0-12.703-5.698-12.703-12.703v-12.122c0-4.143-3.357-7.5-7.5-7.5s-7.5 3.357-7.5 7.5v12.122c0 7.005-5.698 12.703-12.703 12.703h-26.157c-4.02 0-7.843-1.932-10.227-5.168l-8.086-10.975c-2.457-3.334-7.15-4.044-10.487-1.589-3.334 2.457-4.046 7.152-1.589 10.487l8.086 10.974c5.199 7.057 13.537 11.27 22.303 11.27h26.157c7.962 0 15.145-3.381 20.203-8.777 5.058 5.396 12.241 8.777 20.203 8.777h26.157c8.766 0 17.104-4.213 22.303-11.27l8.086-10.975c2.457-3.334 1.745-8.029-1.589-10.486z"/><path d="m422.677 423.258c-4.143 0-7.5 3.357-7.5 7.5 0 6.118-4.315 11.258-8.884 16.699-.804.958-1.615 1.927-2.412 2.912-19.732-17.61-20.169-46.499-20.172-46.902-.001-.417-.044-.823-.111-1.222l6.265-11.722c7.512 3.492 13.214 4.936 13.863 5.094.597.146 1.193.216 1.781.216 3.37 0 6.427-2.291 7.27-5.71.989-4.015-1.467-8.075-5.479-9.074-.368-.092-36.874-9.521-42.919-40.616-.789-4.064-4.721-6.718-8.794-5.931-4.065.791-6.721 4.728-5.931 8.794 3.722 19.143 15.53 31.76 27.171 39.8l-17.028 31.859c-5.734 10.729-16.855 17.395-29.021 17.395h-46.492c-11.46 0-20.784-9.324-20.784-20.784v-8.082c0-4.143-3.357-7.5-7.5-7.5s-7.5 3.357-7.5 7.5v8.082c0 11.46-9.324 20.784-20.784 20.784h-46.492c-12.166 0-23.287-6.665-29.021-17.395l-17.028-31.859c11.642-8.04 23.449-20.657 27.171-39.8.79-4.066-1.865-8.003-5.931-8.794-4.063-.788-8.004 1.866-8.794 5.931-6.045 31.095-42.551 40.524-42.919 40.616-4.015.988-6.473 5.041-5.492 9.06.836 3.427 3.902 5.725 7.28 5.725.588 0 1.187-.07 1.783-.216.649-.158 6.351-1.603 13.863-5.094l6.268 11.727c-.067.396-.111.8-.113 1.215-.002.317-.409 29.267-20.172 46.904-.798-.985-1.608-1.954-2.412-2.912-4.568-5.441-8.884-10.581-8.884-16.699 0-4.143-3.357-7.5-7.5-7.5s-7.5 3.357-7.5 7.5c0 11.581 6.874 19.768 12.396 26.345 2.456 2.91 4.549 5.443 5.99 8.053.14.214 13.938 21.661 13.938 39.345 0 4.143 3.357 7.5 7.5 7.5s7.5-3.357 7.5-7.5c0-15.769-7.938-32.625-12.766-41.42 13.846-11.436 20.56-26.68 23.823-38.899 6.124 10.166 15.683 17.555 26.741 20.999-8.694 11.862-20.474 32.815-20.474 59.32 0 4.143 3.357 7.5 7.5 7.5s7.5-3.357 7.5-7.5c0-28.778 17.111-50.522 22.998-57.15h43.244c11.494 0 21.733-5.453 28.284-13.902 6.552 8.449 16.79 13.902 28.284 13.902h43.244c5.886 6.627 22.999 28.37 22.999 57.15 0 4.143 3.357 7.5 7.5 7.5s7.5-3.357 7.5-7.5c0-26.504-11.78-47.458-20.474-59.32 11.058-3.444 20.617-10.833 26.741-20.999 3.263 12.219 9.978 27.463 23.823 38.899-4.828 8.795-12.766 25.651-12.766 41.42 0 4.143 3.357 7.5 7.5 7.5s7.5-3.357 7.5-7.5c0-17.684 13.799-39.131 13.935-39.34 1.445-2.611 3.536-5.147 5.994-8.058 5.522-6.577 12.396-14.764 12.396-26.345.004-4.144-3.354-7.501-7.496-7.501z"/><path d="m373.607 167.105c0-26.416-21.49-47.906-47.906-47.906s-47.906 21.49-47.906 47.906 21.49 47.906 47.906 47.906 47.906-21.49 47.906-47.906zm-80.812 0c0-18.145 14.762-32.906 32.906-32.906s32.906 14.762 32.906 32.906-14.762 32.906-32.906 32.906-32.906-14.761-32.906-32.906z"/><path d="m186.299 119.199c-26.416 0-47.906 21.49-47.906 47.906s21.49 47.906 47.906 47.906 47.906-21.49 47.906-47.906-21.49-47.906-47.906-47.906zm0 80.813c-18.145 0-32.906-14.762-32.906-32.906s14.762-32.906 32.906-32.906 32.906 14.762 32.906 32.906-14.762 32.906-32.906 32.906z"/><path d="m306.101 231.503c-2.131-.472-4.364.013-6.112 1.324l-12.122 9.092c-3.313 2.485-3.985 7.187-1.5 10.5 2.486 3.313 7.188 3.985 10.5 1.5l4.319-3.239c1.469 4.626 2.873 10.788 2.873 17.442 0 4.143 3.357 7.5 7.5 7.5s7.5-3.357 7.5-7.5c0-17.849-7.642-32.246-7.967-32.851-1.035-1.922-2.858-3.299-4.991-3.768z"/><path d="m212.012 232.827c-1.747-1.311-3.979-1.797-6.112-1.324-2.134.469-3.956 1.846-4.991 3.769-.325.604-7.967 15.002-7.967 32.851 0 4.143 3.357 7.5 7.5 7.5s7.5-3.357 7.5-7.5c0-6.673 1.4-12.829 2.868-17.446l4.324 3.243c3.315 2.485 8.015 1.813 10.5-1.5s1.813-8.015-1.5-10.5z"/></g></g></svg>