<svg id="Capa_1" enable-background="new 0 0 512 512" height="512" viewBox="0 0 512 512" width="512" xmlns="http://www.w3.org/2000/svg"><g><g><g fill="#b3e59f"><path d="m374.5 198.5 37.719-32.799c3.236-2.814 8.281-.515 8.281 3.773v44.026c0 25.405-20.595 46-46 46h-39.64z"/><path d="m137.5 198.5-37.719-32.799c-3.236-2.814-8.281-.515-8.281 3.773v44.026c0 25.405 20.595 46 46 46h30.889z"/><path d="m212.5 332.5v55c0 2.761-2.239 5-5 5h-50c-44.183 0-80 35.817-80 80v12c0 11.046 8.954 20 20 20h317c11.046 0 20-8.954 20-20v-12c0-44.183-35.817-80-80-80h-50c-2.761 0-5-2.239-5-5v-55z"/></g><path d="m434.5 472.5v12c0 11.05-8.95 20-20 20h-30c11.05 0 20-8.95 20-20v-12c0-44.18-35.82-80-80-80h30c44.18 0 80 35.82 80 80z" fill="#95d6a4"/><path d="m365.95 467.23c-2.17 1.99-2.15 5.42.03 7.39l11.87 10.7c1.05.95 1.65 2.3 1.65 3.71v15.47h-247v-25c0-11.05 8.95-20 20-20h52.05c1.55 0 3 .71 3.95 1.93l11.48 14.77c2 2.57 5.9 2.57 7.9 0l11.48-14.77c.95-1.22 2.4-1.93 3.95-1.93h24.8c1.54 0 3 .71 3.95 1.93l11.47 14.77c2 2.57 5.9 2.57 7.9 0l11.48-14.77c.95-1.22 2.41-1.93 3.95-1.93h7.64c16.57 0 30-13.43 30-30v-37h10c8.73 0 17.13 1.4 25 3.99v56.1c0 1.4-.59 2.73-1.62 3.68z" fill="#d19a6e"/><path d="m379.5 396.49v17.91c-9.69-9.17-21.67-15.95-35-19.38v-2.52h10c8.73 0 17.13 1.4 25 3.99z" fill="#bc845e"/><path d="m256 357.5c-64.894 0-117.5-52.606-117.5-117.5v-92c0-64.893 52.606-117.5 117.5-117.5 64.893 0 117.5 52.606 117.5 117.5v92c0 64.894-52.606 117.5-117.5 117.5z" fill="#ccf49f"/><path d="m373.5 148v92c0 64.89-52.61 117.5-117.5 117.5-5.08 0-10.09-.32-15-.95 57.81-7.37 102.5-56.74 102.5-116.55v-92c0-32.44-13.15-61.82-34.42-83.08-17.93-17.94-41.63-30.1-68.08-33.47 4.91-.63 9.92-.95 15-.95 32.44 0 61.82 13.15 83.08 34.42 21.27 21.26 34.42 50.64 34.42 83.08z" fill="#b3e59f"/><path d="m157.5 392.5h30v67h-30z" fill="#bc845e"/><path d="m328 31.5c-.544 0-1.083.024-1.615.069-2.079.178-3.999-.976-4.936-2.84-3.946-7.845-12.068-13.229-21.449-13.229-4.696 0-9.076 1.35-12.775 3.682-2.029 1.279-4.679.953-6.31-.805-6.208-6.688-15.07-10.877-24.915-10.877-9.845 0-18.707 4.189-24.914 10.877-1.632 1.758-4.281 2.084-6.31.805-3.7-2.332-8.08-3.682-12.776-3.682-9.381 0-17.503 5.384-21.449 13.23-.937 1.864-2.857 3.018-4.936 2.84-.532-.046-1.07-.069-1.615-.069-11.49 0-20.717 9.689-19.956 21.342.573 8.778 7.041 16.228 15.621 18.171 2.036.461 4.018.577 5.924.423 1.566-.127 3.132.441 4.152 1.636 4.401 5.156 10.947 8.427 18.259 8.427 4.865 0 9.39-1.45 13.171-3.94 2.251-1.483 5.309-.973 6.841 1.245 6.134 8.878 16.381 14.695 27.988 14.695 11.607 0 21.854-5.817 27.988-14.695 1.532-2.218 4.59-2.728 6.841-1.245 3.78 2.49 8.305 3.94 13.171 3.94 7.312 0 13.857-3.271 18.259-8.429 1.02-1.195 2.587-1.763 4.154-1.636 1.896.154 3.867.039 5.893-.416 8.58-1.927 15.059-9.364 15.648-18.139.783-11.669-8.451-21.38-19.954-21.38z" fill="#fc8d94"/><path d="m347.95 52.88c-.59 8.78-7.06 16.21-15.64 18.14-2.03.45-4 .57-5.9.42-1.56-.13-3.13.44-4.15 1.63-4.4 5.16-10.95 8.43-18.26 8.43-4.87 0-9.39-1.45-13.17-3.94-.76-.51-1.62-.78-2.48-.83 1.44-1.07 2.75-2.3 3.91-3.66 1.02-1.19 2.59-1.76 4.15-1.63 1.9.15 3.87.03 5.9-.42 8.58-1.93 15.05-9.36 15.64-18.14.79-11.67-8.45-21.38-19.95-21.38-.54 0-1.08.02-1.61.07-2.08.18-4-.98-4.94-2.84-1.77-3.54-4.39-6.56-7.6-8.83 1.14.17 2.34-.07 3.37-.72 3.7-2.33 8.08-3.68 12.78-3.68 9.38 0 17.5 5.38 21.45 13.23.94 1.86 2.86 3.02 4.94 2.84.53-.05 1.07-.07 1.61-.07 11.5 0 20.74 9.71 19.95 21.38z" fill="#fa6f7c"/></g><g><path d="m287.729 279.643c-18.596 15.792-44.701 15.783-63.482-.022-3.171-2.667-7.9-2.26-10.568.91-2.666 3.169-2.259 7.9.91 10.567 1.428 1.202 2.892 2.326 4.381 3.387l.306 10.317c.079 2.664 1.566 5.086 3.906 6.362 2.338 1.275 5.18 1.215 7.463-.162l10.444-6.296c4.934 1.219 9.961 1.844 14.987 1.844 4.995 0 9.983-.617 14.875-1.821l10.405 6.273c4.675 3.019 11.375-.638 11.369-6.2l.306-10.291c1.5-1.075 2.972-2.216 4.407-3.435 3.157-2.682 3.543-7.415.862-10.572-2.681-3.156-7.414-3.544-10.571-.861z"/><path d="m308 229v15c0 4.142 3.357 7.5 7.5 7.5s7.5-3.358 7.5-7.5v-15c0-4.142-3.357-7.5-7.5-7.5s-7.5 3.358-7.5 7.5z"/><path d="m189 229v15c0 4.142 3.357 7.5 7.5 7.5s7.5-3.358 7.5-7.5v-15c0-4.142-3.357-7.5-7.5-7.5s-7.5 3.358-7.5 7.5z"/><path d="m305.5 161.563c4.143 0 7.5-3.358 7.5-7.5s-3.357-7.5-7.5-7.5h-99c-4.143 0-7.5 3.358-7.5 7.5s3.357 7.5 7.5 7.5z"/><path d="m179 184.063c0 4.142 3.357 7.5 7.5 7.5h139c4.143 0 7.5-3.358 7.5-7.5s-3.357-7.5-7.5-7.5h-139c-4.143 0-7.5 3.358-7.5 7.5z"/><path d="m354.5 385h-47.5v-30.886c35.659-16 62.505-48.238 71.083-87.247 27.834-1.852 49.917-25.072 49.917-53.367v-44.026c0-4.959-2.804-9.318-7.317-11.375-4.513-2.058-9.644-1.311-13.385 1.942l-26.298 22.868v-34.909c0-29.993-10.667-58.709-30.114-81.365 2.59-3.884 4.226-8.419 4.551-13.252.518-7.705-2.092-15.043-7.347-20.663-5.183-5.541-12.505-8.72-20.09-8.72-.189 0-.381.002-.572.006-5.59-9.911-15.964-16.006-27.428-16.006-5.271 0-10.423 1.311-15.02 3.809-7.718-7.529-18.167-11.809-28.98-11.809s-21.263 4.281-28.98 11.809c-4.597-2.498-9.748-3.809-15.02-3.809-11.464 0-21.838 6.095-27.428 16.006-.191-.004-.383-.006-.572-.006-7.575 0-14.891 3.172-20.071 8.702-5.254 5.608-7.871 12.934-7.369 20.629.317 4.854 1.958 9.41 4.56 13.309-6.781 7.901-12.563 16.604-17.175 25.907-1.84 3.711-.322 8.211 3.389 10.051 3.631 1.823 8.204.359 10.051-3.389 4.056-8.182 9.142-15.839 15.109-22.791 1.748.815 3.587 1.473 5.516 1.91 2.29.519 4.625.738 6.958.655 5.951 6.383 14.267 10.017 23.032 10.017 5.387 0 10.627-1.363 15.291-3.96 7.845 10.037 19.897 15.96 32.709 15.96s24.864-5.923 32.709-15.96c4.664 2.597 9.904 3.96 15.291 3.96 8.766 0 17.082-3.634 23.033-10.018 2.325.085 4.641-.134 6.916-.645 1.947-.438 3.803-1.099 5.565-1.921 17.105 19.933 26.486 45.197 26.486 71.584v92c0 60.654-49.346 110-110 110s-110-49.346-110-110v-92c0-5.89.469-11.8 1.394-17.565.656-4.09-2.128-7.938-6.218-8.593-4.086-.654-7.936 2.128-8.593 6.217-1.051 6.548-1.583 13.257-1.583 19.941v34.909l-26.298-22.868c-3.744-3.256-8.875-3.998-13.385-1.942-4.513 2.056-7.317 6.415-7.317 11.375v44.026c0 28.295 22.083 51.515 49.917 53.367 8.578 39.009 35.424 71.247 71.083 87.247v30.886h-47.5c-48.248 0-87.5 39.252-87.5 87.5v12c0 15.164 12.337 27.5 27.5 27.5h247c4.143 0 7.5-3.358 7.5-7.5s-3.357-7.5-7.5-7.5h-204.5v-17.5c0-6.893 5.607-12.5 12.5-12.5h50.83l10.731 13.806c2.384 3.064 5.981 4.822 9.869 4.822 3.887 0 7.484-1.757 9.871-4.825l10.728-13.803h22.355l10.73 13.807c2.385 3.064 5.981 4.821 9.869 4.821s7.484-1.757 9.872-4.825l10.729-13.803h6.416c20.678 0 37.5-16.822 37.5-37.5v-29.5h2.5c6.031 0 11.894.74 17.5 2.135v49.353l-11.122 10.214c-2.587 2.375-4.061 5.752-4.045 9.264.017 3.512 1.522 6.875 4.13 9.226l11.037 9.953v14.355c0 4.142 3.357 7.5 7.5 7.5h35c15.163 0 27.5-12.336 27.5-27.5v-12c0-48.248-39.252-87.5-87.5-87.5zm-23.839-321.298c-1.2.27-2.425.357-3.644.258-4-.324-7.918 1.262-10.464 4.243-3.143 3.684-7.719 5.797-12.553 5.797-3.232 0-6.36-.935-9.046-2.704-5.645-3.717-13.332-2.262-17.136 3.245-4.958 7.175-13.115 11.459-21.818 11.459s-16.86-4.284-21.817-11.458c-2.38-3.445-6.279-5.304-10.247-5.304-2.375 0-4.776.667-6.89 2.059-2.686 1.768-5.814 2.703-9.046 2.703-4.834 0-9.41-2.113-12.556-5.8-2.545-2.979-6.459-4.562-10.463-4.24-1.221.1-2.453.012-3.66-.262-5.41-1.225-9.438-5.89-9.793-11.345-.229-3.511.959-6.848 3.347-9.396 2.609-2.786 6.224-4.249 10.099-3.915 5.121.436 9.936-2.287 12.277-6.942 2.823-5.613 8.475-9.1 14.749-9.1 3.119 0 6.153.874 8.774 2.526 5.083 3.206 11.732 2.345 15.809-2.047 5.075-5.468 11.971-8.479 19.417-8.479s14.343 3.011 19.417 8.48c4.076 4.392 10.724 5.252 15.808 2.047 2.622-1.653 5.656-2.527 8.775-2.527 6.274 0 11.926 3.487 14.749 9.1 2.343 4.656 7.161 7.382 12.275 6.942 3.905-.332 7.499 1.132 10.108 3.923 2.389 2.554 3.573 5.897 3.337 9.414-.365 5.452-4.398 10.108-9.808 11.323zm82.339 111.258v38.54c0 19.201-14.13 35.162-32.537 38.036.349-3.8.537-7.646.537-11.536v-37.213zm-314 38.54v-38.54l32 27.826v37.214c0 3.89.188 7.736.537 11.536-18.407-2.874-32.537-18.835-32.537-38.036zm66 186.5h15v52h-15zm-40 79.5v17.5h-27.5c-6.893 0-12.5-5.607-12.5-12.5v-12c0-37.444 28.534-68.347 65-72.113v51.731c-13.995 1.269-25 13.062-25 27.382zm212-50c0 12.407-10.094 22.5-22.5 22.5h-7.64c-3.887 0-7.483 1.76-9.869 4.829l-9.507 12.232-9.507-12.232c-2.386-3.069-5.983-4.829-9.87-4.829h-24.801c-3.887 0-7.484 1.76-9.87 4.829l-9.507 12.231-9.507-12.231c-2.386-3.069-5.982-4.829-9.869-4.829h-9.553v-52h12.5c6.893 0 12.5-5.607 12.5-12.5v-27.792c11.406 3.436 23.489 5.292 36 5.292s24.594-1.856 36-5.292v27.792c0 6.893 5.607 12.5 12.5 12.5h32.5zm90 55c0 6.893-5.607 12.5-12.5 12.5h-27.5v-7.967c0-3.533-1.505-6.916-4.129-9.283l-9.823-8.858 9.907-9.099c2.57-2.361 4.045-5.716 4.045-9.206v-44.886c23.702 11.936 40 36.5 40 64.799z"/></g></g></svg>