<svg id="Layer_1" enable-background="new 0 0 128 128" height="512" viewBox="0 0 128 128" width="512" xmlns="http://www.w3.org/2000/svg"><g><g><path d="m116.423 127h-105.401c-.724 0-1.577-7.716-1.656-8.569-.238-2.678-.228-5.375-.04-8.053.288-4.046.238-9.521 2.678-12.952 1.031-1.448 1.22-3.312.615-4.998-.585-1.617-1.031-4.205-.456-8.073.922-6.208 6.059-12.853 15.362-13.666 2.311 5.345 8.965 21.124 16.661 31.547 2.033-3.283 4.86-6.03 8.202-7.974-3.907-5.851-9.362-15.084-11.603-23.851.565-.218 1.111-.476 1.636-.774 1.121-.635 2.529-1.547 4.056-2.797 0-.01.01-.01.02-.02 1.24-1.012 2.093-2.43 2.539-3.967l1.864-6.377c3.708 2.858 8.221 4.524 13.1 4.524 4.502 0 8.707-1.428 12.248-3.898l1.319 5.117c.466 1.795 1.478 3.412 2.955 4.522.04.03.089.069.129.099 5.008 3.689 6.843 3.997 6.843 3.997.496.069.972.149 1.438.218 1.626.278 3.293.159 4.899-.218 13.636-3.164 20.35 6.06 21.441 13.517.585 3.868.139 6.456-.456 8.073-.595 1.686-.417 3.55.625 4.998 2.38 3.342 2.797 10.056 3.183 14.063.527 5.287.011 10.633-2.201 15.512z" fill="#83cec4"/></g><g><path d="m78.132 63.777c-4.155 2.658-8.985 4.175-14.132 4.175-5.544 0-10.711-1.755-15.064-4.8.04-.099.069-.198.099-.298l1.864-6.377c3.709 2.857 8.222 4.523 13.101 4.523 4.502 0 8.707-1.428 12.248-3.898l1.319 5.117c.139.536.327 1.062.565 1.558z" fill="#00b5a3"/></g><g><path d="m78.132 63.777c-4.155 2.658-8.985 4.175-14.132 4.175-5.544 0-10.711-1.755-15.064-4.8.04-.099.069-.198.099-.298l1.864-6.377c3.709 2.857 8.222 4.523 13.101 4.523 4.502 0 8.707-1.428 12.248-3.898l1.319 5.117c.139.536.327 1.062.565 1.558z" fill="#00b5a3"/></g><g><path d="m64.526 91.079s0 .01-.01.01-.01 0-.02-.01c0 0 0 .01.01 0-3.947-7.815-15.015-10.493-15.015-10.493 1.24-.04 2.578-.069 4.026-.069 0 0 10.969-.317 10.998 8.44v2.122z" fill="#d5edea"/></g><g><path d="m64.526 91.079h.01c-.01.01-.01.01-.02.01s-.01-.01-.01-.01h.01v-2.122c.03-8.757 11.008-8.44 11.008-8.44 1.438 0 2.767.03 3.997.069 0 .001-11.048 2.678-14.995 10.493z" fill="#d5edea"/></g><g><path d="m32.364 114.117c1.835 2.856 3.947 7.24 4.463 12.883h-5.792c1.448-4.314 1.607-9.005 1.329-12.883z" fill="#00b5a3"/></g><g><path d="m96.43 127h-5.732c.516-5.574 2.578-9.927 4.403-12.783-.268 3.857-.099 8.509 1.329 12.783z" fill="#00b5a3"/></g><g><path d="m31.033 128c-.105 0-.212-.017-.318-.052-.524-.176-.806-.743-.63-1.266 3.107-9.262.017-20.52-.015-20.633-.149-.532.161-1.084.693-1.233.531-.15 1.083.161 1.233.693.136.484 3.286 11.97-.015 21.809-.14.417-.53.682-.948.682z" fill="#785ae6"/></g><g><path d="m96.435 128c-.418 0-.808-.264-.948-.683-3.3-9.839-.15-21.324-.015-21.809.149-.531.699-.841 1.232-.693.532.149.842.701.693 1.232-.031.113-3.117 11.387-.015 20.633.175.523-.106 1.09-.63 1.266-.105.036-.212.054-.317.054z" fill="#785ae6"/></g><g><path d="m31.035 128c-.105 0-.213-.017-.318-.052-.523-.176-.805-.743-.63-1.267 1.189-3.542 1.62-7.746 1.28-12.493-.326-4.646-1.285-8.107-1.294-8.142-.149-.532.161-1.084.693-1.233.532-.151 1.084.161 1.233.693.042.149 1.023 3.694 1.364 8.541.359 5.011-.105 9.477-1.378 13.271-.143.418-.532.682-.95.682z" fill="#785ae6"/></g><g><path d="m96.43 128c-.418 0-.809-.265-.949-.684-1.259-3.771-1.723-8.202-1.377-13.17.33-4.893 1.321-8.488 1.363-8.639.149-.532.698-.842 1.231-.695.532.148.843.7.695 1.231-.01.035-.979 3.56-1.294 8.239-.327 4.708.104 8.879 1.28 12.399.175.524-.108 1.09-.632 1.266-.105.036-.212.053-.317.053z" fill="#785ae6"/></g><g><path d="m64 61.002c-12.613 0-22.838-11.198-22.838-25.01v-9.98c0-13.813 10.225-25.01 22.838-25.01 12.613 0 22.838 11.198 22.838 25.01v9.98c0 13.813-10.225 25.01-22.838 25.01z" fill="#83cec4"/></g><g><path d="m86.84 26.012v3.927c0-6.912-2.559-13.16-6.684-17.683-4.136-4.532-9.848-7.329-16.156-7.329-12.615 0-22.84 11.197-22.84 25.012v-3.927c0-13.815 10.225-25.012 22.84-25.012 6.307 0 12.02 2.797 16.155 7.329 4.126 4.522 6.685 10.77 6.685 17.683z" fill="#d5edea"/></g><g><path d="m64 62.002c-13.144 0-23.838-11.668-23.838-26.011v-9.979c0-14.342 10.694-26.01 23.838-26.01 4.257 0 8.44 1.245 12.098 3.6.464.299.598.918.299 1.382-.299.465-.918.599-1.382.299-3.334-2.146-7.143-3.281-11.015-3.281-12.042 0-21.838 10.771-21.838 24.01v9.979c0 13.24 9.796 24.011 21.838 24.011s21.838-10.771 21.838-24.011v-9.979c0-5.363-1.578-10.44-4.564-14.68-.318-.452-.209-1.075.242-1.394s1.076-.209 1.394.242c3.224 4.579 4.928 10.054 4.928 15.832v9.979c0 14.343-10.694 26.011-23.838 26.011z" fill="#785ae6"/></g><g><g><path d="m102.232 22.475v1.076c0 .78-.318 1.526-.922 2.031-1.252 1.043-3.338 3.404-3.338 7.488 0 1.438.571 2.91 1.296 4.205.988 1.779-.307 3.964-2.339 3.964h-10.486v-.615c.242-1.416.384-2.866.384-4.359.011-.088.011-.187.011-.274v-10.112l12.155-5.501c1.515-.692 3.239.428 3.239 2.097z" fill="#83cec4"/></g><g><path d="m41.557 40.625v.615h-10.475c-2.042 0-3.327-2.185-2.339-3.964.725-1.296 1.296-2.767 1.296-4.205 0-4.084-2.097-6.445-3.349-7.488-.593-.505-.922-1.252-.922-2.031v-1.076c0-1.669 1.724-2.789 3.25-2.097l12.144 5.501v10.113c0 .088 0 .187.011.274 0 1.492.143 2.941.384 4.358z" fill="#83cec4"/></g><g><path d="m41.173 36.266h-2.207c-1.987 0-3.59-1.614-3.59-3.59 0-.999.395-1.889 1.054-2.536.648-.659 1.537-1.054 2.536-1.054h2.196v6.906c0 .087 0 .186.011.274z" fill="#d87e9f"/></g><g><path d="m92.625 32.675c0 1.976-1.603 3.59-3.579 3.59h-2.218c.011-.088.011-.187.011-.274v-6.906h2.207c.988 0 1.889.395 2.525 1.054.658.648 1.054 1.537 1.054 2.536z" fill="#d87e9f"/></g></g><g><g><path d="m96.929 42.239h-10.486c-.552 0-1-.448-1-1v-.615c0-.056.005-.113.014-.168.249-1.459.37-2.83.37-4.191 0-.042.003-.084.008-.127.005-.047.003-.1.003-.147v-10.113c0-.393.23-.749.588-.911l12.155-5.501c1.015-.463 2.188-.379 3.133.229.951.611 1.518 1.65 1.518 2.78v1.076c0 1.098-.467 2.118-1.281 2.798-1.113.928-2.979 3.034-2.979 6.721 0 1.08.393 2.331 1.169 3.717.638 1.148.62 2.507-.045 3.639-.668 1.136-1.852 1.813-3.167 1.813zm-10.486-1.614h.01zm1.075-.386h9.411c.599 0 1.138-.309 1.443-.827.302-.514.311-1.131.022-1.651-.943-1.687-1.422-3.266-1.422-4.691 0-4.502 2.317-7.105 3.698-8.256.357-.299.563-.759.563-1.263v-1.076c0-.453-.218-.853-.6-1.097-.375-.242-.822-.274-1.224-.09l-11.57 5.236v9.468c0 .104-.002.218-.011.326-.003 1.283-.105 2.571-.31 3.921z" fill="#785ae6"/></g><g><path d="m41.557 42.239h-10.474c-1.318 0-2.502-.676-3.169-1.81-.666-1.131-.682-2.492-.044-3.64.776-1.389 1.169-2.639 1.169-3.72 0-3.68-1.873-5.79-2.989-6.72-.818-.696-1.282-1.714-1.282-2.799v-1.076c0-1.127.566-2.165 1.513-2.776.947-.61 2.123-.697 3.149-.232l12.144 5.501c.357.162.587.519.587.911v10.113c0 .047-.002.1.003.148.004.039.008.087.008.126 0 1.361.121 2.731.37 4.191.009.055.014.112.014.168v.615c.001.553-.447 1-.999 1zm-13.492-21.07c-.243 0-.484.071-.7.21-.379.245-.597.644-.597 1.095v1.076c0 .498.208.961.571 1.27 1.377 1.147 3.7 3.755 3.7 8.25 0 1.426-.479 3.005-1.422 4.694-.289.52-.282 1.138.021 1.651.304.516.844.824 1.445.824h9.399c-.205-1.35-.307-2.639-.309-3.922-.009-.108-.011-.222-.011-.326v-9.468l-11.556-5.235c-.176-.079-.359-.119-.541-.119z" fill="#785ae6"/></g><g><path d="m41.173 37.266h-2.207c-2.531 0-4.59-2.059-4.59-4.59 0-1.238.48-2.392 1.353-3.25.846-.86 2-1.341 3.237-1.341h2.196c.552 0 1 .448 1 1v6.907c0 .047-.002.1.003.148.033.284-.056.573-.245.786-.19.213-.462.34-.747.34zm-2.207-7.182c-.697 0-1.344.268-1.823.755-.5.491-.768 1.138-.768 1.835 0 1.428 1.162 2.59 2.59 2.59h1.196v-5.181h-1.195z" fill="#785ae6"/></g><g><path d="m89.045 37.266h-2.218c-.287 0-.561-.124-.75-.339-.19-.215-.278-.502-.241-.788.005-.047.003-.1.003-.147v-6.907c0-.552.448-1 1-1h2.207c1.245 0 2.397.483 3.244 1.359.855.839 1.335 1.994 1.335 3.231 0 2.532-2.055 4.591-4.58 4.591zm-1.207-2h1.207c1.422 0 2.58-1.162 2.58-2.59 0-.697-.268-1.345-.755-1.823-.485-.501-1.126-.768-1.824-.768h-1.207v5.181z" fill="#785ae6"/></g></g><g><g><path d="m63.778 50.114c-8.078 0-13.707-3.473-13.942-3.621-.468-.293-.608-.909-.316-1.377.292-.469.91-.61 1.377-.318.053.033 5.403 3.316 12.881 3.316 7.501 0 13.295-3.3 13.353-3.333.478-.277 1.089-.114 1.366.364s.115 1.088-.362 1.366c-.253.147-6.296 3.603-14.357 3.603z" fill="#785ae6"/></g><g><path d="m58.938 48.673c-2.772-.483-5.028-1.318-6.515-1.987l4.347-6.072s2.168 4.567 2.168 8.059z" fill="#f0f0e7"/></g><g><path d="m75.483 46.674c-1.525.648-3.78 1.449-6.502 1.943.025-3.481 2.155-8.004 2.155-8.004z" fill="#f0f0e7"/></g><g><path d="m58.937 49.673c-.057 0-.114-.005-.171-.015-2.934-.511-5.292-1.403-6.754-2.061-.273-.123-.477-.362-.555-.652s-.022-.599.152-.842l4.348-6.072c.205-.288.545-.445.902-.414.353.032.663.248.814.567.093.195 2.264 4.813 2.264 8.488 0 .295-.13.575-.356.765-.182.154-.41.236-.644.236zm-4.972-3.424c1.044.409 2.361.845 3.887 1.188-.221-1.706-.826-3.526-1.311-4.786z" fill="#785ae6"/></g><g><path d="m68.981 49.618c-.233 0-.462-.082-.644-.235-.228-.191-.358-.475-.356-.772.027-3.659 2.159-8.23 2.25-8.423.151-.321.46-.538.814-.57.352-.035.697.125.903.413l4.348 6.061c.177.247.232.561.15.853s-.292.532-.572.65c-1.478.628-3.843 1.486-6.715 2.007-.059.011-.118.016-.178.016zm2.388-6.963c-.475 1.246-1.066 3.035-1.293 4.718 1.494-.341 2.802-.763 3.85-1.154z" fill="#785ae6"/></g></g><g><g><path d="m48.991 20.096 10.635 4.345s-2.71 5.14-7.58 3.213c-5.023-1.987-3.055-7.558-3.055-7.558z" fill="#f0f0e7"/></g><g><path d="m79.009 20.096-10.635 4.345s2.71 5.14 7.58 3.213c5.023-1.987 3.055-7.558 3.055-7.558z" fill="#f0f0e7"/></g></g><g><g><path d="m54.178 29.085c-.78 0-1.616-.15-2.5-.5-4.682-1.852-4.421-6.581-3.63-8.822.091-.258.284-.467.534-.58.25-.111.535-.116.788-.013l10.635 4.346c.261.107.465.319.562.584.096.265.076.559-.055.808-.872 1.65-3.136 4.177-6.334 4.177zm-4.498-7.627c-.248 1.483-.209 4.103 2.733 5.268 2.824 1.117 4.774-.636 5.705-1.819z" fill="#785ae6"/></g><g><path d="m73.822 29.085c-3.199 0-5.462-2.527-6.333-4.177-.131-.25-.151-.543-.055-.808.097-.265.3-.477.562-.584l10.635-4.346c.254-.103.54-.098.788.013.25.112.442.322.534.58.792 2.241 1.052 6.97-3.629 8.822-.886.35-1.722.5-2.502.5zm-3.935-4.182c.938 1.18 2.893 2.933 5.7 1.822 2.926-1.158 2.965-3.796 2.728-5.266z" fill="#785ae6"/></g></g><g><g><path d="m61.64 36.38c-.26 0-.52-.1-.71-.29-.18-.18-.29-.44-.29-.71 0-.26.11-.52.29-.7.37-.37 1.05-.37 1.42 0 .18.18.29.44.29.7 0 .27-.11.53-.29.71-.19.19-.45.29-.71.29z" fill="#785ae6"/></g><g><path d="m66.36 36.39c-.13 0-.26-.03-.38-.08-.13-.05-.23-.13-.33-.22-.04-.04-.09-.1-.12-.15-.04-.05-.07-.11-.09-.17-.03-.06-.05-.13-.06-.19s-.02-.13-.02-.19c0-.27.11-.53.29-.71.1-.1.2-.17.33-.22.37-.15.81-.06 1.09.22.18.18.29.44.29.71 0 .26-.11.52-.29.7-.19.19-.45.3-.71.3z" fill="#785ae6"/></g></g><g><path d="m87.772 114.643c0 4.532-1.279 8.767-3.511 12.357h-40.096c-2.231-3.59-3.511-7.825-3.511-12.357 0-13.012 10.552-23.564 23.554-23.564 13.012 0 23.564 10.552 23.564 23.564z" fill="#d87e9f"/></g><g><path d="m87.772 114.643c0 .942-.06 1.884-.169 2.807-1.379-11.702-11.326-20.777-23.395-20.777-12.059 0-22.007 9.074-23.385 20.777-.109-.922-.169-1.864-.169-2.807 0-13.012 10.552-23.564 23.554-23.564 13.012 0 23.564 10.552 23.564 23.564z" fill="#e890b4"/></g><g><path d="m84.261 128h-40.095c-.346 0-.667-.179-.849-.472-2.396-3.854-3.662-8.31-3.662-12.885 0-13.544 11.015-24.564 24.554-24.564 5.582 0 10.846 1.832 15.225 5.296.433.343.506.972.164 1.405s-.972.506-1.405.164c-4.021-3.183-8.857-4.865-13.983-4.865-12.436 0-22.554 10.122-22.554 22.564 0 4.016 1.062 7.931 3.075 11.357h38.968c2.013-3.426 3.075-7.341 3.075-11.357 0-4.729-1.454-9.261-4.204-13.105-.321-.449-.217-1.074.232-1.395.448-.322 1.073-.218 1.395.232 2.994 4.186 4.577 9.12 4.577 14.269 0 4.575-1.266 9.031-3.662 12.885-.184.292-.505.471-.851.471z" fill="#785ae6"/></g><g><path d="m44.185 103.236c-.317 0-.616-.15-.805-.406-7.451-10.1-14.009-25.323-16.478-31.054l-.494-1.145c-.296-.679-.269-1.445.075-2.102s.96-1.117 1.689-1.261c2.177-.422 3.973-.427 5.342-.016 2.309.706 4.182.639 5.35.455 1.22-.208 2.414.542 2.702 1.711 2.047 8.71 7.466 18.016 11.652 24.289.153.229.205.512.142.781s-.233.5-.471.638c-3.196 1.859-5.912 4.5-7.854 7.636-.175.282-.478.459-.81.473-.013.001-.027.001-.04.001zm-13-34.288c-.771 0-1.655.095-2.627.283-.178.036-.266.157-.302.227-.036.068-.085.209-.013.376l.497 1.151c2.35 5.456 8.442 19.599 15.411 29.493 1.829-2.587 4.158-4.814 6.83-6.528-4.187-6.384-9.339-15.47-11.359-24.063-.034-.139-.243-.239-.434-.206-1.39.217-3.587.301-6.254-.515-.484-.145-1.073-.218-1.749-.218z" fill="#785ae6"/></g><g><path d="m64.514 92.084c-.55 0-.998-.445-1-.996l-.001-1.443.001-.652c0-1.979-.63-3.595-1.873-4.803-2.869-2.788-8.041-2.673-8.095-2.672-1.377 0-2.722.023-4.024.068-1.691.059-3.28.158-4.729.295-.55.048-1.038-.352-1.09-.901s.352-1.038.901-1.09c1.488-.141 3.117-.243 4.84-.303 1.333-.045 2.701-.068 4.073-.068.218-.005 6.049-.133 9.517 3.238 1.646 1.599 2.479 3.697 2.479 6.237l-.001.656.001 1.431c.002.552-.443 1.002-.996 1.004 0-.001-.001-.001-.003-.001z" fill="#785ae6"/></g><g><path d="m64.514 92.084c-.002 0-.003 0-.005 0-.552-.003-.998-.453-.995-1.005.002-.495.002-.972.001-1.43l-.001-.656c0-2.538.834-4.635 2.479-6.234 3.471-3.374 9.313-3.244 9.559-3.24 1.343-.006 2.71.022 4.035.068 11.912.417 14.662 2.64 14.937 2.893.407.374.433 1.006.06 1.413-.374.406-1.005.434-1.413.06-.002 0-2.586-1.979-13.644-2.366-1.31-.045-2.653-.067-4.002-.067-.081-.003-5.285-.104-8.143 2.681-1.239 1.207-1.867 2.82-1.867 4.794l.001.652c.001.462.001.945-.001 1.444-.004.549-.451.993-1.001.993z" fill="#785ae6"/></g><g><path d="m44.185 103.236c-.316 0-.616-.15-.805-.406-7.425-10.057-13.746-24.718-16.444-30.979l-.039-.089c-8.334 1.033-12.904 7.075-13.746 12.741-.563 3.784-.089 6.213.407 7.585.729 2.033.452 4.244-.741 5.918-.295.416-.562.892-.815 1.456-.226.503-.817.729-1.322.502-.503-.226-.729-.818-.502-1.322.307-.684.637-1.271 1.01-1.795.813-1.142.996-2.667.488-4.081-.835-2.309-1.005-5.188-.504-8.558.981-6.603 6.391-13.652 16.264-14.515.422-.041.834.204 1.005.599l.331.767c2.348 5.446 8.435 19.565 15.378 29.419 1.829-2.588 4.158-4.814 6.83-6.528-4.025-6.135-9.017-14.887-11.166-23.291-.125-.491.136-.998.608-1.181.518-.2 1.023-.438 1.504-.71 1.309-.741 2.609-1.637 3.867-2.661.024-.023.05-.046.077-.067 1.027-.84 1.789-2.038 2.203-3.464l1.865-6.379c.093-.317.336-.568.65-.67.314-.104.658-.043.92.158 3.667 2.823 7.986 4.315 12.492 4.315 4.151 0 8.188-1.286 11.676-3.718.27-.188.613-.231.919-.117.308.114.54.371.621.688l1.319 5.117c.422 1.624 1.341 3.035 2.588 3.973l.121.093c4.618 3.402 6.42 3.816 6.438 3.82.256.034.555.081.848.126l.549.084c1.413.242 2.928.172 4.523-.203 2.937-.681 5.722-.838 8.281-.469.546.079.926.586.847 1.133s-.583.923-1.133.847c-2.312-.335-4.85-.187-7.54.438-1.854.435-3.636.514-5.294.23l-.542-.083c-.283-.044-.571-.089-.866-.13-.238-.04-2.243-.458-7.298-4.182-.006-.005-.078-.06-.084-.064-1.659-1.249-2.839-3.049-3.375-5.111l-.972-3.77c-3.539 2.162-7.53 3.298-11.626 3.298-4.478 0-8.784-1.337-12.538-3.882l-1.467 5.018c-.523 1.802-1.501 3.333-2.828 4.43-.019.017-.038.034-.057.05-1.36 1.113-2.772 2.086-4.197 2.893-.305.173-.619.334-.939.483 2.299 8.284 7.349 16.881 11.245 22.716.153.229.205.512.143.781s-.233.5-.471.639c-3.196 1.859-5.912 4.5-7.854 7.636-.175.282-.478.459-.81.473-.015-.001-.028-.001-.042-.001z" fill="#785ae6"/></g><g><path d="m116.423 128h-105.402c-.746 0-1.767 0-2.652-9.476-.229-2.584-.243-5.347-.042-8.216.039-.55.072-1.127.106-1.722l.038-.663c.032-.551.496-.977 1.057-.939.551.032.972.505.939 1.057l-.038.66c-.035.604-.068 1.19-.107 1.749-.194 2.763-.182 5.419.038 7.894.197 2.106.776 6.33 1.197 7.657h104.21c1.769-4.199 2.395-9.044 1.861-14.412l-.104-1.121c-.352-3.835-.883-9.632-2.898-12.461-1.192-1.657-1.474-3.868-.753-5.911.506-1.376.984-3.798.41-7.59-.536-3.665-2.738-8.543-7.313-11.258-.475-.282-.631-.896-.35-1.37.281-.475.894-.632 1.37-.35 4.399 2.611 7.491 7.353 8.271 12.684.511 3.376.341 6.259-.507 8.563-.499 1.414-.314 2.939.498 4.069 2.331 3.273 2.87 9.151 3.264 13.443l.104 1.108c.593 5.972-.176 11.363-2.287 16.02-.161.356-.517.585-.91.585zm-104.735-1.68h.01z" fill="#785ae6"/></g><g><path d="m108.775 86.803c-.529 0-.971-.416-.998-.95-.186-3.692-2.802-4.358-2.829-4.364-.537-.128-.869-.667-.741-1.205.128-.537.67-.868 1.205-.741.167.04 4.103 1.037 4.362 6.209.028.552-.397 1.021-.948 1.049-.017.001-.034.002-.051.002z" fill="#785ae6"/></g><g><path d="m19.199 86.803c-.017 0-.034 0-.051-.001-.552-.027-.977-.497-.949-1.048.259-5.173 4.194-6.17 4.362-6.209.538-.129 1.077.204 1.205.741.127.534-.2 1.071-.732 1.203-.12.031-2.656.741-2.837 4.366-.027.532-.469.948-.998.948z" fill="#785ae6"/></g><g><circle cx="64.213" cy="115.212" fill="#fefaa3" r="11.27"/></g><g><path d="m52.942 115.218c0-6.228 5.048-11.276 11.276-11.276 6.218 0 11.266 5.048 11.266 11.276 0 .714-.069 1.408-.198 2.093-.982-5.227-5.564-9.174-11.068-9.174-5.514 0-10.096 3.947-11.078 9.174-.128-.685-.198-1.379-.198-2.093z" fill="#d8c873"/></g><g><path d="m64.213 127.481c-6.766 0-12.27-5.504-12.27-12.27s5.504-12.27 12.27-12.27 12.27 5.504 12.27 12.27-5.504 12.27-12.27 12.27zm0-22.539c-5.663 0-10.27 4.607-10.27 10.27s4.607 10.27 10.27 10.27 10.27-4.607 10.27-10.27-4.607-10.27-10.27-10.27z" fill="#785ae6"/></g></g></svg>