<svg id="Capa_1" enable-background="new 0 0 512 512" height="512" viewBox="0 0 512 512" width="512" xmlns="http://www.w3.org/2000/svg"><g><g><path d="m373.352 245.033c-7.856 18.966 1.15 40.709 20.116 48.565s40.709-1.15 48.565-20.116 14.28-34.476 26.662-64.369-76.565-9.413-95.343 35.92z" fill="#5ec783"/></g><g><path d="m138.648 245.033c7.856 18.966-1.15 40.709-20.116 48.565s-40.709-1.15-48.565-20.116-14.28-34.476-26.662-64.369 76.565-9.413 95.343 35.92z" fill="#49b76b"/></g><g><circle cx="110.582" cy="308.539" fill="#f7ef87" r="30.905"/></g><g><circle cx="401.418" cy="308.539" fill="#f7ef87" r="30.905"/></g><g><path d="m153.914 512c-12.946 0-22.765-11.815-20.235-24.511 11.387-57.149 61.824-100.218 122.321-100.218s110.934 43.069 122.322 100.219c2.53 12.696-7.29 24.511-20.235 24.511h-204.173z" fill="#5ec783"/></g><g><path d="m281.747 389.954c-8.309-1.756-16.921-2.684-25.747-2.684-60.368 0-110.877 43.15-122.307 100.207-2.543 12.699 7.282 24.523 20.233 24.523h28.854c0-59.921 42.52-110.136 98.967-122.046z" fill="#49b76b"/></g><g><path d="m127.227 470.847h77.264c11.379 0 20.604-9.225 20.604-20.604v-72.113h-46.358c-39.827 0-72.113 32.286-72.113 72.113 0 11.38 9.224 20.604 20.603 20.604z" fill="#c6c6c6"/></g><g><path d="m384.773 470.847h-77.264c-11.379 0-20.604-9.225-20.604-20.604v-72.113h46.358c39.827 0 72.113 32.286 72.113 72.113 0 11.38-9.224 20.604-20.603 20.604z" fill="#c6c6c6"/></g><g><g><circle cx="256" cy="250.981" fill="#89d47f" r="149.376"/></g></g><g><g><path d="m158.133 250.981c0-73.715 53.398-134.952 123.622-147.157-8.367-1.454-16.971-2.219-25.755-2.219-82.498 0-149.376 66.878-149.376 149.376s66.878 149.377 149.376 149.377c8.783 0 17.387-.765 25.755-2.219-70.224-12.206-123.622-73.443-123.622-147.158z" fill="#5ec783"/></g></g><g><g><path d="m200.392 111.216c0 41.923 17.515 79.862 45.81 107.285 5.408 5.241 14.188 5.241 19.596 0 28.295-27.423 45.81-65.361 45.81-107.285s-17.515-79.862-45.81-107.285c-5.408-5.242-14.188-5.242-19.596 0-28.295 27.423-45.81 65.362-45.81 107.285z" fill="#e8899e"/></g></g><g><path d="m256 111.216c0-32.108 10.283-61.871 27.804-86.371-5.357-7.49-11.381-14.493-18.006-20.914-5.408-5.242-14.188-5.242-19.596 0-28.295 27.423-45.81 65.362-45.81 107.285s17.515 79.862 45.81 107.285c5.408 5.241 14.188 5.241 19.596 0 6.625-6.421 12.649-13.424 18.006-20.914-17.521-24.5-27.804-54.264-27.804-86.371z" fill="#e26e7e"/></g><g><g><g><ellipse cx="174.042" cy="301.454" fill="#fff" rx="30.241" ry="24.082"/></g><g><ellipse cx="337.958" cy="301.454" fill="#fff" rx="30.241" ry="24.082"/></g></g><g fill="#4e5660"><path d="m277.889 272.249c-3.125-2.721-7.859-2.396-10.582.727-2.854 3.275-6.976 5.154-11.307 5.154s-8.452-1.879-11.307-5.154c-2.723-3.124-7.46-3.448-10.582-.727s-3.448 7.459-.727 10.582c5.704 6.546 13.947 10.3 22.615 10.3s16.911-3.754 22.615-10.3c2.723-3.123 2.397-7.861-.725-10.582z"/><path d="m205.787 254.273-24.791-6.643c-4.003-1.07-8.114 1.303-9.186 5.304s1.302 8.113 5.303 9.186l7.531 2.018c-.303.815-.477 1.693-.477 2.613v10.679c0 4.142 3.357 7.5 7.5 7.5s7.5-3.358 7.5-7.5v-9.401l2.737.733c.65.174 1.304.257 1.946.257 3.312 0 6.342-2.21 7.239-5.561 1.073-4-1.301-8.113-5.302-9.185z"/><path d="m340.189 252.934c-1.071-4.001-5.183-6.374-9.186-5.304l-24.791 6.643c-4.001 1.072-6.375 5.185-5.303 9.186.897 3.351 3.928 5.561 7.239 5.561.643 0 1.296-.083 1.946-.257l2.737-.733v9.401c0 4.142 3.357 7.5 7.5 7.5s7.5-3.358 7.5-7.5v-10.681c0-.92-.174-1.798-.477-2.613l7.531-2.018c4.003-1.072 6.377-5.184 5.304-9.185z"/></g></g></g></svg>