<svg id="Capa_1" enable-background="new 0 0 465 465" height="512" viewBox="0 0 465 465" width="512" xmlns="http://www.w3.org/2000/svg"><g><g><path d="m411.955 281.195-127.017-31.529v-33.604c-23.159 20.194-52.883 33.376-52.883 33.376s-29.218-13.083-52.117-33.149v33.377l-126.903 31.523c-26.752 6.645-45.535 30.665-45.535 58.23v118.018h450v-118.01c0-27.569-18.788-51.591-45.545-58.232z" fill="#8ae897"/><path d="m411.955 281.195-127.017-31.529v-33.604c-6.42 5.598-13.344 10.656-20 15.045v34.202l142.199 35.297c17.878 4.438 30.363 20.401 30.363 38.821v118.01h20v-118.01c0-27.569-18.788-51.591-45.545-58.232z" fill="#69bdc6"/><path d="m232.054 249.438s-79-35.37-79-79v-83.496c0-43.84 35.54-79.38 79.38-79.38h.007c43.84 0 79.38 35.54 79.38 79.38v83.495c0 43.631-79.767 79.001-79.767 79.001z" fill="#8ae897"/><g fill="#69bdc6"><path d="m254.674 10.742c22.311 14.051 37.147 38.886 37.147 67.201v83.495c0 40.145-67.526 73.294-78.316 78.334 10.723 6.161 18.549 9.666 18.549 9.666s79.767-35.37 79.767-79v-83.496c0-36.119-24.133-66.583-57.147-76.2z"/><path d="m153.054 145.094h-15.125c-16.569 0-30-13.431-30-30v-55.063h15.125c16.569 0 30 13.431 30 30"/><path d="m311.821 145.094h15.125c16.569 0 30-13.431 30-30v-55.063h-15.125c-16.569 0-30 13.431-30 30"/></g></g><g><path d="m413.762 273.916-121.324-30.116v-24.363c17.85-16.265 26.883-32.694 26.883-49v-17.844h7.625c20.678 0 37.5-16.822 37.5-37.5v-62.562h-22.626c-10.032 0-19.149 3.967-25.885 10.405-1.97-6.868-4.774-13.49-8.389-19.691l-12.958 7.555c6.367 10.921 9.732 23.419 9.732 36.143v83.495c0 30.293-49.536 60.011-72.253 70.743-22.509-10.723-71.513-40.395-71.513-70.743v-83.496c0-39.635 32.245-71.88 71.886-71.88 20.463 0 40.019 8.764 53.654 24.045l11.191-9.986c-16.478-18.467-40.113-29.059-64.852-29.059-39.578 0-73.058 26.604-83.502 62.867-6.736-6.434-15.849-10.398-25.878-10.398h-22.623v62.562c0 20.678 16.822 37.5 37.5 37.5h7.625v17.844c0 16.374 9.033 32.875 26.883 49.214v24.149l-121.211 30.11c-6.146 1.527-12.033 3.901-17.495 7.056l7.502 12.989c4.247-2.453 8.826-4.299 13.609-5.488l117.595-29.211v18.181h15v-45.593c.242.176.476.353.72.529 20.145 14.583 39.997 23.535 40.833 23.909l3.05 1.366 3.055-1.355c.843-.374 20.879-9.322 41.213-23.899.383-.274.752-.549 1.13-.823v45.866h15v-18.182l117.711 29.219c23.462 5.824 39.85 26.777 39.85 50.953v28.01h15v-28.01c0-31.084-21.07-58.023-51.238-65.511zm-71.942-206.385h7.625v47.562c0 12.407-10.094 22.5-22.5 22.5h-7.625v-47.562c0-12.406 10.094-22.5 22.5-22.5zm-203.89 70.063c-12.406 0-22.5-10.093-22.5-22.5v-47.563h7.625c12.406 0 22.5 10.093 22.5 22.5v47.562h-7.625z"/><path d="m450 449.938h-60.056l.056-67.432-15-.013-.056 67.444h-285.132v-67.437h-15v67.438h-59.812v-110.519c0-14.239 5.608-27.57 15.793-37.537l-10.492-10.72c-13.091 12.812-20.301 29.95-20.301 48.257v125.518h465v-82.437h-15z"/><path d="m224.96 405.881-113.324 14.114 1.853 14.885 119.011-14.822 119.011 14.822 1.853-14.885-113.404-14.124.058-38.422-15-.023z"/><path d="m225.051 337.469h15v15h-15z"/><path d="m191.297 104.314h14.999v23.776h-14.999z" transform="matrix(.311 -.95 .95 .311 26.471 268.932)"/><path d="m254.437 108.702h23.657v14.999h-23.657z" transform="matrix(.95 -.313 .313 .95 -22.989 89.151)"/><path d="m252.792 162.877-10.584-10.629-9.708 9.668-9.708-9.668-10.584 10.629 20.292 20.207z"/><path d="m275.137 75.382-42.637 14.153-42.637-14.153-4.726 14.236 47.363 15.722 47.363-15.722z"/></g></g></svg>