<svg id="Capa_1" enable-background="new 0 0 511.995 511.995" height="512" viewBox="0 0 511.995 511.995" width="512" xmlns="http://www.w3.org/2000/svg"><path d="m255.999 286.494c-51.761 0-88.37-33.364-91.916-81.508l-6.725-91.318c-4.222-57.332 41.154-106.173 98.641-106.173s102.863 48.841 98.641 106.172l-6.725 91.318c-3.546 48.145-40.154 81.509-91.916 81.509z" fill="#c8ea73"/><path d="m279.051 10.19c23.723 19.662 38.045 50.133 35.589 83.477l-6.725 91.318c-3.546 48.144-40.154 81.508-91.915 81.508-8.376 0-16.355-.874-23.861-2.542 16.051 14.262 38.076 22.542 63.861 22.542 51.761 0 88.37-33.364 91.915-81.508l6.725-91.318c3.638-49.404-29.554-92.503-75.589-103.477z" fill="#b7e445"/><path d="m354.64 113.668c.095-1.288.164-2.571.209-3.85l97.441-30.14-31.639 80.497c-8.941 22.748-30.893 37.706-55.335 37.706h-16.879z" fill="#c8ea73"/><path d="m124.833 214.7c-7.007 0-12.687-5.68-12.687-12.687v-20.3c0-7.007 5.68-12.687 12.687-12.687s12.687 5.68 12.687 12.687v20.3c0 7.007-5.68 12.687-12.687 12.687z" fill="#f9f48e"/><path d="m157.358 113.668c-.095-1.288-.164-2.571-.209-3.85l-97.441-30.14 31.639 80.497c4.306 10.957 11.632 20.106 20.8 26.647v-5.109c0-7.007 5.68-12.687 12.687-12.687s12.687 5.68 12.687 12.687v15.46c2.999.467 6.06.708 9.161.708h16.879z" fill="#c8ea73"/><path d="m388.791 454.495h71.388v50h-71.388z" fill="#fbf6ec"/><path d="m414.305 454.495c-5.495 10.844-14.496 19.609-25.513 24.804v25.196h71.388v-50z" fill="#f9efda"/><path d="m51.819 454.495h71.388v50h-71.388z" fill="#fbf6ec"/><path d="m447.563 407.942c8.115-8.861 12.616-20.441 12.616-32.457v-.541c0-28.739-21.913-52.737-50.533-55.342l-97.099-8.838c-3.499-.318-6.178-3.252-6.178-6.765v-30.292c-14.104 8.21-31.198 12.788-50.37 12.788-19.173 0-36.266-4.578-50.371-12.788v30.293c0 3.513-2.679 6.447-6.178 6.765l-97.099 8.838c-28.621 2.605-50.533 26.603-50.533 55.342 0 12.339 4.746 24.206 13.255 33.142l4.838 5.08-.28.185c-11.125 7.379-17.813 19.84-17.813 33.19v7.955h71.388v50h265.585v-50h71.388v-8.417c0-13.094-6.436-25.352-17.215-32.785l-.184-.127z" fill="#c8ea73"/><path d="m365.497 484.495h-242.29v20h265.585v-25.196c-7.068 3.333-14.964 5.196-23.295 5.196z" fill="#b7e445"/><path d="m460.18 375.485v-.541c0-28.739-21.913-52.737-50.534-55.342l-2.328-.212c8.053 9.67 12.862 22.092 12.862 35.554v.541c0 12.016-4.501 23.596-12.616 32.457l-.115.134c-2.358 2.743-2.072 6.808.534 9.317 7.728 7.442 12.198 17.772 12.198 28.684v3.736c0 8.881-2.117 17.268-5.875 24.683h45.875v-8.417c0-13.094-6.437-25.352-17.217-32.786l-.183-.126 4.784-5.224c8.113-8.863 12.615-20.442 12.615-32.458z" fill="#b7e445"/><path d="m184.952 110.13c-1.591 3.824.219 8.215 4.043 9.807l48.062 20c3.825 1.59 8.215-.219 9.806-4.043s-.219-8.215-4.043-9.807l-48.062-20c-3.824-1.59-8.215.22-9.806 4.043z"/><path d="m235.912 104.46c12.765 5.312 27.409 5.313 40.175 0l36.425-15.157c3.824-1.592 5.634-5.982 4.043-9.807-1.593-3.823-5.979-5.633-9.807-4.043l-36.425 15.157c-9.103 3.79-19.544 3.79-28.649 0l-36.424-15.157c-3.824-1.589-8.214.22-9.806 4.043-1.591 3.824.219 8.215 4.043 9.807z"/><path d="m327.047 110.13c-1.593-3.824-5.979-5.635-9.807-4.043l-41.996 17.477c-6.705 2.792-10.709 9.768-9.737 16.964l6.237 46.165c.058.426-.156.852-.532 1.059l-18.833 10.38c-3.628 1.999-4.948 6.561-2.948 10.188 1.997 3.624 6.56 4.949 10.188 2.948l18.834-10.38c5.759-3.176 9.036-9.688 8.156-16.203l-6.237-46.165c-.063-.47.198-.926.637-1.107l41.995-17.476c3.824-1.592 5.634-5.983 4.043-9.807z"/><path d="m292.699 250.399c4.105-.123 7.27-3.704 7.27-7.811v-12.904c.229-.12.453-.239.673-.358 4.381-2.367 5.31-8.245 1.851-11.828-2.317-2.4-5.94-2.995-8.887-1.43-1.321.701-2.967 1.483-4.988 2.298-17.011 6.859-45.608 7.93-66.283-.435-1.5-.641-2.788-1.272-3.877-1.857-2.956-1.589-6.603-1.009-8.934 1.406l-.019.019c-3.458 3.583-2.529 9.461 1.852 11.827.219.119.444.238.673.358v12.904c0 4.107 3.164 7.688 7.269 7.811 4.247.128 7.731-3.277 7.731-7.497v-7.525c17.44 4.622 40.477 4.629 57.939 0v7.524c0 4.221 3.482 7.625 7.73 7.498z"/><path d="m256.346 363.458c10.425 0 19.182-5.358 25.322-15.496 4.14-6.832 5.623-13.479 5.779-14.215.854-4.042-1.722-7.998-5.76-8.869-4.048-.873-8.023 1.702-8.91 5.736-.039.178-4.065 17.844-16.432 17.844s-16.394-17.666-16.427-17.816c-.857-4.052-4.837-6.639-8.89-5.785-4.053.857-6.643 4.838-5.785 8.891.155.735 1.64 7.383 5.778 14.215 6.143 10.137 14.899 15.495 25.325 15.495z"/><path d="m161.731 386.996c0 4.143 3.358 7.5 7.5 7.5h60.6c10.294 0 18.669 8.375 18.669 18.669v70.762c0 4.143 3.358 7.5 7.5 7.5 4.143 0 7.5-3.357 7.5-7.5v-70.762c0-10.294 8.375-18.669 18.669-18.669h60.6c4.143 0 7.5-3.357 7.5-7.5s-3.357-7.5-7.5-7.5h-60.6c-10.555 0-19.991 4.882-26.169 12.507-6.178-7.625-15.614-12.507-26.169-12.507h-60.6c-4.143 0-7.5 3.358-7.5 7.5z"/><path d="m467.68 374.944c0-32.587-24.842-59.852-57.354-62.811l-96.457-8.779v-25.435c23.68-15.37 39.166-40.471 41.536-72.537h9.912c27.716 0 52.176-16.668 62.315-42.463l31.639-80.497c2.295-5.838-3.196-11.764-9.196-9.908l-87.879 27.182c-.81-12.909-3.957-25.606-9.307-37.343-1.718-3.768-6.164-5.432-9.936-3.713-3.769 1.718-5.432 6.166-3.713 9.936 6.308 13.837 9.046 29.239 7.919 44.543-.448 6.079-5.607 76.13-6.726 91.317-3.284 44.597-37.216 74.56-84.436 74.56-47.219 0-81.151-29.963-84.436-74.56-8.423-114.372-6.445-87.149-6.927-95.07-.824-24.255 7.762-47.274 24.396-65.178 35.596-38.314 95.353-38.818 131.715-2.306 2.923 2.933 7.671 2.943 10.607.021 2.935-2.924 2.944-7.672.021-10.607-43.179-43.351-112.823-40.922-153.333 2.683-16.75 18.029-26.671 41.39-28.231 65.72l-87.885-27.186c-5.991-1.854-11.495 4.062-9.196 9.908l18.454 46.952c1.161 2.955 3.989 4.759 6.982 4.759 5.246 0 8.922-5.302 6.978-10.245l-12.748-32.435 77.575 23.995 5.518 74.934c-9.436 0-9.326.009-10.467-.027v-8.641c0-11.132-9.056-20.188-20.187-20.188-7.646 0-14.313 4.273-17.738 10.557-3.69-4.339-6.656-9.277-8.769-14.65-1.515-3.856-5.869-5.751-9.724-4.237-3.855 1.516-5.752 5.869-4.236 9.724 4.268 10.86 11.24 20.339 20.28 27.624v11.471c0 11.131 9.056 20.187 20.187 20.187 9.994 0 18.314-7.299 19.911-16.847 1.491.043 1.898.028 11.848.028 2.368 32.219 18.006 57.263 41.536 72.537v25.436l-35.248 3.208c-4.125.375-7.165 4.023-6.79 8.148.354 3.895 3.625 6.82 7.46 6.82.512 0-1.839.199 36.58-3.298 7.41-.674 12.998-6.794 12.998-14.234v-18.176c26.029 10.88 59.512 10.963 85.741 0v18.176c0 7.441 5.588 13.561 12.998 14.234l97.1 8.838c24.92 2.269 43.713 22.85 43.713 47.873 0 11.063-3.901 20.566-10.646 27.933l-4.784 5.223c-2.916 3.184-2.732 8.498 1.457 11.367 8.75 6.035 13.974 15.983 13.974 26.612v.917h-56.389v-35.334c0-4.143-3.357-7.5-7.5-7.5s-7.5 3.357-7.5 7.5v85.334h-250.585c0-10.367 0-74.909 0-85.334 0-4.143-3.358-7.5-7.5-7.5s-7.5 3.357-7.5 7.5v35.334h-56.388c0-11.881 5.666-21.564 14.738-27.58 3.883-2.574 4.505-8.041 1.287-11.422l-4.838-5.08c-24.552-25.782-6.627-72.279 32.526-75.843l26.238-2.388c4.125-.375 7.165-4.023 6.79-8.148-.376-4.125-4.033-7.182-8.149-6.789l-26.238 2.388c-15.71 1.43-30.22 8.633-40.857 20.282-20.17 22.09-23.031 56.939-1.962 79.994-9.216 8.838-14.533 21.095-14.533 34.131v57.955c0 4.143 3.358 7.5 7.5 7.5h408.361c4.143 0 7.5-3.357 7.5-7.5 0-15.012 0-43.424 0-58.417 0-12.757-5.141-24.845-14.056-33.657 8.808-9.898 14.054-22.709 14.054-37.478zm-54.008-217.512c-7.867 20.016-26.848 32.949-48.354 32.949h-8.808l5.519-74.934 77.576-23.995zm-288.839 49.767c-2.86 0-5.187-2.327-5.187-5.187 0-4.834 0 11.085 0-20.3 0-2.86 2.327-5.188 5.187-5.188s5.187 2.327 5.187 5.188v20.3c0 2.86-2.327 5.187-5.187 5.187zm327.847 264.796h-56.389v-10h56.389zm-336.973 0h-56.388v-10h56.388zm-56.388 15h56.388v10h-56.388zm336.972 10v-10h56.389v10z"/></svg>