<svg id="Capa_1" enable-background="new 0 0 512 512" height="512" viewBox="0 0 512 512" width="512" xmlns="http://www.w3.org/2000/svg"><g><g><path d="m210.055 273.667h91.89l51.055-123.976h-194z" fill="#ffe1bd"/></g><g><path d="m266.794 273.667-32.55-79.041c7.041 1.884 14.351 2.874 21.756 2.874 14.178 0 28.014-3.596 40.261-10.239 11.329 6.144 24.017 9.676 37.078 10.172l19.661-47.742h-194l51.055 123.976z" fill="#fdd3a6"/></g><g><path d="m414.027 85.947c0-15.742-10.03-29.137-24.046-34.157-4.746-25.212-26.868-44.29-53.459-44.29-15.956 0-30.308 6.868-40.261 17.809-9.953-10.941-24.305-17.809-40.261-17.809s-30.308 6.868-40.261 17.809c-9.953-10.941-24.305-17.809-40.261-17.809-26.591 0-48.713 19.078-53.459 44.29-14.016 5.02-24.046 18.415-24.046 34.157 0 15.549 9.786 28.808 23.533 33.968 3.362 26.826 26.235 47.584 53.973 47.584 15.956 0 30.308-6.868 40.261-17.809 9.952 10.942 24.304 17.81 40.26 17.81s30.308-6.868 40.261-17.809c9.953 10.941 24.305 17.809 40.261 17.809 27.737 0 50.61-20.759 53.973-47.584 13.746-5.16 23.532-18.419 23.532-33.969z" fill="#fff2cf"/></g><g><g><path d="m282.108 113.086c0-1.175.05-2.337.124-3.493-7.78 4.29-16.719 6.737-26.231 6.737-30.052 0-54.414-24.362-54.414-54.414 0-14.096 5.36-26.94 14.153-36.605-9.954-10.943-24.306-17.811-40.262-17.811-26.591 0-48.713 19.078-53.459 44.29-14.016 5.02-24.046 18.415-24.046 34.157 0 15.549 9.786 28.808 23.533 33.968 3.362 26.826 26.235 47.584 53.973 47.584 15.956 0 30.308-6.868 40.261-17.809 9.952 10.942 24.304 17.81 40.26 17.81s30.308-6.868 40.261-17.809c-8.793-9.666-14.153-22.509-14.153-36.605z" fill="#ffe1bd"/></g></g><g><path d="m499.297 432.419-77.278-157c-8.413-17.093-25.809-27.919-44.86-27.919l-80 23.649-80-23.649h-82.317c-19.051 0-36.447 10.826-44.86 27.919l-77.278 157c-16.354 33.226 7.827 72.081 44.86 72.081h128.16 268.713c37.032 0 61.214-38.855 44.86-72.081z" fill="#e7886e"/></g><g><path d="m77.143 432.419 77.278-157c8.413-17.093 25.809-27.919 44.86-27.919h-64.44c-19.051 0-36.447 10.826-44.86 27.919l-77.278 157c-16.354 33.226 7.827 72.081 44.86 72.081h64.44c-37.033 0-61.214-38.855-44.86-72.081z" fill="#dc6646"/></g><g><g><g><ellipse cx="176.443" cy="441.123" fill="#fff" rx="29.355" ry="23.377"/></g><g><ellipse cx="335.557" cy="441.123" fill="#fff" rx="29.355" ry="23.377"/></g></g><g><path d="m256 410.763c-8.478 0-16.54 3.672-22.118 10.074-2.722 3.123-2.396 7.86.728 10.582 3.121 2.72 7.86 2.396 10.581-.727 2.729-3.132 6.669-4.928 10.81-4.928s8.08 1.796 10.81 4.928c1.482 1.702 3.564 2.573 5.657 2.573 1.748 0 3.503-.607 4.924-1.846 3.123-2.721 3.449-7.458.728-10.582-5.58-6.402-13.642-10.074-22.12-10.074z"/><path d="m207.315 395.113-24.065-6.448c-4.003-1.069-8.114 1.302-9.186 5.304-1.072 4.001 1.302 8.113 5.303 9.186l7.079 1.897c-.252.75-.394 1.551-.394 2.386v10.366c0 4.142 3.357 7.5 7.5 7.5s7.5-3.358 7.5-7.5v-8.839l2.381.638c.65.174 1.304.257 1.946.257 3.312 0 6.342-2.21 7.239-5.561 1.072-4.002-1.302-8.114-5.303-9.186z"/><path d="m337.936 393.968c-1.072-4.001-5.185-6.373-9.186-5.304l-24.065 6.448c-4.001 1.072-6.375 5.185-5.303 9.186.897 3.351 3.928 5.561 7.239 5.561.643 0 1.296-.083 1.946-.257l2.381-.638v8.839c0 4.142 3.357 7.5 7.5 7.5s7.5-3.358 7.5-7.5v-10.366c0-.835-.142-1.636-.394-2.386l7.079-1.897c4.001-1.072 6.375-5.185 5.303-9.186z"/></g></g><g><path d="m217.158 247.5v46.095c0 11.046 8.954 20 20 20 11.046 0 20 8.954 20 20 0 11.046 8.954 20 20 20 11.046 0 20-8.954 20-20 0-11.046 8.954-20 20-20 11.046 0 20 8.954 20 20 0 11.046 8.954 20 20 20 11.046 0 20-8.954 20-20v-86.095z" fill="#ffbe6b"/></g><g><path d="m277.158 247.5h-60v46.535c0 11.025 9.015 19.538 20.04 19.56 11.057.022 20.007 9.015 19.96 20.088-.033 7.64 4.015 14.845 11 17.939 14.698 6.511 28.934-4.035 29-17.93.039-8.128 4.589-15.709 12.181-18.612 14.27-5.456 27.755 4.895 27.819 18.417.039 8.245 4.743 15.885 12.484 18.726 14.191 5.208 27.516-5.154 27.516-18.628v-40h-53.905c-25.457 0-46.095-20.637-46.095-46.095z" fill="#ffaa3e"/></g><path d="m506.026 429.107-77.278-157c-9.748-19.804-29.516-32.107-51.59-32.107h-53.238l27.521-66.828c5.127-1.27 10.084-3.186 14.721-5.72 3.635-1.986 4.971-6.543 2.984-10.178-1.986-3.634-6.542-4.972-10.178-2.984-6.836 3.736-14.598 5.71-22.446 5.71-13.184 0-25.836-5.597-34.714-15.356-1.421-1.563-3.436-2.453-5.548-2.453s-4.126.891-5.548 2.453c-8.877 9.759-21.529 15.356-34.712 15.356s-25.835-5.597-34.713-15.356c-1.422-1.563-3.436-2.453-5.548-2.453s-4.127.891-5.548 2.453c-8.878 9.759-21.53 15.356-34.714 15.356-23.596 0-43.6-17.634-46.531-41.017-.346-2.765-2.197-5.11-4.806-6.089-11.166-4.191-18.668-15.021-18.668-26.947 0-12.121 7.665-23.01 19.074-27.096 2.507-.898 4.35-3.057 4.842-5.673 4.166-22.122 23.549-38.178 46.09-38.178 13.184 0 25.836 5.597 34.714 15.356 1.421 1.563 3.436 2.453 5.548 2.453s4.126-.891 5.548-2.453c8.877-9.759 21.529-15.356 34.712-15.356s25.835 5.597 34.713 15.356c1.422 1.563 3.436 2.453 5.548 2.453s4.127-.891 5.548-2.453c8.878-9.759 21.53-15.356 34.713-15.356 22.541 0 41.924 16.056 46.089 38.178.492 2.616 2.335 4.775 4.842 5.673 11.409 4.086 19.074 14.975 19.074 27.096 0 11.926-7.502 22.755-18.668 26.947-2.608.979-4.459 3.324-4.806 6.088-.765 6.093-2.688 11.888-5.715 17.223-2.045 3.602-.782 8.18 2.82 10.225 3.601 2.043 8.18.782 10.225-2.821 3.284-5.786 5.584-11.98 6.862-18.465 14.688-7.331 24.281-22.562 24.281-39.196 0-17.004-9.92-32.415-25.076-39.584-6.997-27.1-31.569-46.364-59.928-46.364-14.809 0-29.109 5.351-40.262 14.883-11.152-9.532-25.452-14.883-40.26-14.883s-29.108 5.351-40.261 14.883c-11.152-9.532-25.453-14.883-40.261-14.883-28.358 0-52.931 19.264-59.929 46.363-15.156 7.169-25.076 22.581-25.076 39.584 0 16.635 9.595 31.866 24.282 39.197 4.687 23.747 22.862 42.305 45.799 48.016l27.526 66.84h-53.238c-22.074 0-41.842 12.303-51.59 32.107l-77.278 157c-8.832 17.944-7.796 38.795 2.771 55.775 10.568 16.98 28.818 27.118 48.818 27.118h120.777c4.143 0 7.5-3.358 7.5-7.5s-3.357-7.5-7.5-7.5h-120.777c-14.783 0-28.272-7.493-36.083-20.043-7.812-12.551-8.577-27.962-2.048-41.226l77.278-157c7.205-14.638 21.816-23.731 38.132-23.731h74.816v38.595c0 15.163 12.337 27.5 27.5 27.5 6.893 0 12.5 5.608 12.5 12.5 0 15.163 12.337 27.5 27.5 27.5s27.5-12.336 27.5-27.5c0-6.893 5.607-12.5 12.5-12.5s12.5 5.608 12.5 12.5c0 15.163 12.337 27.5 27.5 27.5s27.5-12.336 27.5-27.5v-77.917c13.197 2.326 24.553 10.704 30.631 23.052l77.278 157c6.529 13.263 5.764 28.675-2.048 41.226-7.811 12.55-21.3 20.043-36.083 20.043h-246.095c-4.143 0-7.5 3.358-7.5 7.5s3.357 7.5 7.5 7.5h246.096c20 0 38.25-10.138 48.818-27.118 10.567-16.979 11.603-37.83 2.771-55.774zm-328.512-254.153c14.078-.467 27.585-5.743 38.225-14.837 11.153 9.532 25.453 14.883 40.261 14.883s29.108-5.351 40.261-14.883c10.64 9.094 24.147 14.37 38.225 14.837l-26.788 65.046h-103.397zm179.644 171.141c-6.893 0-12.5-5.607-12.5-12.5 0-15.164-12.337-27.5-27.5-27.5s-27.5 12.337-27.5 27.5c0 6.892-5.607 12.5-12.5 12.5s-12.5-5.607-12.5-12.5c0-15.164-12.337-27.5-27.5-27.5-6.893 0-12.5-5.607-12.5-12.5v-38.595h145v78.595c0 6.892-5.607 12.5-12.5 12.5z"/></g></svg>