<?xml version="1.0" encoding="iso-8859-1"?>
<!-- Generator: Adobe Illustrator 19.0.0, SVG Export Plug-In . SVG Version: 6.00 Build 0)  -->
<svg version="1.1" id="Capa_1" xmlns="http://www.w3.org/2000/svg" xmlns:xlink="http://www.w3.org/1999/xlink" x="0px" y="0px"
	 viewBox="0 0 512 512" style="enable-background:new 0 0 512 512;" xml:space="preserve">
<path style="fill:#F6C053;" d="M493.142,312h-83.713c-2.34,0-4.563,1.025-6.083,2.804s-2.185,4.135-1.818,6.447
	c2.432,15.364,3.614,33.272,3.614,54.749c0,62.212-23.249,124.551-23.483,125.172c-0.929,2.458-0.592,5.215,0.902,7.376
	c1.493,2.162,3.953,3.452,6.581,3.452h104c4.418,0,8-3.582,8-8V320C501.142,315.582,497.56,312,493.142,312z"/>
<path style="fill:#F5B431;" d="M501.142,320c0-4.418-3.582-8-8-8h-83.503c-1.441,0-2.885,0.307-4.136,1.023
	c-3.001,1.717-4.484,5.015-3.975,8.228c2.432,15.364,3.614,33.272,3.614,54.749c0,62.212-23.249,124.551-23.483,125.172
	c-1.219,3.225-0.258,6.967,2.638,9.201c1.438,1.109,3.247,1.627,5.063,1.627h18.782c-2.628,0-5.088-1.29-6.581-3.452
	c-1.494-2.162-1.831-4.919-0.902-7.376c0.234-0.621,23.483-62.96,23.483-125.172c0-8.264-0.177-15.996-0.532-23.259
	c-0.224-4.574,3.408-8.408,7.988-8.408h69.544L501.142,320L501.142,320z"/>
<path style="fill:#F8CD76;" d="M496.72,24.845C494.691,23.83,446.191,0,373.142,0c-48.325,0-90.07,27.65-104.047,38.037
	c-9.2-5.48-30.222-14.037-71.78-14.037c-29.958,0-47.174,14.206-56.341,26.123c-9.144,11.887-14.852,27.604-15.58,42.629
	C115.48,103.734,77.315,150.773,77.315,224c0,25.427,4.748,44.358,9.339,62.666c7.066,28.177,13.169,52.512-0.928,94.805
	C73.163,419.157,49.127,440,37.315,440c-5.367,0-9.288,5.434-7.589,10.53l8,24c1.354,4.063,5.667,6.34,9.787,5.163
	c2.433-0.695,59.976-17.884,93.113-92.443c20.314-45.709,19.49-121.627,18.192-147.25h37.959c2.994,0.291,28.455,3.068,43.565,14.4
	c25.45,19.088,36.8,56.591,36.8,121.6c0,62.212-23.249,124.551-23.483,125.172c-1.219,3.225-0.258,6.967,2.638,9.201
	c1.438,1.109,3.247,1.627,5.063,1.627h103.782c4.418,0,8-3.582,8-8V336c0-4.418,3.582-8,8-8h120V32
	C501.142,28.97,499.43,26.2,496.72,24.845z"/>
<g>
	<path style="fill:#F6C053;" d="M33.787,462.716c17.213-7.564,60.957-47.304,72.271-81.246c14.098-42.292,7.995-66.627,0.928-94.805
		c-4.591-18.308-9.339-37.238-9.339-62.666c0-73.227,38.165-120.266,48.079-131.248c0.729-15.026,6.436-30.743,15.58-42.629
		c8.391-10.909,23.536-23.729,49.019-25.82C206.226,24.11,201.903,24,197.315,24c-29.958,0-47.174,14.206-56.341,26.123
		c-9.144,11.887-14.852,27.604-15.58,42.629C115.48,103.734,77.315,150.773,77.315,224c0,25.427,4.748,44.358,9.339,62.666
		c7.066,28.177,13.169,52.512-0.928,94.805C73.163,419.157,49.127,440,37.315,440c-5.367,0-9.288,5.435-7.589,10.53L33.787,462.716z
		"/>
	<path style="fill:#F6C053;" d="M273.992,501.172c0.234-0.621,23.483-62.96,23.483-125.172c0-65.009-11.35-102.512-36.8-121.6
		c-15.11-11.332-40.571-14.109-43.565-14.4h-20.333c2.994,0.291,28.455,3.068,43.565,14.4c25.45,19.088,36.8,56.591,36.8,121.6
		c0,62.212-23.249,124.551-23.483,125.172c-1.219,3.225-0.258,6.967,2.638,9.201c1.438,1.109,3.247,1.627,5.063,1.627h20.333
		c-1.816,0-3.625-0.518-5.063-1.627C273.734,508.139,272.773,504.397,273.992,501.172z"/>
</g>
<path style="fill:#F8F4F8;" d="M196.777,240h-38.529c-0.131,0.252-0.26,0.506-0.393,0.757
	c-12.577,23.788-30.789,40.794-51.087,47.358c-6.38,2.063-12.76,3.007-19.033,2.881c-9.563-0.193-18.879-2.896-27.561-8.105
	c-33.073-19.844-13.789-59.885-12.96-61.563c1.755-3.509,0.706-7.773-2.478-10.067c-3.184-2.295-7.561-1.941-10.334,0.833
	c-22.69,22.689-29.81,57.549-17.717,86.744c12.09,29.187,40.076,46.177,76.987,46.88c0.793,0.015,1.585,0.033,2.386,0.033
	c20.573,0,40.596-6.496,59.35-19.055c13.378-8.959,26.111-20.998,37.932-35.991c14.017-17.777,23.448-35.395,28.299-45.459
	C209.882,241.403,198.7,240.187,196.777,240z"/>
<path style="fill:#F0E8F1;" d="M205.913,241.325c-5.196,9.239-12.215,20.399-21.069,31.628
	c-11.822,14.993-24.555,27.032-37.932,35.991C128.157,321.504,108.134,328,87.561,328c-0.802,0-1.593-0.019-2.386-0.033
	c-31.401-0.597-56.334-12.989-70.525-34.642c0.605,1.856,1.282,3.696,2.035,5.513c12.09,29.187,40.076,46.177,76.987,46.88
	c0.793,0.015,1.585,0.033,2.386,0.033c20.573,0,40.596-6.496,59.35-19.055c13.378-8.959,26.111-20.998,37.932-35.991
	c14.017-17.777,23.448-35.395,28.299-45.459C215.926,243.378,210.358,242.135,205.913,241.325z"/>
<circle style="fill:#66507A;" cx="141.31" cy="152" r="7.5"/>
<path style="fill:#F08568;" d="M276.174,43.884C275.099,42.092,249.247,0,197.315,0c-24.621,0-47.882,11.88-62.226,31.78
	c-13.939,19.34-17.265,43.046-9.364,66.75c1.023,3.07,3.794,5.221,7.022,5.45c3.217,0.228,6.275-1.508,7.722-4.402
	c0.047-0.095,4.083-7.763,11.424-10.566c2.403,4.992,7.005,11.887,15.764,20.646c1.536,1.536,3.583,2.344,5.659,2.343
	c1.214,0,2.438-0.276,3.575-0.845c0.7-0.35,14.603-7.533,19.06-26.739c5.87,1.97,14.112,3.584,25.362,3.584
	c2.122,0,4.157-0.843,5.657-2.343c1.318-1.318,6.647-7.415,9.099-21.78c2.762,1.309,5.93,2.303,9.486,2.655
	c9.982,0.989,19.883-3.342,29.416-12.875C277.567,51.061,278.063,47.032,276.174,43.884z"/>
<path style="fill:#ED6D4A;" d="M155.422,31.78C167.875,14.504,187.05,3.277,208,0.616C204.568,0.22,201.01,0,197.315,0
	c-24.621,0-47.882,11.88-62.226,31.78c-13.939,19.34-17.265,43.046-9.364,66.75c1.023,3.07,3.794,5.221,7.022,5.45
	c3.217,0.228,6.275-1.508,7.722-4.402c0.028-0.057,1.486-2.808,4.207-5.614C138.63,71.799,142.378,49.878,155.422,31.78z"/>
<g>
	<path style="fill:#F08568;" d="M301.142,504v-8c0-13.234-10.767-24-24-24h-14.261c-0.031,0-0.061,0.007-0.093,0.008
		c-4.825,17.626-9.031,28.902-9.13,29.164c-0.929,2.458-0.592,5.215,0.902,7.376c1.493,2.162,3.953,3.452,6.581,3.452h32
		C297.56,512,301.142,508.418,301.142,504z"/>
	<path style="fill:#F08568;" d="M333.142,496v8c0,4.418,3.582,8,8,8h24c4.418,0,8-3.582,8-8v-32h-16
		C343.909,472,333.142,482.766,333.142,496z"/>
</g>
<g>
</g>
<g>
</g>
<g>
</g>
<g>
</g>
<g>
</g>
<g>
</g>
<g>
</g>
<g>
</g>
<g>
</g>
<g>
</g>
<g>
</g>
<g>
</g>
<g>
</g>
<g>
</g>
<g>
</g>
</svg>
