<svg height="511pt" viewBox="0 -38 511.99967 511" width="511pt" xmlns="http://www.w3.org/2000/svg"><g fill="#ff9838"><path d="m128.050781 329.925781c-3.570312 1.304688-6.78125 3.058594-9.414062 5.386719-18.285157 16.1875-60.816407 84.699219-36.363281 99.042969 22.226562 13.03125 33.6875-46.304688 60.171874-58.222657 8.636719-3.886718 18.871094-4.695312 28.898438-3.960937-17.539062-11.359375-32.226562-25.929687-43.292969-42.246094zm0 0"/><path d="m105.648438 271.054688c-13.566407-2.410157-29.488282-3.0625-39.425782 3.785156-20.105468 13.859375-70.601562 76.734375-48.054687 93.925781 20.488281 15.621094 39.03125-41.898437 66.761719-50.53125 11.378906-3.542969 24.6875-1.941406 36.710937 1.339844-8.621094-15.363281-14.140625-31.898438-15.992187-48.519531zm0 0"/><path d="m118.746094 207.402344c1.710937-2.894532 3.542968-5.652344 5.480468-8.289063 0 0-.003906 0-.003906-.003906 0 0-43.183594-20.25-64.300781-7.984375-21.117187 12.261719-76.328125 71.039062-55.179687 89.921875 19.21875 17.164063 42.15625-38.75 70.472656-45.210937 10.0625-2.296876 21.265625-.628907 31.707031 2.585937 2.128906-10.722656 6.007813-21.164063 11.824219-31.019531zm0 0"/><path d="m383.949219 329.925781c3.570312 1.304688 6.78125 3.058594 9.414062 5.386719 18.285157 16.1875 60.820313 84.699219 36.363281 99.042969-22.226562 13.03125-33.6875-46.304688-60.171874-58.222657-8.636719-3.886718-18.867188-4.695312-28.894532-3.960937 17.535156-11.359375 32.222656-25.929687 43.289063-42.246094zm0 0"/><path d="m406.351562 271.054688c13.566407-2.410157 29.488282-3.0625 39.425782 3.785156 20.105468 13.859375 70.601562 76.734375 48.054687 93.925781-20.488281 15.621094-39.03125-41.898437-66.761719-50.53125-11.378906-3.542969-24.6875-1.941406-36.710937 1.339844 8.621094-15.363281 14.136719-31.898438 15.992187-48.519531zm0 0"/><path d="m393.253906 207.402344c-1.710937-2.894532-3.546875-5.652344-5.480468-8.289063 0 0 .003906 0 .003906-.003906 0 0 43.183594-20.25 64.300781-7.984375 21.117187 12.261719 76.328125 71.039062 55.179687 89.921875-19.21875 17.164063-42.15625-38.75-70.472656-45.210937-10.0625-2.296876-21.265625-.628907-31.707031 2.585937-2.128906-10.722656-6.007813-21.164063-11.824219-31.019531zm0 0"/><path d="m134.160156 126.519531c-2.6875 2.4375-5.511718 4.519531-8.335937 6.285157-6.625 4.144531-13.988281 7.042968-21.707031 8.261718-1.652344.257813-3.34375.453125-5.078126.566406l25.183594 57.480469h.003906c8.351563-11.359375 18.6875-20.363281 29.875-27.5zm0 0"/><path d="m377.84375 126.519531c2.691406 2.4375 5.511719 4.519531 8.339844 6.285157 6.625 4.144531 13.988281 7.042968 21.707031 8.261718 1.648437.257813 3.34375.453125 5.074219.566406l-25.179688 57.480469c-.003906 0-.003906 0-.007812 0-8.351563-11.359375-18.6875-20.363281-29.871094-27.5zm0 0"/></g><path d="m104.117188 141.066406c7.71875-1.21875 15.082031-4.117187 21.707031-8.261718 10.84375-6.78125 21.675781-18.003907 24.785156-37.363282 6.601563-41.089844-29.65625-100.691406-47.707031-94.496094-13.289063 4.566407-4.464844 26.339844-7.902344 41.894532-2.597656 11.75-16.585938 16.933594-26.214844 9.71875-12.75-9.550782-20.253906-31.8125-33.304687-26.609375-17.730469 7.070312-6.355469 75.902343 25.441406 102.753906 14.71875 12.425781 30.308594 14.390625 43.195313 12.363281zm0 0" fill="#ffaa5c"/><path d="m125.824219 104.972656c-6.625 4.144532-13.988281 7.042969-21.707031 8.261719-12.886719 2.03125-28.476563.0625-43.195313-12.363281-17.433594-14.722656-28.726563-42.058594-32.449219-64.921875-5.664062 21.699219 6.6875 71 32.449219 92.753906 14.71875 12.425781 30.308594 14.390625 43.195313 12.359375 7.71875-1.214844 15.082031-4.113281 21.707031-8.257812 10.84375-6.78125 21.675781-18.003907 24.785156-37.363282 1.265625-7.894531.949219-16.472656-.511719-25.136718-3.648437 17.707031-13.949218 28.210937-24.273437 34.667968zm0 0" fill="#ff9838"/><path d="m407.890625 141.066406c-7.71875-1.21875-15.082031-4.117187-21.707031-8.261718-10.84375-6.78125-21.675782-18.003907-24.785156-37.363282-6.605469-41.089844 29.652343-100.691406 47.707031-94.496094 13.289062 4.566407 4.460937 26.339844 7.898437 41.894532 2.601563 11.75 16.585938 16.933594 26.21875 9.71875 12.746094-9.550782 20.25-31.8125 33.304688-26.609375 17.726562 7.074219 6.351562 75.902343-25.445313 102.753906-14.714843 12.425781-30.304687 14.390625-43.191406 12.363281zm0 0" fill="#ffaa5c"/><path d="m451.082031 100.871094c-14.714843 12.425781-30.304687 14.394531-43.191406 12.363281-7.71875-1.21875-15.082031-4.117187-21.707031-8.261719-10.328125-6.457031-20.628906-16.960937-24.273438-34.664062-1.464844 8.660156-1.78125 17.238281-.511718 25.132812 3.109374 19.359375 13.941406 30.582032 24.785156 37.363282 6.625 4.144531 13.988281 7.042968 21.707031 8.261718 12.886719 2.03125 28.476563.0625 43.191406-12.363281 25.761719-21.753906 38.113281-71.054687 32.453125-92.75-3.726562 22.859375-15.019531 50.195313-32.453125 64.917969zm0 0" fill="#ff9838"/><path d="m256 396.992188c110.882812 0 182.617188-112.738282 137.257812-189.589844-38.269531-64.832032-137.261718-62.960938-137.261718-62.960938s-98.984375-1.871094-137.253906 62.960938c-45.359376 76.851562 26.375 189.589844 137.257812 189.589844zm0 0" fill="#ffaa5c"/><path d="m403.203125 346.128906c-3.632813-4.585937-7.023437-8.324218-9.839844-10.816406-2.632812-2.328125-5.84375-4.085938-9.414062-5.390625-11.066407 16.320313-25.753907 30.886719-43.292969 42.25 10.027344-.738281 20.261719.070313 28.894531 3.957031 1.183594.53125 2.332031 1.160156 3.457031 1.871094 11.507813-9.515625 21.648438-20.265625 30.195313-31.871094zm0 0" fill="#ff8709"/><path d="m406.351562 271.054688c-1.855468 16.621093-7.371093 33.15625-15.996093 48.519531 9.800781-2.675781 20.453125-4.230469 30.21875-2.800781 6.933593-15.023438 11.402343-30.773438 13.054687-46.574219-8.546875-1.527344-18.410156-.722657-27.277344.855469zm0 0" fill="#ff8709"/><path d="m418.058594 195.960938c-1.214844-2.0625-2.496094-4.058594-3.8125-6.007813-14.453125 3.527344-26.46875 9.15625-26.46875 9.15625 0 .003906-.003906.003906-.003906.003906 1.933593 2.636719 3.769531 5.394531 5.480468 8.289063 5.816406 9.855468 9.691406 20.296875 11.824219 31.019531 8.980469-2.765625 18.519531-4.378906 27.414063-3.320313-2.390626-13.539062-7.109376-26.734374-14.433594-39.140624zm0 0" fill="#ff8709"/><path d="m387.785156 199.109375 11.777344-26.886719c-9.503906-9.484375-20.277344-17.195312-31.554688-23.460937l-10.105468 22.851562c11.1875 7.132813 21.523437 16.136719 29.875 27.5.003906 0 .003906 0 .007812-.003906zm0 0" fill="#ff8709"/><path d="m108.796875 346.128906c3.632813-4.585937 7.023437-8.324218 9.839844-10.816406 2.632812-2.328125 5.84375-4.085938 9.414062-5.390625 11.066407 16.320313 25.753907 30.886719 43.292969 42.25-10.027344-.738281-20.261719.070313-28.898438 3.957031-1.179687.53125-2.328124 1.160156-3.453124 1.871094-11.507813-9.515625-21.648438-20.265625-30.195313-31.871094zm0 0" fill="#ff8709"/><path d="m105.648438 271.054688c1.851562 16.621093 7.371093 33.15625 15.996093 48.519531-9.800781-2.675781-20.453125-4.230469-30.21875-2.800781-6.933593-15.023438-11.402343-30.773438-13.058593-46.574219 8.550781-1.527344 18.414062-.722657 27.28125.855469zm0 0" fill="#ff8709"/><path d="m93.941406 195.960938c1.214844-2.0625 2.496094-4.058594 3.8125-6.007813 14.453125 3.527344 26.46875 9.15625 26.46875 9.15625 0 .003906.003906.003906.003906.003906-1.9375 2.636719-3.769531 5.394531-5.480468 8.289063-5.816406 9.855468-9.691406 20.296875-11.824219 31.019531-8.980469-2.765625-18.519531-4.378906-27.414063-3.320313 2.390626-13.539062 7.109376-26.734374 14.433594-39.140624zm0 0" fill="#ff8709"/><path d="m124.214844 199.109375-11.777344-26.886719c9.503906-9.484375 20.277344-17.195312 31.554688-23.460937l10.105468 22.851562c-11.1875 7.132813-21.523437 16.136719-29.875 27.5-.003906 0-.003906 0-.007812-.003906zm0 0" fill="#ff8709"/><path d="m256 369.160156c-81.730469 0-142.179688-61.25-150.160156-124.230468-9.421875 71.382812 56.355468 152.0625 150.160156 152.0625s159.578125-80.679688 150.160156-152.0625c-7.980468 62.980468-68.429687 124.230468-150.160156 124.230468zm0 0" fill="#ff9838"/><path d="m198.6875 152.304688c-2.53125-13.058594-12.515625-21.730469-22.734375-19.753907-10.214844 1.980469-16.234375 13.765625-13.703125 26.824219 1.105469 5.695312 3.734375 10.847656 7.398438 14.5 3.609374 3.597656 8.023437 5.535156 12.457031 5.535156.964843 0 1.925781-.09375 2.882812-.277344 5.359375-1.039062 9.828125-4.90625 12.261719-10.613281 2.035156-4.757812 2.542969-10.519531 1.4375-16.214843zm0 0" fill="#433f43"/><path d="m336.054688 132.550781c-10.222657-1.984375-20.203126 6.695313-22.738282 19.753907-2.535156 13.0625 3.484375 24.84375 13.699219 26.828124.976563.1875 1.953125.28125 2.917969.28125 9.140625 0 17.527344-8.230468 19.820312-20.039062 2.535156-13.058594-3.484375-24.84375-13.699218-26.824219zm0 0" fill="#433f43"/><path d="m291.457031 186.308594c-4.21875.65625-7.105469 4.605468-6.453125 8.824218.011719.0625.800782 6.679688-3.726562 11.960938-4.488282 5.242188-13.230469 8.011719-25.277344 8.011719-11.933594 0-20.628906-2.722657-25.152344-7.867188-4.671875-5.320312-3.875-11.917969-3.851562-12.105469.65625-4.21875-2.234375-8.171874-6.453125-8.828124-4.222657-.652344-8.167969 2.234374-8.824219 6.453124-.214844 1.378907-1.832031 13.777344 7.261719 24.394532 7.625 8.902344 20.078125 13.414062 37.019531 13.414062s29.394531-4.515625 37.019531-13.414062c9.09375-10.617188 7.476563-23.015625 7.265625-24.394532-.65625-4.214843-4.609375-7.109374-8.828125-6.449218zm0 0" fill="#f66700"/></svg>