<?xml version="1.0" encoding="iso-8859-1"?>
<!-- Generator: Adobe Illustrator 19.0.0, SVG Export Plug-In . SVG Version: 6.00 Build 0)  -->
<svg version="1.1" id="Capa_1" xmlns="http://www.w3.org/2000/svg" xmlns:xlink="http://www.w3.org/1999/xlink" x="0px" y="0px"
	 viewBox="0 0 512 512" style="enable-background:new 0 0 512 512;" xml:space="preserve">
<rect x="198.26" y="113.339" style="fill:#E27D23;" width="115.47" height="178.39"/>
<rect x="198.26" y="113.339" style="fill:#D16B18;" width="34.686" height="178.39"/>
<path style="fill:#F9963D;" d="M380.683,306.57L380.683,306.57c-4.015-12.399-12.135-22.674-21.694-28.741l-47.314-6.55
	c-14.94,11.45-34.388,18.39-55.674,18.39s-40.734-6.94-55.674-18.39l-47.314,6.823v-0.273c-8.116,5.138-15.814,13.943-20.23,24.732
	c-0.002,0.005-0.005,0.011-0.007,0.016v0.001c-0.001,0.001-0.001,0.002-0.001,0.003c-0.503,1.233-1.026,2.662-1.457,3.99l0,0
	l-35.419,98.023c13.676,0,312.303,0,320.204,0L380.683,306.57z"/>
<path style="fill:#F2902F;" d="M226.575,319.361c0-11.431,1.512-22.508,4.332-33.05c-11.393-3.118-21.774-8.283-30.581-15.032
	l-47.314,6.823v-0.273c-8.157,5.167-15.827,13.975-20.23,24.732c-0.002,0.005-0.005,0.011-0.007,0.016v0.001
	c-0.001,0.001-0.001,0.002-0.001,0.003c-0.502,1.232-1.025,2.658-1.457,3.99l0,0l-35.419,98.023c25.318,0,140.072,0,163.328,0
	C238.929,381.999,226.575,352.124,226.575,319.361z"/>
<path style="fill:#E27D23;" d="M285.425,403.563v-26.156c0-8.631-7.062-15.693-15.693-15.693h-27.464
	c-8.632,0-15.694,7.062-15.694,15.693v26.156H285.425z"/>
<path style="fill:#D16B18;" d="M270.399,361.747c-1.385-0.059-12.916-0.021-28.13-0.034c-8.632,0-15.694,7.062-15.694,15.693v26.156
	h28.796v-26.156C255.371,369,262.075,362.102,270.399,361.747z"/>
<path style="fill:#FCC163;" d="M388.177,176.445l-1.044-2.621l0,0c-2.533-6.361-46.702-117.276-47.066-118.189
	c-4.827-12.122-16.373-15.333-21.483-16.173c-61.476-7.182-44.021-5.143-48.577-5.675h-28.013
	c-4.337,0.507-41.071,4.798-48.576,5.675c-5.11,0.839-16.656,4.051-21.483,16.173c-0.399,0.999-46.565,116.931-47.066,118.189
	c-3.791,7.112-3.275,18.796,4.964,29.187c9.492,11.97,16.413,20.698,23.18,29.232v81.083v0.091
	c0.003,1.533,0.315,23.571,15.31,29.374c1.179,0.456,2.259,0.874,3.266,1.263l1.647,0.637c2.639,1.021,4.624,1.79,6.114,2.366
	l1.822,0.705c0.225,0.087,0.43,0.167,0.619,0.24l0.283,0.109c0.138,0.054,0.267,0.103,0.384,0.149l0.191,0.074
	c0.489,0.189,0.783,0.303,0.957,0.37l0.017,0.007c0.077,0.03,0.128,0.05,0.163,0.063l0.04,0.015c0.012,0.005,0.02,0.008,0.025,0.01
	l0.01,0.004l0,0l0,0l0.244,0.094c2.014,0.747,16.22,5.216,16.22-17.263V192.748v-0.393v-61.257c0-8.631,7.062-15.693,15.694-15.693
	c9.137,0,15.239,0,25.974,0c20.3,0,35.396,0,43.432,0h10.555c8.632,0,15.694,7.062,15.694,15.693v61.257v0.393v138.887
	c0,12.491,4.671,20.973,16.465,17.169l0,0c0.057-0.022,14.12-5.464,15.539-6.013c10.927-4.229,15.158-17.966,15.311-29.465v-81.083
	c0.382-0.482,22.088-27.855,22.41-28.261C381.511,203.67,392.971,191.556,388.177,176.445z"/>
<g>
	<path style="fill:#F6B138;" d="M171.289,57.253c-16.585,41.648-28.991,72.799-46.421,116.57c-3.79,7.11-3.276,18.795,4.964,29.187
		c0.105,0.132,22.634,28.544,23.18,29.232v81.083v0.091c0.003,1.533,0.315,23.571,15.31,29.374c1.179,0.456,2.259,0.874,3.266,1.263
		l1.647,0.637c2.639,1.021,4.624,1.79,6.114,2.366l1.822,0.705c0.225,0.087,0.43,0.167,0.619,0.239l0.283,0.109
		c0.138,0.054,0.267,0.103,0.384,0.149l0.191,0.074c0.489,0.189,0.783,0.303,0.957,0.37l0.017,0.007
		c0.077,0.03,0.128,0.05,0.163,0.063l0.04,0.015c0.012,0.005,0.02,0.008,0.025,0.01l0.01,0.004l0,0l0,0l0.244,0.094
		c0.378,0.14,1.187,0.412,2.251,0.611c-4.044-6.035-5.887-14.657-5.98-21.761v-91.187c0-9.589-7.216-16.553-22.41-35.671
		c-0.113-0.312-11.573-12.426-6.779-27.537l1.044-2.621l0,0c0.042-0.106,0.764-1.918,0.719-1.806
		C200.437,49.662,197.003,45.648,207.37,37.832C196.909,39.773,179.325,37.062,171.289,57.253z"/>
	<path style="fill:#F6B138;" d="M420.782,403.563c-20.213,0-312.837,0-329.564,0c-8.632,0-15.693,7.062-15.693,15.693
		c0,14.428,0,28.818,0,43.157c228.83,0,120.933,0,360.95,0c0-14.351,0-28.743,0-43.157
		C436.475,410.625,429.413,403.563,420.782,403.563z"/>
</g>
<path style="fill:#EDA024;" d="M420.782,432.487c-235.727,0-122.853,0-329.564,0c-8.632,0-15.693,7.062-15.693,15.693
	c0,6.519,0,9.843,0,14.233c228.828,0,120.934,0,360.95,0c0-4.337,0-7.649,0-14.233C436.475,439.549,429.413,432.487,420.782,432.487
	z"/>
<g>
	<path style="fill:#FCC163;" d="M496.307,441.489H374.682c-8.632,0-15.693,7.062-15.693,15.694v30.794
		c0,6.8,5.563,12.363,12.363,12.363h128.285c6.8,0,12.363-5.563,12.363-12.363v-30.794C512,448.551,504.938,441.489,496.307,441.489
		z"/>
	<path style="fill:#FCC163;" d="M137.318,441.489H15.694C7.062,441.489,0,448.551,0,457.182v30.794
		c0,6.8,5.563,12.363,12.363,12.363h128.286c6.8,0,12.363-5.563,12.363-12.363v-30.794
		C153.012,448.551,145.95,441.489,137.318,441.489z"/>
</g>
<g>
	<path style="fill:#F6B138;" d="M385.323,487.976v-30.794c0-8.631,7.062-15.694,15.693-15.694h-26.335
		c-8.632,0-15.693,7.062-15.693,15.694v30.794c0,6.8,5.563,12.363,12.363,12.363h26.335
		C390.887,500.339,385.323,494.776,385.323,487.976z"/>
	<path style="fill:#F6B138;" d="M26.335,487.976v-30.794c0-8.631,7.062-15.694,15.694-15.694H15.694
		C7.062,441.489,0,448.551,0,457.182v30.794c0,6.8,5.563,12.363,12.363,12.363h26.335C31.898,500.339,26.335,494.776,26.335,487.976
		z"/>
</g>
<g>
	<path style="fill:#F2902F;" d="M200.326,147.538c-15.585-6.938-33.218,4.484-33.218,21.581c0,13.049,10.578,23.628,23.628,23.628
		c3.418,0,6.658-0.741,9.591-2.046v-43.163H200.326z"/>
	<path style="fill:#F2902F;" d="M311.674,147.538c2.933-1.306,6.172-2.046,9.591-2.046c13.049,0,23.628,10.579,23.628,23.628
		c0,13.049-10.578,23.628-23.628,23.628c-3.418,0-6.658-0.741-9.591-2.046V147.538z"/>
</g>
<g>
	<path style="fill:#E57B1C;" d="M168.983,159.882c-8.34,19.612,11.758,39.537,31.343,30.82v-18.477
		c-2.933,1.305-6.172,2.046-9.591,2.046C180.964,174.271,172.58,168.34,168.983,159.882z"/>
	<path style="fill:#E57B1C;" d="M321.265,174.271c-3.418,0-6.658-0.741-9.591-2.046v18.477c2.933,1.305,6.172,2.046,9.591,2.046
		c16.99,0,28.332-17.394,21.752-32.866C339.421,168.34,331.036,174.271,321.265,174.271z"/>
</g>
<path style="fill:#FCA054;" d="M295.981,115.404h-79.962c-8.632,0-15.694,7.062-15.694,15.694v61.65
	c0,21.722,17.773,39.494,39.494,39.494h32.36c21.722,0,39.494-17.772,39.494-39.494v-61.65
	C311.674,122.467,304.613,115.404,295.981,115.404z"/>
<path style="fill:#F9963D;" d="M226.082,192.748v-61.65c0-8.631,7.062-15.693,15.694-15.693H216.02
	c-8.632,0-15.694,7.062-15.694,15.693v61.65c0,21.722,17.773,39.495,39.494,39.495h25.756
	C243.855,232.242,226.082,214.47,226.082,192.748z"/>
<g>
	<path style="fill:#E27D23;" d="M311.675,150.407h-32.027c-4.267,0-7.727,3.459-7.727,7.727s3.459,7.727,7.727,7.727h32.027V150.407
		z"/>
	<path style="fill:#E27D23;" d="M232.353,150.407h-32.027v15.454h32.027c4.267,0,7.727-3.459,7.727-7.727
		C240.079,153.866,236.62,150.407,232.353,150.407z"/>
</g>
<path style="fill:#F2902F;" d="M256,11.662c-7.736,0-14.007,6.271-14.007,14.007v89.736h28.013V25.668
	C270.007,17.932,263.736,11.662,256,11.662z"/>
<path style="fill:#E27D23;" d="M263.003,13.551c-9.242-5.353-21.01,1.272-21.01,12.118v89.736H256V25.668
	C256,20.487,258.821,15.973,263.003,13.551z"/>
<g>
</g>
<g>
</g>
<g>
</g>
<g>
</g>
<g>
</g>
<g>
</g>
<g>
</g>
<g>
</g>
<g>
</g>
<g>
</g>
<g>
</g>
<g>
</g>
<g>
</g>
<g>
</g>
<g>
</g>
</svg>
