<svg id="Capa_1" enable-background="new 0 0 512 512" height="512" viewBox="0 0 512 512" width="512" xmlns="http://www.w3.org/2000/svg"><path d="m466.273 406.081c.371-.32.739-.642 1.102-.969-.363.326-.731.649-1.102.969h-67.765l-19.484-83.773c-4.058-17.447 1.175-35.753 13.842-48.419l1.508-1.507-13.363-14.435c-9.568-10.335-20.272-19.531-31.897-27.421-3.789 15.394-10.103 27.356-19.268 36.763-15.873 16.291-40.028 24.211-73.847 24.211s-57.974-7.92-73.847-24.211c-9.165-9.406-15.478-21.369-19.268-36.763-11.625 7.889-22.329 17.086-31.897 27.421l-13.362 14.435 1.508 1.507c12.666 12.666 17.899 30.972 13.841 48.419l-19.484 83.773h-67.763c-15.55 10.035-24.944 27.277-24.944 45.784v52.635h470.434v-52.635c0-18.507-9.394-35.749-24.944-45.784z" fill="#e2bcaf"/><path d="m352.925 250.816c.809.874.782 2.23-.059 3.072-12.667 12.665-17.9 30.97-13.842 48.417l19.485 83.776h35.348l-14.832-63.773c-4.058-17.447 1.175-35.753 13.842-48.419l1.508-1.507-13.363-14.435c-9.568-10.335-20.272-19.531-31.896-27.421-1.057 4.295-2.311 8.323-3.769 12.103z" fill="#d8a595"/><path d="m466.273 406.081c.371-.32.739-.642 1.102-.969-.364.326-.731.649-1.102.969h-21.543c4.194 7.809 6.487 16.642 6.487 25.784v20.812c0 17.576-14.248 31.823-31.823 31.823h-398.611v20h470.434v-52.635c0-18.507-9.394-35.749-24.944-45.784z" fill="#d8a595"/><g fill="#d09080"><path d="m256 504.5v-98.42l-19.727-22.303c-7.928-8.963-19.319-14.095-31.285-14.095h-83.03l-8.465 36.397v98.42h142.507z"/><path d="m309.464 227.384h-106.928l-10.641-53.286h-31.134c-2.141 0-3.831 1.819-3.674 3.955l2.011 27.305c2.08 28.242 9.406 47.921 23.055 61.931 15.873 16.291 40.028 24.211 73.847 24.211s57.974-7.92 73.847-24.211c13.649-14.01 20.975-33.688 23.055-61.931l2.011-27.305c.157-2.135-1.533-3.955-3.674-3.955h-31.134z"/><path d="m357.701 84.726c-.413-1.962-2.137-3.373-4.142-3.373h-195.119c-2.005 0-3.729 1.411-4.142 3.373-1.996 9.48-2.662 19.321-1.926 29.314l.563 7.641c.162 2.204 1.998 3.91 4.209 3.91h78.839v58.022h40.033v-58.022h78.839c2.21 0 4.046-1.706 4.209-3.91l.563-7.641c.736-9.994.07-19.834-1.926-29.314z"/></g><path d="m351.239 174.098h-17.508l-.829 11.26c-2.08 28.242-9.406 47.921-23.055 61.931-15.873 16.291-40.028 24.211-73.847 24.211-26.407 0-46.922-4.829-62.202-14.701 2.466 3.813 5.246 7.299 8.356 10.49 15.873 16.291 40.028 24.211 73.847 24.211s57.974-7.92 73.847-24.211c13.649-14.01 20.975-33.688 23.055-61.931l2.011-27.305c.156-2.136-1.534-3.955-3.675-3.955z" fill="#c67d66"/><path d="m357.701 84.725c-.413-1.962-2.137-3.373-4.142-3.373h-13.751c.191 4.191.133 8.425-.181 12.688-.48 6.513-5.903 11.552-12.434 11.552h-62.93c-4.555 0-8.247 3.692-8.247 8.247v41.528c0 4.555-3.692 8.247-8.247 8.247h-11.786v20h40.033v-58.022h78.839c2.21 0 4.046-1.706 4.209-3.91l.563-7.641c.736-9.995.07-19.835-1.926-29.316z" fill="#c67d66"/><path d="m276.016 125.592h77.747l-3.572 48.506h-30.086l-10.641 53.286h-106.928l-10.641-53.286h-30.086l-3.572-48.506h77.747v58.022h40.033v-58.022zm-20.016-118.092c-46.259 0-84.676 31.626-95.718 73.852h191.436c-11.042-42.226-49.459-73.852-95.718-73.852z" fill="#e2bcaf"/><path d="m316.603 46.666c3.044 6.921-2.1 14.687-9.661 14.687h-139.016c-3.239 6.313-5.816 13.011-7.644 20h191.436c-7.739-29.597-28.928-53.986-56.839-65.927 9.131 8.866 16.546 19.466 21.724 31.24z" fill="#d8a595"/><path d="m322.29 125.592-1.123 15.249c-.55 7.474-6.775 13.258-14.27 13.258h-5.059c-6.822 0-12.696 4.816-14.031 11.507l-6.045 30.273c-1.336 6.69-7.209 11.507-14.031 11.507h-69.187l3.994 20h106.927l10.641-53.286h30.086l3.572-48.506h-31.474z" fill="#d8a595"/><path d="m119.134 273.888-1.507-1.507c-13.632 3.323-25.71 6.268-42.711 10.412-31.771 7.746-54.133 36.21-54.133 68.912 0 20.891 9.108 40.749 24.944 54.375h67.765l19.484-83.773c4.057-17.447-1.176-35.753-13.842-48.419z" fill="#d09080"/><path d="m256 504.5v-98.42l19.727-22.303c7.928-8.963 19.319-14.095 31.285-14.095h83.03l8.465 36.397v98.42h-142.507z" fill="#d09080"/><path d="m236.273 383.778c-7.928-8.963-19.319-14.095-31.285-14.095h-3.491l8.208 9.28c4.057 4.586 6.296 10.498 6.296 16.621v63.831c0 13.855-11.231 25.086-25.086 25.086h-77.422v20h142.507v-98.42z" fill="#c67d66"/><path d="m390.043 369.683h-35.348l3.162 13.593c.433 1.863.652 3.77.652 5.683v70.455c0 13.855-11.231 25.086-25.086 25.086h-77.423v20h142.508v-98.42z" fill="#c67d66"/><path d="m392.866 273.888 1.507-1.507c13.632 3.323 25.71 6.268 42.711 10.412 31.771 7.746 54.133 36.21 54.133 68.912 0 20.891-9.108 40.749-24.944 54.375h-67.765l-19.484-83.773c-4.057-17.447 1.176-35.753 13.842-48.419z" fill="#d09080"/><path d="m119.133 273.887-1.506-1.506c-8.336 2.032-16.091 3.922-24.746 6.032 1.862 7.728 1.953 15.901.094 23.894l-13.288 57.133c-3.628 15.6-17.531 26.64-33.547 26.64h-16.585c4.096 7.503 9.545 14.297 16.173 20h67.765l19.484-83.773c4.057-17.448-1.177-35.754-13.844-48.42z" fill="#c67d66"/><path d="m437.083 282.793c-2.48-.605-4.855-1.184-7.146-1.742 13.259 13.005 21.28 31.07 21.28 50.655 0 13.759-3.951 27.072-11.172 38.448-6.306 9.935-17.285 15.927-29.052 15.927h-17.136l4.652 20h67.765c15.836-13.626 24.944-33.479 24.944-54.371-.001-32.703-22.362-61.172-54.135-68.917z" fill="#c67d66"/><path d="m291.479 313.813c-4-1.066-8.115 1.301-9.188 5.301-.055.205-5.734 20.503-25.809 20.503-19.795 0-25.559-19.616-25.818-20.536-1.087-3.98-5.191-6.33-9.179-5.268-4 1.074-6.374 5.188-5.3 9.188 2.934 10.936 15.132 31.616 40.296 31.616s37.362-20.681 40.296-31.616c1.075-4-1.298-8.113-5.298-9.188z"/><path d="m477.763 405.389c13.41-14.548 20.953-33.66 20.953-53.684 0-36.272-24.614-67.606-59.856-76.198l-40.516-9.877c-13.727-14.829-22.688-25.352-40.809-38.37 2.481-12.183 2.703-19.414 4.857-48.657.266-3.605-1.249-7.297-4.302-9.658l2.763-37.519c3.176-1.907 5.402-5.277 5.69-9.193.802-10.88 1.977-22.518-1.503-39.052-.849-4.035-3.756-7.244-7.468-8.611-13.819-44.156-54.879-74.57-101.572-74.57s-87.753 30.414-101.572 74.569c-3.713 1.368-6.619 4.576-7.469 8.611-2.153 10.229-2.848 20.797-2.066 31.41l.563 7.643c.289 3.915 2.515 7.284 5.69 9.191l2.764 37.52c-3.053 2.362-4.567 6.054-4.302 9.658 2.014 27.339 2.346 36.327 4.857 48.658-18.222 13.091-27.678 24.185-40.808 38.368l-27.922 6.808c-4.024.98-6.491 5.039-5.51 9.063.982 4.024 5.038 6.496 9.063 5.51l25.964-6.329c9.866 10.802 13.757 25.573 10.418 39.929-1.652 7.103-14.064 60.468-18.135 77.972h-58.938c-30.265-28.344-26.411-78.291 9.573-100.717 3.516-2.191 4.589-6.816 2.398-10.332s-6.817-4.588-10.332-2.398c-42.608 26.556-48.95 84.511-16 120.256-13.259 11.67-20.954 28.465-20.954 46.476v52.634c0 4.143 3.358 7.5 7.5 7.5h470.435c4.142 0 7.5-3.357 7.5-7.5v-52.635c0-18.011-7.694-34.806-20.954-46.476zm5.954-53.679c0 17.818-7.37 34.748-20.314 46.87h-58.938c-23.245-99.945-14.412-61.967-18.135-77.972-3.339-14.354.552-29.127 10.418-39.929l38.56 9.399c28.502 6.95 48.409 32.292 48.409 61.632zm-247.734-160.597h40.033c4.142 0 7.5-3.357 7.5-7.5v-50.521h62.174l-2.468 33.506h-23.118c-3.576 0-6.654 2.524-7.355 6.031l-9.437 47.255h-94.626l-9.437-47.255c-.701-3.507-3.779-6.031-7.355-6.031h-23.118l-2.468-33.506h62.174v50.521c.001 4.143 3.359 7.5 7.501 7.5zm-69.405 13.694-1.709-23.209h20.876l9.437 47.255c.701 3.507 3.779 6.031 7.355 6.031h106.927c3.576 0 6.654-2.524 7.355-6.031l9.437-47.255h20.876l-1.709 23.209c-3.884 52.734-27.94 79.192-89.422 79.192-61.409 0-85.534-26.384-89.423-79.192zm89.422-189.807c38.253 0 72.104 23.757 85.456 58.853h-16.606c-4.142 0-7.5 3.357-7.5 7.5s3.358 7.5 7.5 7.5h26.019c2.743 15.103 1.009 26.44.94 29.239h-75.792c-4.142 0-7.5 3.357-7.5 7.5v50.521h-25.033v-50.521c0-4.143-3.358-7.5-7.5-7.5h-75.792c-.068-2.771-1.842-13.92.94-29.239h128.718c4.142 0 7.5-3.357 7.5-7.5s-3.358-7.5-7.5-7.5h-119.306c13.352-35.096 47.203-58.853 85.456-58.853zm-227.717 436.865c0-15.317 7.341-29.473 19.743-38.285h57.966v83.42h-77.709zm92.709-44.923 6.921-29.759h77.074c9.811 0 19.167 4.215 25.667 11.563l17.845 20.175v88.079h-127.507zm142.508 90.058v-88.079l17.845-20.174c6.501-7.35 15.856-11.564 25.667-11.564h22.91c4.142 0 7.5-3.357 7.5-7.5s-3.358-7.5-7.5-7.5h-22.91c-14.106 0-27.556 6.06-36.903 16.626l-14.109 15.951-14.11-15.953c-9.347-10.565-22.797-16.625-36.903-16.625h-73.586l8.879-38.176c4.288-18.44-.338-37.395-12.394-51.669 10.299-11.125 17.211-19.101 30.822-29.548 15.072 42.619 52.609 56.209 97.291 56.209 44.665 0 82.215-13.579 97.291-56.209 13.551 10.4 20.592 18.496 30.822 29.547-12.056 14.276-16.683 33.23-12.394 51.67l8.879 38.176h-15.675c-4.142 0-7.5 3.357-7.5 7.5s3.358 7.5 7.5 7.5h19.164l6.921 29.759v90.059zm220.217 0h-77.709v-83.42h57.966c12.402 8.813 19.743 22.969 19.743 38.285z"/></svg>