<svg id="Capa_1" enable-background="new 0 0 512.005 512.005" height="512" viewBox="0 0 512.005 512.005" width="512" xmlns="http://www.w3.org/2000/svg"><g><path d="m478.102 241.601c-1.864-2.08-3.895-4.299-5.931-6.52l-34.056.824 13.145-22.526c-42.969-42.23-110.325-92.377-195.258-92.377s-152.289 50.149-195.26 92.379l-1.853 22.524-19.058-.822c-2.036 2.221-4.065 4.438-5.929 6.519-3.9 4.2-19.2 21.601-19.2 21.901s15.3 17.699 19.2 21.899c8.798 9.814 19.622 21.365 32.162 33.327l21.149-8.727 1.287 28.713c41.803 34.73 99.088 67.288 167.501 67.288s125.698-32.558 167.501-67.288l1.287-28.713 21.149 8.727c12.541-11.962 23.364-23.513 32.162-33.327 3.9-4.2 19.2-21.599 19.2-21.899s-15.297-17.701-19.198-21.902z" fill="#fdccbd"/><path d="m424.791 310.002 21.149 8.727c12.541-11.962 23.364-23.513 32.162-33.327 3.9-4.2 19.2-21.599 19.2-21.899s-15.3-17.701-19.2-21.901c-1.864-2.08-3.895-4.299-5.931-6.52l-34.056.824 13.145-22.526c-42.969-42.23-110.325-92.377-195.258-92.377v285c68.414 0 125.698-32.558 167.501-67.288z" fill="#fbb5ae"/><ellipse cx="256.003" cy="241.002" fill="#ec577d" rx="106" ry="105"/><path d="m362.003 241.002c0-57.891-48.109-105-106-105v210c57.89.001 106-47.109 106-105z" fill="#e72d5c"/><path d="m90.002 271.003c3.853 0 7.69-1.479 10.605-4.395l30-30c5.859-5.859 5.859-15.352 0-21.211s-15.352-5.859-21.211 0l-20.508 20.508-28.147-22.524c-7.756 7.623-14.709 14.938-20.911 21.702l40.795 32.639c2.756 2.197 6.067 3.281 9.377 3.281z" fill="#fbb5ae"/><path d="m135.002 316.003c8.291 0 15-6.709 15-15s-6.709-15-15-15h-30c-3.984 0-7.793 1.582-10.605 4.395l-28.332 28.332c6.931 6.612 14.414 13.319 22.436 19.986l22.712-22.712h23.789z" fill="#fbb5ae"/><path d="m451.261 213.379-28.145 22.526-20.508-20.508c-5.859-5.859-15.352-5.859-21.211 0s-5.859 15.352 0 21.211l30 30c2.915 2.915 6.753 4.395 10.605 4.395 3.311 0 6.621-1.084 9.374-3.281l40.795-32.64c-6.201-6.765-13.152-14.08-20.91-21.703z" fill="#f89580"/><path d="m407.003 286.003h-30c-8.291 0-15 6.709-15 15s6.709 15 15 15h23.789l22.712 22.712c8.022-6.667 15.505-13.374 22.436-19.986l-28.332-28.332c-2.813-2.812-6.621-4.394-10.605-4.394z" fill="#f89580"/><circle cx="256.003" cy="241.002" fill="#58072a" r="45"/><path d="m301.003 241.002c0-24.814-20.186-45-45-45v90c24.814.001 45-20.185 45-45z" fill="#351b33"/><path d="m509.864 263.283c-3.853-6.416-97.167-157.28-253.861-157.28s-250.009 150.864-253.862 157.28c-4.263 7.104-1.963 16.318 5.142 20.581 7.086 4.252 16.311 1.974 20.581-5.142.864-1.436 88.246-142.72 228.139-142.72 139.512 0 227.289 141.299 228.139 142.734 4.219 6.974 13.347 9.452 20.581 5.112 7.104-4.262 9.404-13.461 5.141-20.565z" fill="#6d1d40"/><path d="m484.141 278.737c4.219 6.974 13.347 9.452 20.581 5.112 7.104-4.263 9.404-13.462 5.142-20.566-3.853-6.416-97.167-157.28-253.861-157.28v30c139.511-.001 227.289 141.298 228.138 142.734z" fill="#58072a"/></g></svg>