<svg height="512" viewBox="0 0 512 512" width="512" xmlns="http://www.w3.org/2000/svg"><g id="Filled_stroke_cut_Ex" data-name="Filled stroke cut Ex"><path d="m56 488v-94.842a30 30 0 0 1 14.789-25.858l121.211-71.3h128l121.211 71.3a30 30 0 0 1 14.789 25.858v94.842z" fill="#333"/><path d="m336 144h-160l-152 88 36.3 13.2a180 180 0 0 1 84.058 63.291l31.642 43.509 40-56h80l40 56 31.643-43.509a180 180 0 0 1 84.057-63.291l36.3-13.2z" fill="#e64b30"/><path d="m215.92 296-39.92 56 40 136h80l40-144-39.92-48z" fill="#f2f2f2"/><path d="m336 151.589h-160l-7.57-60.558a60 60 0 0 1 59.537-67.442h56.066a60 60 0 0 1 59.537 67.442z" fill="#333"/><g fill="#ffefed"><path d="m176 143.589-32-40-9.5 65.01a30 30 0 0 0 14.416 22.74l27.084 16.25z"/><path d="m336 143.589 32-40 9.5 65.01a30 30 0 0 1 -14.416 22.74l-27.084 16.25z"/><path d="m268.894 312h-25.788a30 30 0 0 1 -27.186-17.313l-40.82-87.478a49.994 49.994 0 0 1 -3.581-31.62l17.1-64.191a20 20 0 0 1 19.556-15.809h8.825a30 30 0 0 1 24 12l15 20 15-20a30 30 0 0 1 24-12h8.832a20 20 0 0 1 19.556 15.811l17.1 64.191a49.994 49.994 0 0 1 -3.581 31.62l-40.827 87.476a30 30 0 0 1 -27.186 17.313z"/></g><path d="m176 352-64 56 80 80h24z" fill="#e64b30"/><path d="m336 352 64 56-80 80h-24z" fill="#e64b30"/><g><path d="m492.008 225.077-107.244-62.089-8.848-60.556a8 8 0 0 0 -14.163-3.841l-13.115 16.394 2.87-22.962a68 68 0 0 0 -67.475-76.435h-56.066a68 68 0 0 0 -67.475 76.435l2.87 22.962-13.115-16.394a8 8 0 0 0 -14.163 3.841l-8.848 60.556-43.244 25.036 8.016 13.847 37.3-21.6a38.149 38.149 0 0 0 15.492 17.929l23.977 14.386 38.29 82.05-31.133 43.674-25.108-34.523a187.331 187.331 0 0 0 -87.794-66.1l-20.195-7.343 33.171-19.2-8.018-13.847-48 27.79a8 8 0 0 0 1.275 14.442l36.3 13.2a171.393 171.393 0 0 1 80.323 60.471l2.726 3.748-73.882 43.46a38.148 38.148 0 0 0 -18.732 32.75v94.842a8 8 0 0 0 8 8h400a8 8 0 0 0 8-8v-56h-16v48h-108.686l16-16h44.686v-16h-28.686l34.343-34.343a8 8 0 0 0 -.389-11.678l-58.5-51.185 15.162-20.847 75.224 44.253a22.082 22.082 0 0 1 10.846 18.958v22.842h16v-22.842a38.148 38.148 0 0 0 -18.732-32.753l-73.882-43.46 2.726-3.748a171.393 171.393 0 0 1 80.324-60.479l36.3-13.2a8 8 0 0 0 1.274-14.442zm-129.262-102.115 6.684 45.743a22.1 22.1 0 0 1 -10.463 15.774l-9.54 5.724a57.956 57.956 0 0 0 -1.121-16.291c-.028-.128-.058-.256-.092-.383l-5.624-21.117 1.348.169.906-7.24zm-173.762-73.787a52.022 52.022 0 0 1 38.983-17.587h56.066a52 52 0 0 1 51.6 58.451l-3.083 24.666-1.383-5.192a28.147 28.147 0 0 0 -27.333-21.925h-8.834a38.185 38.185 0 0 0 -30.4 15.2l-8.6 11.467-8.6-11.467a38.183 38.183 0 0 0 -30.4-15.2h-8.832a28.147 28.147 0 0 0 -27.333 21.925l-1.383 5.192-3.083-24.666a52.023 52.023 0 0 1 12.615-40.864zm-46.414 119.53 6.684-45.743 17.9 22.379.906 7.24 1.348-.169-5.624 21.117c-.034.127-.064.255-.092.383a57.956 57.956 0 0 0 -1.121 16.291l-9.54-5.724a22.1 22.1 0 0 1 -10.461-15.774zm36.73 8.743 17.043-63.991c.034-.127.064-.255.092-.383a12.061 12.061 0 0 1 11.733-9.486h8.832a22.106 22.106 0 0 1 17.6 8.8l15 20a8 8 0 0 0 12.8 0l15-20a22.108 22.108 0 0 1 17.6-8.8h8.832a12.061 12.061 0 0 1 11.733 9.486c.028.128.058.256.092.383l17.043 63.991a42.248 42.248 0 0 1 -3.047 26.378l-40.822 87.474a22.082 22.082 0 0 1 -19.931 12.7h-25.79a22.082 22.082 0 0 1 -19.936-12.7l-40.822-87.476a42.252 42.252 0 0 1 -3.052-26.376zm42.686 302.552-25.252-85.856-11.96-40.664 31.226-43.716v66.236h16v-57.673a37.763 37.763 0 0 0 11.1 1.673h25.8a37.763 37.763 0 0 0 11.1-1.673v57.673h16v-66.236l29.669 41.536-35.75 128.7zm-157.986-86.842a22.084 22.084 0 0 1 10.845-18.958l75.224-44.249 15.162 20.847-58.5 51.185a8 8 0 0 0 -.389 11.678l66.344 66.339h-108.686zm59.7 15.232 48.151-42.133 10.294 35 23.163 78.743h-10zm192.987 71.61h-10l33.455-113.743 48.158 42.133zm132.28-242.319a187.331 187.331 0 0 0 -87.794 66.1l-22.492 30.927-33.6-40.4 38.141-81.73 23.978-14.378a38.149 38.149 0 0 0 15.49-17.925l86.473 50.064z"/><path d="m224 263.588h16v-15.588h32v16h16v-16h8v-16h-80v16h8z"/><path d="m216 152h16v24h-16z"/><path d="m280 152h16v24h-16z"/><path d="m248 360h16v72h-16z"/></g></g></svg>