<?xml version="1.0" standalone="no"?>
<!DOCTYPE svg PUBLIC "-//W3C//DTD SVG 20010904//EN"
 "http://www.w3.org/TR/2001/REC-SVG-20010904/DTD/svg10.dtd">
<svg version="1.0" xmlns="http://www.w3.org/2000/svg"
 width="1728.000000pt" height="864.000000pt" viewBox="0 0 1728.000000 864.000000"
 preserveAspectRatio="xMidYMid meet">

<g transform="translate(0.000000,864.000000) scale(0.100000,-0.100000)"
fill="#000000" stroke="none">
<path d="M0 4320 l0 -4320 8640 0 8640 0 0 4320 0 4320 -8640 0 -8640 0 0
-4320z m3725 4202 c-5 -4 -11 -14 -13 -22 -2 -8 -8 -21 -13 -30 -9 -12 -10
-12 -5 3 3 10 6 27 6 38 0 11 7 19 18 19 9 0 13 -4 7 -8z m302 -4 c1 -7 13
-40 27 -73 22 -53 25 -74 25 -175 0 -131 27 -266 62 -313 18 -24 19 -31 8 -39
-11 -8 -10 -9 3 -4 12 3 26 -6 45 -30 30 -40 29 -36 39 -186 7 -100 5 -111
-22 -196 l-29 -90 -42 29 c-23 16 -52 43 -64 60 -27 38 -40 104 -28 136 12 31
-5 29 -19 -2 -6 -14 -16 -25 -22 -25 -5 0 -10 -8 -10 -17 0 -15 2 -16 10 -3 8
12 10 12 16 -3 3 -9 4 -23 1 -31 -3 -7 0 -19 6 -25 7 -7 -8 -3 -33 8 -44 20
-103 29 -84 13 5 -5 30 -17 57 -26 26 -10 67 -36 91 -59 23 -23 61 -57 84 -74
25 -20 45 -47 53 -70 15 -48 51 -121 82 -166 13 -20 30 -62 37 -96 l13 -60
-37 -49 c-29 -41 -36 -58 -36 -97 0 -44 24 -105 42 -105 4 0 8 -5 8 -10 0 -6
-11 -3 -25 6 -39 25 -86 131 -91 205 -7 92 -13 114 -26 101 -7 -7 -9 -42 -6
-94 6 -107 57 -228 129 -303 47 -49 47 -51 51 -126 2 -52 9 -83 21 -100 10
-13 29 -40 43 -59 15 -20 23 -43 20 -54 -7 -28 9 -51 59 -86 25 -17 52 -45 61
-62 22 -43 29 -159 14 -258 -6 -47 -14 -125 -16 -175 -2 -49 -11 -148 -19
-220 -15 -139 -35 -548 -38 -809 l-2 -159 -35 53 c-46 70 -62 99 -106 193 -21
43 -57 101 -82 128 l-44 49 39 43 c44 48 103 131 103 145 0 6 -6 12 -12 15
-10 4 -10 7 0 18 16 18 15 39 -2 39 -8 0 -31 -30 -51 -67 -20 -38 -54 -88 -75
-113 l-40 -45 0 40 c0 24 -10 57 -25 83 -23 41 -24 45 -9 68 16 24 16 97 -1
150 -5 16 10 45 60 118 36 54 69 105 72 114 3 10 -15 -12 -40 -48 -25 -36 -64
-82 -87 -104 l-43 -39 7 -70 c5 -59 3 -76 -15 -113 l-21 -44 21 -26 c37 -47
23 -58 -18 -15 -41 43 -42 49 -15 115 5 13 4 17 -3 13 -6 -4 -38 6 -70 22 -69
35 -113 47 -113 33 0 -15 20 -28 70 -48 61 -23 61 -23 48 -72 -10 -42 -10 -43
36 -92 50 -53 53 -62 31 -100 -8 -14 -14 -29 -15 -33 0 -15 21 5 29 26 7 18
12 14 51 -39 23 -32 54 -71 67 -85 24 -26 63 -152 67 -215 1 -19 14 -46 33
-67 18 -20 51 -64 74 -98 l42 -62 -87 5 c-60 4 -86 2 -86 -5 0 -7 38 -48 84
-92 46 -44 93 -100 106 -124 23 -45 41 -179 33 -238 l-5 -30 -50 14 c-77 23
-76 4 2 -48 21 -14 25 -25 28 -89 3 -52 1 -71 -7 -66 -16 10 -13 -10 4 -28 8
-8 15 -20 15 -26 0 -6 -12 2 -26 19 -20 25 -34 31 -64 31 -47 0 -56 -18 -22
-46 l26 -21 -25 2 c-13 1 -22 4 -19 7 3 3 -3 15 -13 25 -9 11 -14 23 -10 28 5
4 -3 5 -16 2 -15 -4 -36 1 -53 11 -24 14 -30 14 -37 3 -6 -9 -14 -10 -26 -4
-17 10 -65 6 -65 -5 0 -3 7 -13 15 -22 14 -16 12 -17 -35 -12 -46 4 -54 2 -80
-23 -31 -30 -27 -45 18 -59 25 -8 20 -28 -6 -24 -9 2 -17 -4 -18 -12 -3 -35
-5 -40 -15 -40 -7 0 -9 10 -5 25 5 18 1 27 -14 35 -11 6 -20 8 -20 4 0 -3 -7
-1 -15 6 -11 9 -12 17 -4 32 14 25 0 41 -35 41 -22 -1 -26 5 -31 46 -10 72
-15 73 -10 1 6 -92 30 -208 38 -190 4 8 5 -2 3 -22 -5 -40 10 -53 17 -15 2 12
5 3 6 -20 1 -44 8 -52 29 -31 9 9 12 4 12 -25 0 -27 4 -37 15 -37 9 0 18 7 22
15 3 9 24 28 47 44 l41 29 18 -24 c21 -28 37 -31 37 -7 0 37 21 -5 26 -53 3
-27 15 -64 25 -82 21 -37 24 -46 9 -37 -6 4 -10 -5 -10 -21 0 -15 -3 -24 -7
-20 -9 9 -11 46 -2 46 4 0 1 14 -7 30 -9 17 -16 30 -17 30 -1 0 -2 -38 -2 -85
0 -47 -3 -85 -7 -85 -4 0 -7 -15 -6 -32 0 -18 -3 -77 -7 -132 l-8 -99 31 5
c17 2 29 1 26 -4 -10 -16 -14 -88 -5 -88 5 0 11 6 14 13 2 6 7 9 11 6 4 -4 0
-13 -8 -22 -9 -8 -13 -24 -10 -38 5 -19 4 -21 -5 -9 -10 13 -11 13 -12 0 -1
-8 0 -19 1 -25 9 -38 6 -105 -5 -105 -13 0 -52 39 -42 41 4 1 13 2 19 3 7 0
14 9 16 20 2 11 0 16 -6 12 -6 -3 -14 4 -18 16 -11 31 -11 34 -13 64 0 14 -5
22 -11 19 -6 -3 -10 -2 -10 4 0 5 4 13 10 16 6 3 10 13 10 21 0 8 -5 12 -10 9
-6 -4 -8 -12 -4 -18 3 -7 -2 -3 -10 7 -9 11 -16 26 -16 34 0 8 -15 60 -33 116
-19 55 -39 119 -45 141 -7 22 -23 53 -36 69 l-24 29 -7 -57 c-9 -68 -1 -127
18 -138 8 -4 14 -24 15 -45 1 -22 8 -43 18 -50 15 -11 15 -13 0 -28 -9 -9 -14
-21 -11 -26 4 -5 -1 -9 -9 -9 -9 0 -16 -5 -16 -11 0 -5 4 -8 8 -5 5 3 16 -4
25 -14 16 -19 15 -20 -8 -26 l-25 -6 20 -18 c23 -20 42 -99 22 -86 -7 4 -12
18 -12 31 0 13 -13 40 -30 58 -30 34 -39 54 -20 42 6 -3 10 -1 10 5 0 7 -7 9
-16 6 -9 -3 -40 -6 -69 -6 -42 0 -60 -5 -83 -25 l-29 -24 -7 72 c-22 228 -37
753 -43 1488 l-6 816 75 36 76 37 47 107 c26 60 50 112 55 116 4 5 51 4 104
-2 63 -7 103 -8 115 -2 10 6 25 35 35 69 18 65 109 218 163 274 l36 37 -21 59
c-12 32 -23 70 -23 83 -1 17 -3 19 -6 7 -7 -29 -17 -22 -66 50 -41 58 -47 74
-47 117 0 33 7 62 21 84 19 32 20 39 8 93 -7 36 -24 75 -43 100 -58 75 -64 92
-58 166 4 57 0 78 -22 133 -31 78 -31 85 -7 179 19 73 19 99 1 70 -6 -8 -21
-51 -36 -95 l-25 -80 19 -51 c27 -67 35 -130 24 -179 -10 -46 7 -88 64 -164
25 -32 34 -54 34 -82 0 -34 -3 -39 -23 -39 -22 0 -23 -4 -23 -50 1 -39 -4 -54
-21 -72 l-23 -22 0 40 c0 22 -5 45 -11 51 -7 7 -11 48 -11 102 0 59 -3 89 -10
85 -11 -7 -6 -199 5 -211 16 -16 5 -79 -18 -108 l-25 -30 0 41 c0 22 -11 77
-24 122 -14 45 -28 114 -31 154 -8 93 -13 108 -25 88 -17 -27 -10 -133 15
-235 14 -55 25 -112 25 -127 0 -15 8 -49 19 -75 10 -26 22 -79 26 -116 l7 -68
-74 -72 c-73 -73 -153 -177 -226 -297 -26 -43 -46 -65 -58 -65 -18 0 -19 17
-22 482 l-2 481 29 54 c16 29 34 73 41 98 22 89 42 127 87 170 24 25 53 61 64
82 22 43 36 48 42 16 3 -14 5 -9 6 15 0 20 6 37 11 37 6 0 10 6 10 14 0 8 6
21 13 28 6 7 26 33 42 57 17 24 45 60 64 79 36 37 50 80 51 149 0 37 -7 50
-55 104 -30 34 -60 79 -66 100 -7 21 -18 40 -26 43 -32 13 18 -96 71 -153 38
-40 45 -54 50 -103 5 -37 3 -66 -5 -80 -15 -28 -71 -78 -81 -71 -5 2 -8 -1 -8
-6 0 -14 -69 -91 -81 -91 -14 0 -10 73 6 104 18 33 18 36 6 36 -13 0 -21 -25
-42 -128 -19 -99 -34 -127 -109 -207 -52 -55 -82 -123 -101 -225 -7 -36 -16
-69 -20 -73 -3 -5 -7 117 -8 270 -2 272 -1 281 23 358 18 56 35 88 62 116 36
37 37 45 12 81 -22 30 14 147 67 219 25 34 45 66 45 71 0 6 36 48 81 93 90 93
100 132 16 62 -99 -82 -91 -82 -85 4 5 80 7 86 91 217 l40 63 -12 69 -12 68
35 69 c36 70 45 103 26 103 -5 0 -25 -22 -42 -50 -18 -27 -36 -50 -41 -50 -4
0 9 25 29 55 33 49 44 59 65 57 8 -1 0 71 -9 78 -4 3 -8 12 -10 20 -1 8 -10
29 -19 46 l-16 30 -111 -3 -111 -3 -13 -31 c-17 -42 -23 -33 -9 14 l12 37 126
0 c93 0 126 -3 126 -12z m515 -122 c-2 -74 1 -151 7 -172 9 -32 7 -43 -11 -76
l-22 -39 -14 48 c-8 26 -29 65 -48 87 -39 45 -48 72 -42 116 2 16 1 27 -4 24
-4 -3 -8 15 -8 40 0 26 5 46 13 49 9 4 9 8 -2 16 -11 7 -5 11 25 14 34 3 32 4
-15 5 -44 2 -51 0 -42 -12 7 -8 8 -26 4 -47 l-7 -34 -10 49 c-6 27 -17 51 -25
54 -10 3 -12 -2 -8 -24 3 -16 4 -23 1 -16 -3 6 -13 12 -22 12 -15 0 -15 2 -2
10 18 11 19 11 -93 12 -48 0 -90 -2 -94 -6 -3 -3 -1 -6 5 -6 7 0 12 -5 12 -11
0 -6 -8 -8 -19 -4 -15 5 -18 1 -13 -20 5 -28 22 -44 22 -21 0 8 4 17 8 20 10
6 9 -24 -1 -41 -4 -6 -2 -23 5 -38 9 -19 9 -28 0 -37 -7 -7 -12 -26 -11 -42 0
-27 2 -28 9 -11 7 17 9 15 9 -12 1 -20 -4 -33 -11 -33 -10 0 -10 -2 -1 -8 8
-5 11 -30 10 -69 -1 -35 3 -67 9 -73 9 -9 11 -7 11 7 -2 39 15 183 21 183 8 0
5 -165 -4 -250 -7 -64 -13 -57 -44 55 -18 63 -22 104 -22 195 1 102 -1 120
-24 169 -14 31 -30 59 -37 63 -7 4 101 8 238 8 l250 0 -3 -134z m226 77 c26
-133 34 -245 30 -397 -3 -148 -5 -165 -27 -199 -13 -21 -27 -37 -31 -35 -5 2
-35 28 -67 59 -54 52 -84 109 -99 186 -5 25 50 157 92 225 32 50 30 67 -3 37
-21 -19 -25 -20 -20 -6 4 11 3 16 -4 12 -6 -4 -8 -13 -5 -21 3 -8 -4 -30 -16
-50 -19 -32 -22 -34 -28 -18 -4 11 -10 67 -14 127 -4 59 -9 114 -12 122 -5 13
9 15 94 15 l99 0 11 -57z m239 25 c-3 -7 -5 -2 -5 12 0 14 2 19 5 13 2 -7 2
-19 0 -25z m47 15 c-3 -10 -14 -29 -25 -43 l-20 -25 16 39 c8 21 15 40 15 42
0 2 4 4 9 4 5 0 7 -8 5 -17z m206 15 c0 -2 -7 -52 -15 -113 -8 -60 -15 -117
-15 -125 -1 -9 -20 6 -47 35 -46 51 -41 37 11 -29 39 -50 31 -82 -48 -181 -57
-74 -115 -127 -116 -108 -1 5 -1 76 -2 158 l0 150 46 90 c25 50 46 98 46 108
0 14 10 17 70 17 39 0 70 -1 70 -2z m3100 -2 c0 -3 9 -78 20 -168 18 -141 42
-261 65 -319 5 -14 -1 -15 -45 -11 -38 3 -55 1 -69 -12 -11 -10 -25 -14 -36
-10 -15 6 -16 4 -6 -13 11 -21 48 -37 53 -23 6 14 165 -24 188 -45 39 -35 110
-142 135 -203 27 -66 112 -359 144 -497 12 -49 25 -95 29 -102 6 -9 26 -9 87
2 44 8 126 14 182 15 l102 0 87 -77 c93 -83 164 -169 205 -248 l26 -50 49 3
c54 4 272 26 400 41 45 6 133 11 195 12 113 2 114 1 117 -22 6 -47 10 -52 34
-35 32 23 47 20 136 -24 66 -33 89 -52 136 -109 31 -37 56 -71 56 -75 0 -3 -8
-6 -19 -6 -10 0 -26 -11 -35 -25 -16 -24 -16 -25 8 -25 31 0 85 -46 125 -107
51 -76 36 -86 -33 -23 l-44 41 5 -84 6 -84 -37 -41 -37 -40 43 -7 c24 -4 95
-27 158 -51 63 -24 163 -56 223 -71 l107 -26 1 -76 c1 -42 1 -79 0 -84 -1 -10
59 -116 70 -123 5 -3 9 15 9 40 0 25 4 46 10 46 16 0 68 -84 83 -136 10 -32
20 -48 28 -45 53 15 79 -14 110 -124 l17 -63 -51 34 c-28 19 -59 34 -69 34
-15 0 -13 -9 17 -62 35 -65 119 -268 112 -274 -1 -2 -24 19 -50 45 -52 53
-100 81 -141 81 -33 0 -33 -6 3 -36 17 -14 39 -50 51 -82 31 -83 70 -232 70
-269 0 -30 -3 -33 -30 -33 -37 0 -38 -9 -5 -40 27 -25 40 -64 50 -142 4 -27
10 -48 14 -48 4 0 14 18 21 41 8 22 17 42 21 45 12 7 47 -68 65 -138 11 -42
15 -83 11 -125 -7 -72 -31 -137 -49 -131 -15 5 -56 71 -92 146 -14 28 -28 52
-32 52 -4 0 -4 -20 -2 -45 3 -25 4 -45 1 -45 -17 0 -42 24 -47 45 -3 13 -22
40 -40 59 -19 19 -36 46 -38 62 -3 27 -6 29 -53 32 -57 3 -91 -12 -65 -28 75
-46 115 -78 118 -93 5 -27 -19 -20 -48 14 -21 26 -35 32 -78 37 -51 4 -112
-11 -112 -29 0 -5 10 -9 23 -9 12 0 32 -3 45 -6 19 -5 13 -11 -40 -36 -65 -30
-98 -54 -98 -70 0 -5 8 -7 18 -4 9 2 33 8 52 12 l35 7 -32 -30 c-30 -28 -53
-69 -53 -94 0 -5 12 -1 28 10 15 11 38 22 51 26 21 6 23 5 16 -11 -10 -22 -19
-94 -12 -94 2 0 20 26 40 58 19 31 47 68 61 82 l27 24 -15 -36 c-14 -32 -37
-149 -32 -155 4 -4 80 110 100 150 11 21 28 43 38 48 22 12 22 14 -2 -56 -11
-32 -18 -60 -17 -62 2 -2 16 8 31 22 49 45 90 11 125 -104 11 -37 36 -94 56
-126 46 -77 46 -126 1 -109 -17 7 -22 44 -6 44 22 0 7 30 -38 79 -42 45 -53
51 -88 51 -23 0 -44 -3 -47 -7 -4 -3 11 -21 32 -39 21 -19 48 -55 61 -80 18
-40 20 -51 9 -71 -14 -27 -32 -25 -38 3 -5 31 -22 44 -46 38 -13 -3 -35 3 -56
15 -19 12 -46 21 -60 21 -32 0 -89 -19 -89 -30 0 -4 21 -15 47 -25 l47 -18
-49 -15 c-49 -14 -105 -46 -105 -61 0 -3 32 -5 71 -3 l70 4 -26 -26 c-27 -27
-55 -84 -55 -111 0 -12 11 -7 43 18 39 32 79 57 91 57 3 0 6 -27 8 -61 l3 -61
35 56 c53 84 83 124 76 101 -3 -11 -2 -26 3 -34 7 -11 10 -9 16 8 7 24 51 39
67 23 13 -13 -4 -62 -22 -62 -5 0 -10 -4 -10 -9 0 -5 10 -7 21 -4 19 5 20 3
13 -18 -13 -36 -8 -157 7 -175 12 -14 62 -45 74 -44 28 1 35 -2 35 -15 0 -23
35 -87 59 -109 20 -18 29 -56 14 -56 -3 0 -15 8 -27 18 -20 17 -20 17 0 -10
10 -15 24 -28 30 -28 6 0 18 -9 25 -21 8 -11 23 -21 34 -23 55 -8 -4 -96 -64
-96 -15 0 -31 -4 -36 -9 -6 -5 -19 -11 -29 -13 -19 -3 -19 -4 -1 -21 13 -14
20 -15 25 -6 5 8 10 5 15 -10 7 -23 0 -32 -57 -66 -22 -13 -28 -13 -28 -2 0 7
7 22 15 33 27 36 15 38 -21 3 l-35 -34 -21 25 c-22 27 -76 32 -116 11 -18 -10
-20 -15 -12 -37 26 -67 -3 -73 -42 -9 -15 25 -34 45 -43 45 -20 0 -19 5 5 38
24 33 38 92 21 92 -6 0 -11 -7 -11 -15 0 -16 -16 -21 -22 -6 -2 5 -16 13 -32
17 -28 7 -29 6 -23 -24 12 -57 -23 -47 -37 10 -9 37 -34 48 -95 41 -56 -6 -63
-14 -28 -30 29 -13 87 -62 87 -73 0 -5 -14 -1 -31 7 -53 26 -110 28 -139 4
l-25 -20 31 -1 c16 0 39 -6 49 -14 18 -13 17 -14 -16 -20 -50 -10 -89 -27 -89
-38 0 -6 11 -7 26 -4 l26 7 -25 -33 c-14 -18 -29 -46 -33 -62 l-7 -30 29 21
c34 24 134 75 134 69 0 -3 -9 -20 -19 -38 -21 -35 -39 -138 -25 -138 5 0 29
23 54 50 44 50 79 67 65 33 -12 -31 -21 -67 -19 -80 1 -7 2 -25 3 -40 l2 -28
15 30 c9 17 23 41 32 55 15 23 16 23 23 5 4 -11 8 -36 8 -55 l1 -34 29 34 28
34 -5 -34 c-3 -19 -15 -48 -27 -65 -12 -16 -29 -56 -39 -87 -12 -41 -28 -68
-59 -97 -47 -45 -58 -46 -200 -14 -73 17 -78 19 -75 43 2 19 -2 26 -19 28 -31
5 -40 19 -60 102 l-18 75 -75 1 c-73 1 -75 2 -78 28 -2 14 -12 31 -23 36 -25
14 -77 129 -85 191 -6 43 -10 49 -30 49 -25 0 -30 12 -84 225 -37 149 -45 201
-31 209 6 4 11 25 11 47 0 21 4 39 9 39 14 0 1 124 -15 136 -15 12 -15 2 -15
275 0 173 3 208 16 219 21 17 21 125 0 134 -27 10 -18 65 15 96 29 27 30 33
37 135 l6 107 53 46 c30 25 52 48 49 50 -2 2 -22 -3 -45 -12 -22 -9 -44 -16
-48 -16 -8 0 -8 97 1 125 8 25 42 298 58 463 11 109 10 125 -4 139 -8 8 -20
13 -25 9 -15 -9 -39 -85 -62 -200 -24 -112 -25 -116 -46 -116 -10 0 -14 6 -10
18 2 9 7 101 11 203 6 157 4 187 -8 197 -12 10 -21 10 -41 1 -14 -7 -29 -9
-33 -5 -4 3 -9 131 -12 284 -5 243 -8 281 -24 305 -24 37 -64 37 -78 0 -26
-65 -79 -303 -79 -354 0 -65 -4 -71 -36 -59 -37 15 -44 -13 -44 -179 0 -142
-1 -151 -21 -161 -11 -7 -22 -10 -24 -8 -2 2 -11 57 -20 123 -23 170 -64 374
-81 407 -17 33 -61 55 -78 38 -7 -7 -2 -111 14 -331 18 -256 20 -323 10 -329
-9 -6 -11 -49 -5 -197 l7 -190 -25 -7 c-14 -3 -29 -15 -32 -26 -7 -22 -25 -27
-25 -7 -1 6 -13 86 -28 177 -25 148 -30 165 -47 165 -19 0 -20 -7 -18 -103 2
-122 -16 -136 -32 -26 -8 51 -14 70 -27 72 -16 3 -23 27 -44 145 -8 49 -18 53
-48 20 -23 -25 -25 -33 -19 -80 6 -53 -1 -65 -25 -41 -16 16 -16 -14 3 -138
14 -93 23 -115 56 -126 9 -4 29 -117 29 -170 0 -25 8 -46 26 -67 26 -31 31
-63 39 -231 2 -38 6 -45 28 -53 14 -4 28 -15 31 -22 9 -26 19 -192 12 -219 -6
-26 -26 -37 -26 -14 0 14 -30 48 -43 48 -5 0 1 -9 14 -21 16 -14 18 -19 7 -15
-13 4 -16 0 -12 -22 5 -26 5 -26 -15 -8 -11 10 -17 25 -14 34 5 14 3 15 -7 5
-10 -9 -18 -9 -34 -1 -11 6 8 -15 42 -47 l62 -57 0 -68 c0 -37 -3 -88 -6 -114
-6 -42 -9 -46 -34 -46 -26 0 -28 -4 -37 -62 -6 -35 -7 -67 -3 -73 9 -12 15
-103 12 -191 -2 -53 -5 -62 -23 -67 -19 -5 -20 -10 -13 -59 12 -84 7 -102 -51
-198 -43 -70 -55 -100 -55 -131 l0 -40 -42 3 c-41 3 -42 4 -53 48 -11 44 -12
45 -63 53 l-52 9 0 122 c0 92 4 127 15 142 19 25 19 40 0 24 -12 -10 -20 -1
-47 56 -29 60 -39 72 -80 91 -45 22 -46 23 -41 61 4 28 0 47 -12 66 -18 27
-18 27 13 54 31 27 36 38 33 77 -2 24 -28 61 -37 52 -4 -3 -1 -20 6 -37 12
-28 11 -33 -10 -55 -13 -14 -29 -25 -37 -25 -16 0 -16 0 3 39 19 38 13 61 -16
61 -13 0 -24 10 -31 28 -11 27 -11 27 -20 5 -4 -13 -14 -23 -20 -23 -18 0 -4
201 21 287 15 53 20 102 20 183 0 106 1 110 25 126 21 14 23 18 11 28 -24 20
-37 79 -43 203 -3 67 -10 120 -15 117 -4 -3 -11 1 -14 9 -6 16 18 70 43 99 21
23 9 48 -21 48 -61 0 -112 -83 -126 -204 -11 -92 -3 -136 22 -136 11 0 23 -11
28 -26 12 -30 12 -257 1 -365 -8 -80 -48 -179 -91 -228 l-21 -24 -35 34 c-33
31 -35 37 -30 77 3 24 14 56 25 70 10 15 21 38 25 52 7 25 7 25 -11 -2 -29
-45 -36 -33 -30 47 5 69 4 78 -19 104 -22 26 -24 38 -25 132 -1 57 -5 115 -9
129 -8 24 -8 24 -9 -5 -1 -17 -7 -37 -13 -43 -21 -21 -37 130 -38 343 l0 189
34 36 c32 34 33 37 28 103 -3 44 -9 67 -17 67 -8 0 -14 33 -18 110 -4 60 -4
116 -2 123 3 7 47 28 98 46 103 38 148 68 87 58 -19 -3 -49 -9 -66 -12 l-31
-7 7 44 6 44 -55 -53 c-31 -29 -59 -53 -63 -53 -3 0 -4 71 -1 158 5 149 6 158
28 177 20 17 23 29 23 83 0 136 12 198 48 249 19 26 34 57 33 68 0 20 0 20 -8
0 -11 -26 -48 -59 -54 -48 -7 11 10 210 18 223 4 6 60 8 148 5 131 -5 139 -4
100 9 -23 7 -66 17 -96 20 -60 8 -188 -10 -199 -28 -4 -6 -9 -33 -12 -61 -8
-77 -15 -159 -16 -173 0 -24 -20 -1 -20 23 0 15 -11 31 -29 44 -39 28 -58 26
-65 -6 -6 -32 -40 -222 -58 -333 -10 -59 -17 -75 -32 -78 -17 -4 -18 2 -11
107 6 99 5 112 -10 117 -26 10 -32 -4 -50 -106 -13 -77 -20 -99 -40 -115 -23
-18 -25 -27 -26 -114 -1 -87 0 -96 21 -113 22 -17 22 -20 15 -193 -6 -127 -11
-175 -20 -175 -8 0 -14 -28 -18 -82 -6 -78 -5 -84 16 -100 22 -17 22 -18 20
-275 -3 -288 -9 -366 -26 -360 -15 4 -35 78 -36 130 -1 24 -7 40 -16 43 -11 5
-15 23 -16 73 -1 54 -2 60 -9 33 -9 -38 -17 -49 -27 -38 -7 7 -7 368 -1 775 2
116 0 155 -9 158 -9 3 -13 -8 -14 -34 0 -21 -6 -56 -14 -78 -12 -38 -13 -33
-14 83 -1 97 -4 122 -15 122 -8 0 -17 8 -20 17 -4 9 -9 133 -13 274 -6 235 -5
259 10 265 10 3 17 16 17 29 0 12 6 28 14 34 11 9 13 26 9 67 -4 37 -2 54 6
54 16 0 14 35 -4 50 -9 7 -13 21 -10 31 4 10 1 28 -6 41 -10 19 -9 24 10 36
16 11 21 25 21 61 0 44 22 264 36 365 10 66 -3 55 -51 -43 -34 -71 -59 -100
-72 -88 -2 3 3 57 12 121 19 146 19 176 1 176 -20 0 -33 -20 -41 -63 -7 -36
-21 -55 -31 -44 -9 9 16 193 53 382 19 99 37 209 40 245 5 57 3 67 -15 83 -11
11 -26 16 -32 12 -17 -11 -106 -198 -132 -276 -12 -38 -26 -69 -30 -69 -4 0
-8 5 -8 10 0 13 -46 13 -72 -1 -19 -10 -20 -9 -15 12 23 96 47 253 39 261 -11
11 -59 -6 -87 -31 -11 -10 -32 -21 -47 -25 -32 -7 -48 -51 -75 -204 -16 -91
-17 -93 -34 -71 -14 19 -22 21 -58 15 l-41 -6 5 37 c2 21 9 106 15 188 6 83
14 158 16 168 4 14 -1 17 -28 17 -18 0 -39 -4 -47 -9 -25 -16 -119 -383 -137
-533 -5 -39 -11 -58 -20 -58 -11 0 -14 -20 -14 -82 l-1 -83 -49 103 c-32 66
-54 102 -62 99 -7 -2 -12 -10 -11 -18 12 -92 34 -361 31 -384 -3 -27 -5 -24
-21 26 -14 46 -22 58 -42 63 -14 4 -28 13 -31 21 -5 11 -9 11 -18 2 -10 -9 -9
-22 5 -63 12 -34 19 -86 21 -158 1 -85 5 -109 18 -116 13 -8 13 -12 -2 -39
-15 -28 -15 -29 4 -34 17 -5 19 -11 14 -40 -4 -23 -2 -38 7 -45 7 -6 14 -36
15 -68 1 -39 7 -61 17 -66 11 -7 13 -22 9 -71 -12 -145 -16 -167 -28 -167 -16
0 -26 -72 -26 -185 0 -51 -5 -90 -15 -109 -10 -18 -15 -57 -15 -107 0 -43 -4
-81 -10 -84 -5 -3 -10 -17 -10 -29 0 -22 -3 -23 -47 -18 -27 2 -49 5 -50 6 -1
1 -9 82 -17 181 -9 99 -18 200 -20 225 -3 28 3 63 14 93 10 27 16 56 13 64 -4
11 -2 14 5 9 8 -5 10 -2 6 8 -3 9 -2 16 2 16 5 0 10 12 11 28 1 26 1 26 -18
-8 -10 -19 -18 -50 -19 -67 0 -30 -20 -49 -20 -20 -1 39 -20 141 -28 146 -5 3
-13 24 -18 46 -8 35 -13 40 -41 43 -30 3 -31 5 -38 60 -25 202 -167 632 -232
704 -19 21 -58 25 -50 4 3 -7 9 -34 12 -60 7 -42 6 -46 -14 -46 -24 0 -25 -3
-11 -50 9 -31 60 -325 74 -424 l5 -38 -47 7 c-26 4 -47 8 -48 8 0 1 -13 49
-29 107 -35 129 -58 185 -79 193 -30 12 -28 -18 8 -143 58 -198 45 -205 -29
-15 -49 124 -98 227 -123 258 -19 22 -34 22 -61 -1 -25 -20 -29 5 42 -264 l44
-168 -23 0 c-12 0 -30 7 -39 16 -9 9 -18 15 -20 12 -3 -3 28 -158 41 -200 3
-10 12 -18 19 -18 17 0 20 -13 35 -133 6 -48 13 -94 17 -103 4 -10 -2 -17 -16
-21 -29 -7 -26 -21 11 -60 28 -29 33 -43 43 -126 7 -51 16 -103 19 -115 6 -16
3 -22 -8 -22 -13 0 -16 -16 -16 -98 0 -54 -4 -102 -10 -108 -5 -5 -6 -35 -3
-67 6 -55 8 -59 42 -75 l36 -17 9 -129 c9 -121 8 -130 -10 -143 -22 -16 -21
-71 2 -89 8 -6 17 -33 20 -60 4 -29 14 -55 25 -64 16 -13 19 -38 26 -177 l8
-162 -32 -30 c-18 -17 -39 -31 -48 -31 -22 0 -22 -125 0 -134 30 -11 19 -80
-39 -241 -52 -144 -67 -174 -87 -180 -12 -4 -19 -16 -19 -30 0 -15 -10 -31
-23 -40 -16 -10 -33 -43 -51 -95 -16 -44 -31 -80 -35 -80 -7 0 -19 13 -80 83
-8 10 -15 30 -16 45 0 15 -4 29 -10 30 -37 13 -45 25 -45 62 0 32 -4 40 -18
40 -29 0 -25 -90 6 -122 12 -14 22 -28 22 -34 0 -32 25 -88 52 -114 l31 -32
-19 -61 c-18 -54 -23 -62 -52 -69 -28 -8 -32 -12 -32 -44 0 -21 -9 -47 -21
-62 -13 -17 -18 -34 -14 -49 5 -22 2 -23 -43 -23 -62 0 -87 -19 -107 -80 -12
-35 -22 -50 -34 -50 -11 0 -40 -29 -70 -70 -57 -77 -75 -90 -120 -90 -50 0
-61 -9 -61 -49 l0 -36 -54 -1 c-71 0 -86 -14 -86 -75 0 -34 -4 -47 -12 -44
-18 7 -35 -6 -40 -30 -2 -13 -10 -19 -23 -17 -11 2 -63 3 -115 2 -114 -2 -123
-8 -114 -85 4 -27 13 -59 20 -70 16 -22 19 -105 5 -105 -5 0 -15 13 -22 29 -7
16 -18 27 -25 24 -19 -7 -24 82 -24 414 0 194 4 322 11 339 5 16 30 49 54 75
75 80 78 158 9 230 -16 17 -22 29 -15 33 14 9 45 -8 69 -39 27 -34 32 -32 32
15 0 22 2 40 4 40 2 0 19 -6 37 -14 62 -25 77 1 33 53 -29 35 -27 37 23 16 41
-17 53 -19 53 -6 0 14 -67 53 -104 61 -30 7 -29 7 19 15 52 8 94 24 65 25 -8
0 -28 7 -45 16 -43 22 -82 11 -132 -38 -23 -23 -45 -39 -49 -35 -11 11 5 54
32 86 27 33 15 42 -20 16 -10 -8 -23 -12 -28 -9 -5 4 -20 -4 -34 -17 l-24 -22
6 484 c3 266 6 509 6 539 1 30 -2 79 -7 108 -9 58 -2 64 27 27 11 -14 28 -25
39 -25 15 0 19 7 19 33 0 18 -7 42 -15 53 -8 12 -11 24 -8 28 16 15 47 3 89
-36 43 -40 47 -41 59 -24 13 17 14 17 27 -3 15 -24 33 -29 24 -6 -6 18 26 37
48 29 40 -15 -10 47 -59 74 -19 11 -18 11 7 12 59 0 42 41 -28 65 l-39 13 38
18 c44 21 43 38 -1 42 -22 2 -50 -7 -86 -27 -58 -34 -66 -36 -66 -21 0 6 5 10
11 10 15 0 45 37 74 93 14 27 25 51 25 53 0 3 -15 -3 -32 -11 l-33 -16 28 25
c15 14 27 28 27 31 0 12 -19 3 -46 -22 -45 -43 -93 -73 -115 -73 -20 0 -20 4
-14 168 4 99 12 178 20 193 7 16 10 47 7 78 -4 45 -1 55 19 78 31 33 130 103
204 145 l58 33 28 145 c16 80 34 157 39 171 26 63 196 191 291 220 64 19 159
85 159 109 0 5 14 31 31 58 23 38 28 54 21 69 -5 10 -15 43 -22 73 -7 30 -19
66 -26 80 -12 22 -13 13 -8 -70 l7 -95 -42 -50 c-22 -27 -41 -53 -41 -57 0 -3
-24 -15 -52 -26 -58 -22 -170 -82 -232 -125 -22 -14 -41 -25 -42 -24 -1 1 6
34 16 72 11 39 19 82 19 97 1 45 11 58 65 85 64 33 47 41 -27 13 -58 -22 -69
-37 -81 -111 -4 -19 -22 -60 -40 -90 -19 -30 -62 -106 -95 -169 -35 -68 -77
-131 -101 -155 l-40 -39 4 29 c3 17 8 64 11 105 l6 75 -58 -60 -57 -60 -10 28
c-13 36 -22 34 -30 -5 -10 -52 -16 -26 -7 32 5 29 6 141 3 248 l-5 194 84 85
c46 47 107 102 134 123 63 49 100 84 149 140 21 25 80 88 131 140 50 52 107
118 125 145 19 28 58 73 89 101 l55 51 -2 61 c-2 41 3 72 13 92 18 34 69 70
100 70 12 0 16 3 9 10 -16 16 -85 -11 -126 -51 -36 -34 -38 -39 -38 -98 0 -56
-3 -66 -29 -92 -34 -33 -48 -36 -54 -11 -3 11 -5 9 -6 -8 -1 -14 -6 -32 -11
-40 -9 -13 -11 -13 -20 0 -10 13 -11 13 -8 0 5 -34 -49 -104 -194 -251 -254
-257 -314 -301 -289 -211 10 33 39 92 47 92 2 0 0 -9 -6 -21 -6 -11 -18 -39
-26 -61 -14 -40 -14 -41 4 -24 29 26 78 227 67 276 -6 27 -4 30 18 30 37 0 75
36 83 78 8 43 27 84 62 130 29 38 16 43 -19 6 l-24 -25 -7 28 c-5 15 -5 47 -2
71 7 45 -1 53 -22 25 -8 -11 -13 -46 -14 -90 0 -53 -6 -84 -21 -116 -22 -44
-22 -44 -103 -61 -44 -9 -92 -19 -105 -23 l-24 -6 6 74 c7 91 47 186 104 244
33 34 41 50 47 95 6 44 16 67 52 112 51 65 74 114 74 157 0 40 18 51 193 118
78 30 151 59 163 64 23 12 48 51 58 92 8 32 -9 37 -18 5 -8 -33 -47 -75 -76
-83 -24 -7 -24 -7 -9 11 18 22 44 83 37 89 -2 2 -29 -21 -58 -51 -41 -42 -82
-70 -163 -111 -60 -30 -111 -52 -114 -50 -2 3 -1 55 3 116 l7 111 1533 0 c844
0 1534 -2 1534 -4z m375 -68 c26 -40 77 -108 112 -150 35 -43 68 -92 74 -110
15 -55 10 -279 -17 -688 l-7 -105 -27 111 c-29 122 -32 131 -103 294 -28 63
-51 129 -52 146 -3 44 -9 50 -73 74 -67 25 -87 42 -113 91 -23 45 -65 215 -74
294 -3 33 -9 72 -11 88 l-6 27 125 0 124 0 48 -72z m1451 20 c15 -29 23 -54
18 -55 -22 -8 -34 -22 -71 -80 -21 -34 -57 -75 -79 -92 -47 -33 -120 -118
-111 -128 4 -3 29 14 56 38 27 24 67 57 91 72 23 15 49 42 58 59 9 17 27 42
38 56 20 25 22 25 31 6 6 -10 20 -66 32 -124 33 -155 99 -415 127 -499 14 -40
23 -75 21 -77 -2 -2 -45 5 -96 16 -107 24 -286 35 -351 22 l-45 -9 145 -71
c198 -97 359 -215 430 -317 44 -64 88 -176 101 -254 6 -40 8 -75 6 -78 -3 -2
-29 14 -59 38 -29 23 -76 53 -104 66 l-51 23 -84 -20 c-130 -31 -121 -36 -157
83 -29 96 -110 247 -132 247 -17 0 -19 -17 -6 -56 8 -21 22 -92 32 -157 15
-103 16 -120 3 -128 -12 -8 -111 -15 -164 -11 -83 5 -216 4 -242 -2 -31 -7
-38 -2 -180 134 -81 78 -164 153 -183 166 -22 14 -68 29 -124 38 -49 9 -94 20
-98 24 -5 5 -5 189 1 433 l11 424 -60 53 c-49 44 -128 140 -164 200 -6 9 130
12 663 12 l671 0 26 -52z m305 -3 c22 -64 30 -113 18 -120 -17 -11 -80 61
-104 118 l-23 58 46 -3 c45 -3 46 -4 63 -53z m474 -22 c33 -42 70 -92 82 -112
27 -43 31 -112 7 -135 -48 -49 -186 15 -336 155 -39 37 -65 72 -82 112 l-25
57 147 -1 147 0 60 -76z m620 45 c-3 -18 -7 -68 -11 -111 -4 -61 -10 -82 -27
-97 -29 -28 -43 -25 -57 11 -7 16 -40 59 -74 94 -34 34 -75 79 -93 99 l-31 36
148 0 149 0 -4 -32z m891 25 c-66 -3 -81 -7 -97 -26 l-19 -22 11 28 c12 27 13
27 98 25 l86 -2 -79 -3z m114 -3 c0 -5 -2 -10 -4 -10 -3 0 -8 5 -11 10 -3 6
-1 10 4 10 6 0 11 -4 11 -10z m141 -31 c-5 -13 -10 -19 -10 -12 -1 15 10 45
15 40 3 -2 0 -15 -5 -28z m-8551 7 c0 -2 -7 -7 -16 -10 -8 -3 -12 -2 -9 4 6
10 25 14 25 6z m40 -6 c0 -5 -2 -10 -4 -10 -3 0 -8 5 -11 10 -3 6 -1 10 4 10
6 0 11 -4 11 -10z m50 6 c0 -2 -9 -6 -20 -9 -11 -3 -18 -1 -14 4 5 9 34 13 34
5z m7091 -119 c27 -54 88 -117 114 -117 19 0 23 -10 39 -101 13 -70 17 -124
13 -173 -7 -74 -23 -136 -37 -136 -13 0 -36 59 -89 227 -40 128 -103 393 -101
422 1 3 10 -14 22 -39 11 -25 29 -62 39 -83z m-7167 78 c-4 -8 -8 -15 -10 -15
-2 0 -4 7 -4 15 0 8 4 15 10 15 5 0 7 -7 4 -15z m163 -57 c5 -35 5 -66 0 -69
-4 -3 -3 -48 3 -100 6 -53 8 -139 4 -195 -7 -102 5 -192 30 -223 11 -14 -93
50 -127 78 -12 10 -17 26 -15 48 1 18 -4 38 -11 45 -11 11 -13 9 -8 -10 4 -15
1 -22 -6 -19 -8 2 -12 48 -13 148 -2 162 0 176 22 176 8 0 13 -6 10 -14 -3 -7
-1 -13 5 -13 13 0 31 50 24 68 -3 10 0 12 10 8 8 -3 15 -1 15 5 0 6 5 7 10 4
6 -3 10 -2 10 4 0 5 -6 12 -12 15 -10 5 -10 7 0 12 6 3 12 12 12 20 0 8 5 14
11 14 7 0 9 -10 5 -26 -5 -18 -3 -24 5 -19 7 5 8 19 4 39 -3 17 -8 39 -10 49
-2 9 0 17 5 17 4 0 12 -28 17 -62z m8360 25 c-3 -10 -5 -4 -5 12 0 17 2 24 5
18 2 -7 2 -21 0 -30z m-8394 13 c3 -8 0 -17 -7 -19 -10 -4 -12 1 -9 14 6 23 9
24 16 5z m-589 -35 c-11 -22 -15 -52 -12 -101 2 -39 0 -70 -4 -70 -5 0 -9 12
-10 28 0 15 -2 43 -3 62 -1 34 30 128 40 118 3 -3 -2 -19 -11 -37z m436 -26
c0 -5 -5 -3 -10 5 -5 8 -10 20 -10 25 0 6 5 3 10 -5 5 -8 10 -19 10 -25z m80
25 c0 -5 -6 -10 -12 -11 -7 0 -3 -5 10 -11 12 -6 22 -15 22 -20 0 -5 -11 -1
-24 8 -15 9 -22 21 -19 30 6 16 23 19 23 4z m8457 -22 c-3 -8 -6 -5 -6 6 -1
11 2 17 5 13 3 -3 4 -12 1 -19z m104 -91 c-10 -9 -11 -8 -5 6 3 10 9 15 12 12
3 -3 0 -11 -7 -18z m-8377 -89 c-3 -4 -1 -8 4 -8 6 0 12 -7 16 -15 3 -8 2 -15
-2 -15 -5 0 -20 24 -35 53 -27 51 -27 52 -3 23 14 -17 23 -33 20 -38z m-488
27 c-3 -8 -2 -15 3 -15 12 0 0 -94 -13 -102 -6 -4 -13 -5 -15 -2 -3 3 0 9 8
13 8 5 12 25 11 52 -2 57 -1 69 6 69 3 0 4 -7 0 -15z m8354 -38 c0 -16 -18 3
-23 25 -6 22 -5 22 8 4 8 -11 15 -24 15 -29z m477 1 c-3 -8 -6 -5 -6 6 -1 11
2 17 5 13 3 -3 4 -12 1 -19z m-9070 -25 c-3 -10 -5 -4 -5 12 0 17 2 24 5 18 2
-7 2 -21 0 -30z m9056 -8 c-3 -9 -8 -14 -10 -11 -3 3 -2 9 2 15 9 16 15 13 8
-4z m-8294 -47 c0 -41 -37 -152 -38 -117 -1 9 6 33 14 52 18 44 19 94 3 100
-8 3 -6 6 5 6 14 1 17 -7 16 -41z m8267 -32 c-20 -52 -60 -131 -51 -101 3 11
18 50 33 87 29 73 45 85 18 14z m-9039 -8 c-3 -8 -6 -5 -6 6 -1 11 2 17 5 13
3 -3 4 -12 1 -19z m251 -12 c-7 -8 -15 -12 -17 -11 -5 6 10 25 20 25 5 0 4 -6
-3 -14z m-251 -43 c-3 -10 -5 -4 -5 12 0 17 2 24 5 18 2 -7 2 -21 0 -30z
m8846 22 c-3 -9 -8 -14 -10 -11 -3 3 -2 9 2 15 9 16 15 13 8 -4z m-8633 -95
c-51 -78 -79 -110 -44 -51 16 27 16 30 0 52 -9 13 -16 28 -16 34 0 5 4 4 9 -4
8 -12 12 -12 26 2 23 24 32 21 10 -3 -10 -11 -15 -23 -12 -27 9 -8 43 31 59
68 7 16 15 24 16 19 2 -6 -20 -47 -48 -90z m8237 53 c0 -10 -5 -21 -11 -25 -8
-6 -7 -8 1 -8 7 0 16 6 20 14 7 12 12 10 32 -10 23 -24 16 -35 -8 -11 -10 10
-14 8 -23 -7 -8 -15 -12 -16 -20 -5 -6 10 -7 7 -3 -10 4 -13 3 -21 -1 -18 -13
8 -10 -79 3 -95 7 -7 10 -31 9 -53 -3 -35 -2 -37 10 -20 13 18 17 36 16 80 -1
19 0 19 5 1 4 -15 7 -16 14 -5 6 10 8 8 6 -9 0 -12 -4 -22 -8 -22 -12 0 -19
-44 -9 -55 12 -14 3 -25 -15 -19 -7 3 -16 0 -20 -6 -5 -8 -11 -8 -21 1 -19 15
-18 4 1 -15 13 -13 19 -13 42 -1 18 10 31 11 37 5 13 -13 29 -13 21 -1 -3 5 0
13 6 17 8 4 9 3 5 -4 -4 -7 -1 -12 6 -12 11 0 11 -2 0 -8 -8 -6 -1 -9 20 -9
18 0 27 2 20 5 -6 2 -10 8 -7 13 4 5 -1 6 -9 3 -20 -8 -20 3 -1 22 8 9 15 11
15 6 0 -6 15 5 34 23 23 22 33 40 30 52 -4 13 0 20 10 20 9 0 16 -4 16 -9 0
-4 7 -8 15 -8 8 0 15 5 15 11 0 5 -5 7 -10 4 -6 -3 -13 1 -16 10 -4 9 -14 15
-23 14 -26 -2 -33 0 -26 10 10 17 110 -23 113 -45 5 -32 -40 -87 -96 -119 -30
-16 -86 -53 -125 -80 -70 -49 -72 -51 -81 -105 -14 -90 -64 -138 -115 -110
-24 13 -27 62 -11 170 23 150 112 440 135 440 1 0 2 -8 2 -17z m1037 1 c3 -8
2 -12 -4 -9 -6 3 -10 10 -10 16 0 14 7 11 14 -7z m-8629 -47 c16 -28 31 -55
32 -60 1 -4 -1 -3 -4 3 -9 18 -26 11 -20 -9 2 -10 1 -54 -4 -97 -11 -100 -19
-198 -28 -324 -2 -24 -2 -24 -16 7 -7 18 -21 80 -30 139 -13 83 -15 119 -7
163 6 31 16 95 22 144 7 48 15 87 19 87 3 0 19 -24 36 -53z m7862 28 c0 -8 -4
-12 -9 -9 -5 3 -6 10 -3 15 9 13 12 11 12 -6z m-7990 -27 c-3 -8 -6 -5 -6 6
-1 11 2 17 5 13 3 -3 4 -12 1 -19z m6298 -61 c33 -25 73 -59 89 -76 17 -17 34
-31 39 -31 5 0 8 35 6 79 l-4 79 27 -19 c59 -43 157 -147 181 -194 27 -55 79
-216 72 -223 -6 -6 -94 82 -122 123 -34 49 -38 22 -9 -80 14 -52 26 -98 26
-103 0 -5 -27 -21 -60 -37 -32 -15 -57 -31 -55 -35 3 -4 27 -10 53 -12 36 -4
70 -18 126 -52 42 -27 79 -52 81 -57 3 -4 1 -16 -6 -26 -8 -14 -6 -38 9 -103
12 -51 17 -89 11 -96 -4 -6 -31 -21 -58 -35 -28 -13 -50 -27 -51 -30 0 -6 29
-11 168 -25 80 -8 85 -19 80 -166 -4 -115 -13 -138 -71 -182 -26 -19 -28 -19
-84 -2 -89 28 -190 85 -222 125 -62 78 -97 175 -185 507 -25 94 -73 254 -107
355 -58 171 -63 192 -67 292 l-4 109 39 -20 c21 -11 65 -40 98 -65z m-7028 26
c-3 -10 -5 -2 -5 17 0 19 2 27 5 18 2 -10 2 -26 0 -35z m8730 15 c-3 -8 -6 -5
-6 6 -1 11 2 17 5 13 3 -3 4 -12 1 -19z m250 -12 c-1 -20 -6 -31 -11 -26 -8 8
-1 60 8 60 3 0 4 -15 3 -34z m-492 14 c3 -5 -1 -10 -9 -10 -9 0 -16 5 -16 10
0 6 4 10 9 10 6 0 13 -4 16 -10z m-15 -57 c-1 -24 -26 -57 -34 -44 -4 5 -2 12
4 16 5 3 10 15 10 26 0 10 5 19 10 19 6 0 10 -8 10 -17z m-8473 -15 c-3 -8 -6
-5 -6 6 -1 11 2 17 5 13 3 -3 4 -12 1 -19z m1012 -168 c9 -28 9 -80 -4 -250
-20 -266 -24 -300 -36 -300 -22 0 -118 172 -123 221 -2 19 -1 25 1 14 6 -26
23 -44 24 -24 0 7 4 4 9 -9 5 -12 6 -30 3 -39 -6 -15 -5 -16 9 -3 8 8 13 24
10 35 -3 11 -1 16 4 12 5 -5 10 -17 10 -28 3 -34 4 -39 12 -39 14 0 15 27 6
115 -4 45 -3 56 6 45 8 -12 10 -4 9 35 -1 28 2 61 8 75 7 16 8 45 3 75 -4 28
-11 77 -15 110 -3 33 -15 75 -26 93 -10 18 -19 36 -19 40 1 14 97 -144 109
-178z m7597 149 c1 -5 2 -14 3 -20 0 -5 6 -7 11 -4 6 3 10 4 10 1 0 -16 -22
-13 -39 6 -16 16 -18 24 -9 29 13 8 22 4 24 -12z m-8474 -96 c-3 -83 -7 -103
-27 -133 -31 -47 -130 -150 -122 -127 4 10 8 91 9 180 0 89 4 146 8 127 3 -19
5 -61 4 -93 -2 -51 0 -58 14 -52 9 3 13 3 10 -1 -10 -10 11 -46 23 -39 5 4 9
15 9 26 0 13 4 18 13 13 9 -5 9 -4 1 5 -16 17 -6 49 17 56 15 5 19 17 21 53 0
26 2 52 3 57 2 6 3 13 4 18 0 4 4 7 9 7 4 0 6 -44 4 -97z m466 50 c18 -13 29
-29 26 -35 -4 -6 -3 -8 3 -5 37 23 77 -140 94 -383 12 -165 12 -162 1 -230
-10 -60 -29 -116 -38 -107 -11 11 -33 164 -34 232 0 68 -20 202 -35 238 -15
37 -21 14 -12 -45 14 -89 14 -205 -1 -220 -20 -20 -33 3 -58 101 -24 96 -22
117 22 249 20 61 17 169 -7 210 -20 35 -15 34 39 -5z m-1436 -25 c-7 -7 -12
-8 -12 -2 0 14 12 26 19 19 2 -3 -1 -11 -7 -17z m9833 -42 c2 -20 0 -38 -4
-40 -4 -3 -8 16 -10 42 -3 54 9 52 14 -2z m-9812 19 c4 -8 2 -17 -3 -20 -6 -4
-10 3 -10 14 0 25 6 27 13 6z m9337 5 c0 -5 -7 -10 -16 -10 -8 0 -12 5 -9 10
3 6 10 10 16 10 5 0 9 -4 9 -10z m40 -5 c0 -8 -7 -15 -15 -15 -26 0 -18 20 13
29 1 1 2 -6 2 -14z m-9333 -67 c-3 -8 -6 -5 -6 6 -1 11 2 17 5 13 3 -3 4 -12
1 -19z m9626 -147 c4 -4 0 -16 -8 -27 -12 -16 -14 -17 -15 -2 0 9 3 18 8 21 4
2 2 3 -3 2 -6 -2 -16 4 -24 12 -12 13 -11 14 10 8 13 -4 27 -10 32 -14z
m-4723 -18 c0 -23 -17 -49 -26 -41 -9 10 4 58 16 58 6 0 10 -8 10 -17z m4690
-13 c0 -10 5 -22 10 -25 6 -3 10 -16 10 -28 0 -16 -6 -9 -20 22 -22 48 -25 65
-10 56 6 -3 10 -15 10 -25z m-7380 -37 c0 -55 -31 -125 -85 -191 -21 -26 -35
-55 -35 -71 0 -31 -28 -121 -42 -136 -7 -6 -8 46 -3 150 9 214 12 256 18 262
12 11 84 32 115 33 32 0 32 0 32 -47z m8057 -215 c-1 -51 -3 -12 -3 87 0 99 2
141 3 93 2 -48 2 -129 0 -180z m-593 149 c30 -88 29 -87 16 -87 -5 0 -10 10
-10 23 0 14 -3 18 -8 10 -6 -9 -13 -4 -26 17 -19 32 -12 41 10 13 12 -17 13
-17 14 -1 0 9 -4 20 -10 23 -5 3 -10 16 -10 28 -1 21 -1 21 -16 -3 l-15 -25 8
25 c4 14 6 39 5 55 -2 41 9 20 42 -78z m-207 -57 c-1 -11 -5 -20 -9 -20 -4 0
-5 -15 -3 -32 4 -27 3 -28 -3 -8 -9 29 -24 13 -16 -18 4 -12 11 -19 20 -15 8
3 14 1 14 -4 0 -5 -9 -9 -20 -10 -13 -1 -20 4 -20 15 0 13 -2 14 -9 3 -6 -9
-8 -5 -8 13 0 14 3 26 8 26 5 0 9 9 9 20 0 11 5 20 10 20 6 0 10 5 10 10 0 18
-18 11 -25 -10 -3 -11 -14 -27 -22 -36 -14 -13 -15 -22 -6 -45 6 -16 7 -29 2
-29 -5 0 -9 8 -9 18 0 14 -2 15 -10 2 -5 -8 -7 -26 -4 -40 5 -20 3 -22 -6 -10
-10 12 -11 11 -7 -8 3 -13 1 -20 -5 -16 -7 4 -8 -6 -4 -27 4 -25 4 -29 -3 -14
-9 18 -10 18 -10 2 -1 -11 8 -21 19 -24 11 -3 17 -9 14 -14 -3 -5 8 -17 25
-27 17 -9 31 -21 31 -25 0 -10 -43 20 -82 56 -26 24 -26 26 -13 73 29 109 78
194 112 194 16 0 21 -6 20 -20z m59 -17 c-7 -7 -26 7 -26 19 0 6 6 6 15 -2 9
-7 13 -15 11 -17z m-22 -49 c-3 -41 -9 -51 -17 -29 -4 8 -2 15 3 15 5 0 7 7 4
15 -4 8 -10 13 -14 10 -5 -3 -6 4 -3 14 9 33 30 13 27 -25z m336 24 c0 -6 -6
-5 -15 2 -8 7 -15 14 -15 16 0 2 7 1 15 -2 8 -4 15 -11 15 -16z m-313 -10 c-3
-8 -6 -5 -6 6 -1 11 2 17 5 13 3 -3 4 -12 1 -19z m578 -48 c22 -42 19 -60 -20
-109 -19 -24 -35 -49 -35 -54 0 -6 -15 3 -32 20 -18 17 -42 35 -53 41 -19 11
-19 11 3 12 12 0 22 -4 22 -9 0 -15 35 -19 48 -4 19 20 37 16 21 -4 -13 -16
-12 -17 4 -4 13 10 14 17 7 26 -8 9 -8 15 0 20 6 3 8 11 4 16 -3 5 0 16 6 24
7 8 10 24 7 35 -7 29 0 25 18 -10z m-556 -25 l0 -20 -9 20 c-5 11 -9 27 -9 35
-1 13 0 13 9 0 5 -8 9 -24 9 -35z m618 -27 c-3 -7 -5 -2 -5 12 0 14 2 19 5 13
2 -7 2 -19 0 -25z m-687 12 c0 -5 -7 -7 -15 -4 -8 4 -15 8 -15 10 0 2 7 4 15
4 8 0 15 -4 15 -10z m1310 -4 c0 -2 -8 -10 -17 -17 -16 -13 -17 -12 -4 4 13
16 21 21 21 13z m-1230 -26 c0 -11 -4 -20 -9 -20 -5 0 -7 9 -4 20 3 11 7 20 9
20 2 0 4 -9 4 -20z m-7429 -17 c-8 -15 -10 -15 -11 -2 0 17 10 32 18 25 2 -3
-1 -13 -7 -23z m-607 1 c3 -8 2 -12 -4 -9 -6 3 -10 10 -10 16 0 14 7 11 14 -7z
m8755 -183 c1 -74 -1 -132 -3 -130 -2 2 -7 74 -10 159 -3 93 -2 145 3 130 5
-14 9 -85 10 -159z m-139 155 c0 -2 -8 -10 -17 -17 -16 -13 -17 -12 -4 4 13
16 21 21 21 13z m-8529 -112 c53 -111 74 -313 49 -484 -5 -36 -10 -82 -12
-102 -1 -21 -5 -38 -9 -38 -4 0 -18 17 -30 37 -13 20 -42 58 -65 84 -36 41
-43 57 -49 106 -4 32 -16 105 -26 163 l-19 105 36 52 c39 57 63 113 64 153 1
25 1 25 16 5 9 -11 29 -47 45 -81z m7969 50 c-9 -22 9 -52 23 -38 8 8 19 -34
12 -46 -7 -11 -24 8 -59 64 -17 27 -17 29 -1 22 12 -4 16 -2 12 7 -3 8 1 14 8
14 10 0 11 -7 5 -23z m-4931 -15 c-13 -26 -23 -18 -14 10 3 12 11 19 16 16 5
-4 5 -14 -2 -26z m5118 -26 c-3 -10 -5 -4 -5 12 0 17 2 24 5 18 2 -7 2 -21 0
-30z m261 -41 c11 -26 22 -59 26 -74 6 -24 3 -28 -16 -27 -13 0 -17 3 -10 6 9
3 11 16 6 41 -8 47 -20 70 -53 106 l-26 29 26 -17 c15 -9 36 -38 47 -64z m82
63 c0 -8 -2 -15 -4 -15 -2 0 -6 7 -10 15 -3 8 -1 15 4 15 6 0 10 -7 10 -15z
m-570 -16 c0 -6 -4 -7 -10 -4 -5 3 -10 11 -10 16 0 6 5 7 10 4 6 -3 10 -11 10
-16z m-131 -2 c-2 -2 -35 -32 -74 -67 l-70 -64 65 67 c35 37 69 67 74 67 5 0
7 -1 5 -3z m741 -40 c11 3 12 2 3 -4 -7 -5 -10 -19 -6 -33 6 -22 7 -23 15 -4
8 17 8 17 4 -3 -2 -12 0 -24 5 -27 5 -2 4 -3 -3 -2 -15 3 -43 49 -52 86 -7 24
-6 24 6 4 7 -12 20 -19 28 -17z m-561 -122 c-1 -27 -4 -61 -8 -75 -7 -25 -7
-25 -13 -2 -3 12 -2 22 3 22 15 0 10 93 -6 124 -22 42 -17 57 5 16 12 -22 19
-54 19 -85z m646 47 c-3 -3 -11 0 -18 7 -9 10 -8 11 6 5 10 -3 15 -9 12 -12z
m-744 -9 c13 -16 12 -17 -3 -4 -17 13 -22 21 -14 21 2 0 10 -8 17 -17z m228
-13 c-6 -16 -15 -30 -20 -30 -5 0 -3 14 6 30 9 17 17 30 20 30 2 0 -1 -13 -6
-30z m-245 -16 c3 -8 2 -12 -4 -9 -6 3 -10 10 -10 16 0 14 7 11 14 -7z m56 -5
c0 -6 -4 -7 -10 -4 -5 3 -10 11 -10 16 0 6 5 7 10 4 6 -3 10 -11 10 -16z m721
4 c13 -17 13 -17 -6 -3 -11 8 -22 16 -24 17 -2 2 0 3 6 3 6 0 17 -8 24 -17z
m-909 -70 c34 -36 58 -81 93 -171 20 -55 42 -89 85 -135 66 -71 90 -120 90
-184 0 -43 1 -45 48 -65 26 -12 80 -39 120 -62 71 -39 73 -42 88 -96 8 -30 24
-75 36 -100 12 -25 24 -64 28 -87 l7 -42 -38 27 c-21 15 -34 28 -29 30 5 2 6
10 3 18 -3 8 0 21 7 30 11 12 11 17 0 27 -10 10 -12 9 -7 -5 4 -12 1 -18 -8
-18 -8 0 -14 -5 -12 -12 1 -6 -7 -14 -18 -16 -44 -9 -39 -23 41 -100 83 -80
115 -136 129 -229 6 -44 -9 -19 -20 31 -5 24 -8 27 -17 15 -8 -11 -9 -10 -4 5
7 21 -13 96 -26 96 -11 0 -10 -17 2 -25 6 -3 10 -18 10 -33 -1 -26 -1 -26 -15
6 -14 33 -75 99 -75 82 0 -5 5 -12 12 -16 8 -5 6 -10 -8 -16 -17 -7 -16 -8 4
-4 12 2 22 0 22 -6 0 -5 4 -6 10 -3 14 9 22 -37 11 -65 l-10 -25 -7 22 c-3 13
-10 20 -15 17 -5 -3 -9 2 -9 10 0 9 -7 16 -16 16 -8 0 -13 -4 -10 -9 8 -12 24
-55 24 -64 0 -4 7 -18 15 -30 16 -24 13 -87 -4 -97 -5 -4 -11 -17 -12 -28 -1
-13 -8 -22 -18 -22 -17 0 -42 23 -34 32 3 2 -2 5 -10 5 -8 0 -12 -4 -9 -8 2
-4 0 -10 -5 -14 -6 -3 -8 -12 -4 -20 3 -8 2 -23 -3 -32 -4 -10 -8 -21 -8 -25
-3 -25 -13 -10 -15 24 -1 24 -4 44 -7 47 -3 4 -9 -450 -6 -499 0 -8 2 -47 3
-85 3 -60 6 -71 21 -71 10 0 18 4 18 8 0 4 7 4 17 1 11 -4 14 -3 9 6 -4 6 -16
9 -27 6 -11 -4 -19 -2 -19 4 0 6 5 11 11 11 6 0 9 7 5 15 -4 10 1 15 16 15 15
0 18 -3 10 -13 -8 -10 -6 -16 10 -26 20 -12 20 -13 -13 -47 -18 -19 -30 -34
-25 -34 4 0 19 14 33 30 13 17 31 30 38 30 8 0 17 5 21 11 4 8 -1 9 -16 4 -17
-5 -21 -4 -15 5 6 9 4 11 -6 5 -12 -8 -12 -6 0 8 9 11 10 17 2 17 -6 0 -10 3
-10 8 1 4 1 14 0 22 -1 11 -3 12 -9 3 -5 -7 -13 -9 -21 -4 -10 7 -8 10 8 16
13 4 23 5 24 3 1 -1 9 -16 17 -32 8 -16 19 -28 24 -27 17 5 26 -27 16 -54 -9
-24 -8 -26 7 -20 33 14 73 18 73 6 0 -6 -15 -11 -34 -11 -19 0 -38 -4 -41 -10
-3 -5 -13 -10 -21 -10 -10 0 -13 7 -8 25 8 32 2 32 -41 -6 -34 -30 -36 -31
-60 -15 -26 17 -100 22 -110 7 -3 -5 3 -11 12 -14 14 -3 11 -6 -9 -11 -35 -10
-35 -19 -1 -35 l26 -12 -21 -21 c-20 -21 -21 -21 -49 -3 -23 16 -26 16 -14 2
7 -9 11 -23 8 -32 -4 -8 -2 -17 3 -20 6 -4 10 4 10 16 l0 22 23 -24 c27 -27
19 -62 -11 -53 -12 4 -13 3 -4 -3 10 -7 10 -16 2 -38 -9 -23 -8 -31 6 -44 9
-9 14 -10 10 -3 -10 17 4 15 28 -6 20 -17 20 -17 0 10 -14 19 -22 23 -31 16
-9 -7 -13 -7 -13 0 0 9 43 42 55 42 3 0 3 -12 -1 -27 -6 -27 -4 -26 30 12 l35
40 1 -42 c0 -23 5 -45 10 -48 6 -3 10 4 10 17 0 13 4 29 8 36 11 17 42 4 42
-18 0 -29 30 -91 40 -85 6 3 10 11 10 17 0 5 9 21 20 35 l20 26 0 -34 c0 -26
-3 -30 -10 -19 -8 13 -10 12 -10 -2 0 -10 5 -18 11 -18 7 0 9 -10 5 -27 -4
-16 -9 -54 -11 -86 -2 -31 -7 -62 -10 -67 -3 -6 -1 -10 5 -10 6 0 13 14 17 30
7 39 40 60 45 29 l3 -21 25 21 24 22 18 -33 c9 -18 17 -40 17 -48 0 -8 -8 2
-17 23 -20 44 -28 46 -35 10 -3 -16 -19 -95 -35 -178 -16 -82 -34 -168 -40
-190 -9 -34 -17 -84 -37 -229 -2 -16 -10 -33 -17 -38 -10 -8 -10 -11 0 -15 6
-2 12 -9 12 -14 0 -6 -5 -7 -12 -3 -7 5 -8 3 -3 -6 4 -7 2 -16 -6 -20 -20 -13
-30 -1 -18 21 6 12 8 23 5 26 -8 8 -38 -66 -31 -77 3 -5 1 -11 -5 -15 -6 -4
-10 5 -10 19 0 14 -5 26 -11 26 -6 0 -9 -7 -6 -15 4 -8 2 -17 -4 -20 -5 -4 -6
-12 -3 -18 4 -7 3 -9 -1 -4 -8 7 -15 54 -16 100 0 10 -8 17 -20 17 -13 0 -19
7 -19 23 0 18 -2 19 -10 7 -7 -11 -10 -11 -10 -2 0 22 -20 2 -21 -21 0 -21 -1
-21 -10 2 -14 37 -23 17 -9 -23 12 -37 10 -150 -2 -138 -8 8 -65 399 -74 515
l-7 78 44 45 c47 48 38 62 -10 15 -17 -17 -33 -26 -35 -22 -7 10 41 85 83 130
17 19 31 36 31 37 0 6 -80 -26 -103 -41 -24 -15 -26 -15 -41 7 -26 36 -65 170
-98 336 l-30 154 23 16 c13 10 55 36 93 59 104 61 114 70 96 82 -8 5 -37 13
-65 16 -27 4 -81 19 -119 34 l-68 26 5 58 c6 71 37 122 107 174 27 21 49 43
49 49 1 15 -102 60 -167 75 -45 9 -52 14 -52 34 0 22 -23 174 -80 520 -33 203
-73 516 -66 522 3 4 12 1 18 -5 9 -9 9 -12 0 -12 -8 0 -7 -12 4 -42 24 -69 42
-184 49 -313 7 -124 24 -263 50 -398 8 -43 15 -92 15 -108 0 -17 4 -28 9 -25
5 3 11 -5 13 -19 3 -13 0 -26 -6 -29 -6 -2 -3 -5 7 -5 9 -1 17 -6 17 -12 0 -5
-4 -8 -8 -5 -5 3 -9 -1 -9 -9 0 -10 5 -11 18 -5 14 8 16 6 12 -11 -7 -24 17
-45 29 -26 5 8 8 6 8 -6 0 -12 6 -17 18 -15 9 2 16 10 14 17 -1 7 2 10 8 6 6
-3 8 -10 5 -15 -3 -5 4 -14 16 -20 17 -10 20 -9 14 1 -5 7 -9 51 -11 98 -1 47
-7 169 -13 271 -6 102 -13 230 -16 285 -11 191 -21 287 -41 390 -40 201 -105
412 -133 430 -10 6 -64 -53 -85 -93 -9 -18 -11 -33 -5 -43 5 -8 9 -18 8 -24 0
-5 -7 2 -15 18 -18 33 -9 54 48 113 l40 41 36 -17 c20 -10 49 -31 64 -47z
m692 38 c-2 -3 -12 3 -22 13 -16 17 -16 18 5 5 12 -7 20 -15 17 -18z m-480 -7
c3 -8 2 -12 -4 -9 -6 3 -10 10 -10 16 0 14 7 11 14 -7z m131 5 c-4 -6 -9 -25
-11 -42 -5 -54 -10 -71 -21 -92 -10 -17 -11 -12 -8 25 l4 45 -11 -42 c-12 -48
-4 -88 13 -63 8 11 9 4 5 -25 -3 -22 -2 -44 2 -50 10 -14 32 -17 32 -5 0 6 -7
10 -16 10 -12 0 -15 6 -10 23 3 12 6 35 6 50 0 18 4 26 11 21 8 -4 9 0 4 15
-4 14 -2 21 6 21 7 0 9 -3 6 -6 -3 -4 -1 -16 5 -28 7 -11 11 -25 10 -30 -2 -4
3 -15 10 -24 11 -13 10 -15 -4 -9 -10 3 -20 2 -24 -4 -3 -6 4 -13 16 -16 16
-4 18 -8 8 -14 -9 -6 -7 -9 10 -9 15 0 22 -6 22 -20 0 -11 5 -20 11 -20 5 0 8
4 5 9 -4 5 3 7 13 4 20 -5 31 -28 36 -78 2 -16 6 -41 8 -55 3 -14 6 -29 6 -34
1 -6 7 -1 15 10 10 13 11 23 4 31 -5 7 -7 17 -3 23 3 5 0 10 -8 10 -10 0 -13
8 -9 26 3 17 7 22 12 13 6 -8 9 -6 13 7 2 10 5 2 6 -19 2 -55 21 -36 21 21 0
26 4 52 8 59 4 6 5 -36 4 -94 -3 -90 -1 -114 18 -167 13 -33 30 -66 39 -73 9
-7 12 -12 6 -13 -15 0 -77 40 -109 71 -15 15 -52 38 -82 51 -30 13 -54 27 -54
32 0 5 -21 52 -46 105 -39 80 -47 106 -47 156 -1 74 23 201 35 183 6 -10 11
-9 19 5 5 9 12 17 15 17 3 0 2 -5 -1 -11z m493 -78 c69 -57 81 -84 76 -171 -2
-47 0 -64 4 -45 10 37 22 -133 22 -298 l0 -110 -30 34 c-60 67 -124 173 -127
207 -2 31 10 69 26 82 17 14 61 80 61 92 0 8 5 19 11 25 17 17 17 47 0 60 -13
9 -14 14 -3 24 14 15 16 43 2 34 -5 -3 -10 1 -10 9 0 19 -60 63 -61 44 -1 -7
-1 -16 0 -20 0 -5 -3 -8 -9 -8 -13 0 -13 27 0 35 14 9 1 27 -13 19 -7 -4 -9
-4 -5 1 4 4 2 15 -5 23 -17 23 7 7 61 -37z m-170 -16 c-3 -3 -9 2 -12 12 -6
14 -5 15 5 6 7 -7 10 -15 7 -18z m140 -60 c-3 -3 -9 2 -12 12 -6 14 -5 15 5 6
7 -7 10 -15 7 -18z m-949 -99 c-1 -25 -3 -20 -14 24 -18 71 -18 83 0 41 8 -18
15 -47 14 -65z m938 52 c-3 -7 -5 -2 -5 12 0 14 2 19 5 13 2 -7 2 -19 0 -25z
m-357 -39 c-7 -11 -14 -18 -17 -15 -3 3 0 12 7 21 18 21 23 19 10 -6z m-5238
-272 c-2 -5 -8 -5 -13 0 -4 4 -5 69 -1 143 l7 135 5 -135 c3 -74 4 -139 2
-143z m177 146 c1 -92 -11 -130 -23 -72 -8 42 -8 163 1 185 12 32 22 -14 22
-113z m5448 111 c-3 -3 -12 -4 -19 -1 -8 3 -5 6 6 6 11 1 17 -2 13 -5z m-325
-46 c-6 -6 -7 0 -4 19 5 21 7 23 10 9 2 -10 0 -22 -6 -28z m-622 -62 c5 -21 5
-34 0 -30 -5 5 -11 32 -14 59 -5 50 -1 42 14 -29z m-4403 -138 c-2 -13 -4 -5
-4 17 -1 22 1 32 4 23 2 -10 2 -28 0 -40z m-119 -115 c2 -55 -1 -74 -13 -87
-26 -26 -32 -19 -38 44 -7 59 -3 83 16 108 20 26 32 4 35 -65z m6039 -45 c-3
-8 -6 -5 -6 6 -1 11 2 17 5 13 3 -3 4 -12 1 -19z m-617 -21 c0 -8 9 -22 20
-32 11 -10 20 -13 20 -7 0 6 -7 15 -16 20 -9 5 -15 14 -13 21 4 10 21 -2 121
-84 9 -7 19 -11 22 -8 3 4 6 -62 6 -145 0 -145 -1 -152 -20 -152 -11 0 -29 9
-39 19 -24 24 -31 18 -31 -28 0 -35 0 -35 -19 -16 -32 33 -87 145 -115 235
-15 47 -36 100 -47 118 -10 18 -19 39 -19 45 0 7 8 -2 16 -20 17 -35 45 -53
37 -24 -2 10 7 28 23 44 29 29 54 35 54 14z m-5644 -45 c-12 -11 -18 7 -10 30
l8 23 4 -23 c2 -13 1 -26 -2 -30z m-3236 -2 c0 -8 21 -51 48 -94 l47 -79 -45
-91 c-25 -50 -61 -115 -79 -143 l-34 -53 -80 0 c-44 0 -78 2 -76 4 2 3 27 30
54 62 28 31 68 74 89 95 l40 38 -17 98 c-18 105 -14 148 19 185 18 20 33 10
34 -22z m3440 -100 c0 -64 -3 -80 -15 -80 -12 0 -15 16 -15 80 0 64 3 80 15
80 12 0 15 -16 15 -80z m-5800 -120 c0 -13 -1 -13 -10 0 -5 8 -10 22 -10 30 0
13 1 13 10 0 5 -8 10 -22 10 -30z m1187 -72 c-3 -7 -5 -2 -5 12 0 14 2 19 5
13 2 -7 2 -19 0 -25z m3545 -72 c2 -47 -1 -71 -9 -73 -13 -5 -30 138 -18 157
13 21 23 -10 27 -84z m-3542 -20 c0 -6 -7 -1 -15 10 -8 10 -15 23 -15 28 0 6
7 1 15 -10 8 -10 15 -23 15 -28z m10188 28 c22 -6 22 -9 22 -151 0 -130 -2
-144 -16 -133 -25 22 -32 43 -43 126 -9 76 -5 164 8 164 3 0 16 -3 29 -6z
m-338 -159 c0 -5 -5 -3 -10 5 -5 8 -10 20 -10 25 0 6 5 3 10 -5 5 -8 10 -19
10 -25z m108 -100 l0 -30 -8 30 c-4 17 -8 41 -8 55 l0 25 8 -25 c4 -14 8 -38
8 -55z m-100 18 c-1 -8 4 -25 24 -73 45 -110 49 -351 7 -420 -11 -18 -22 -30
-24 -28 -2 2 -5 80 -6 174 0 93 -4 209 -8 257 -3 48 -5 90 -2 93 7 6 11 5 9
-3z m-41 -70 c-3 -10 -5 -2 -5 17 0 19 2 27 5 18 2 -10 2 -26 0 -35z m-7829
23 c-7 -8 -15 -12 -17 -11 -5 6 10 25 20 25 5 0 4 -6 -3 -14z m7979 -43 c-3
-10 -5 -4 -5 12 0 17 2 24 5 18 2 -7 2 -21 0 -30z m-617 17 c0 -5 -7 -10 -15
-10 -8 0 -15 5 -15 10 0 6 7 10 15 10 8 0 15 -4 15 -10z m567 -22 c-3 -8 -6
-5 -6 6 -1 11 2 17 5 13 3 -3 4 -12 1 -19z m-77 -28 c0 -5 -4 -10 -10 -10 -5
0 -10 5 -10 10 0 6 5 10 10 10 6 0 10 -4 10 -10z m-7856 -46 c3 -8 2 -12 -4
-9 -6 3 -10 10 -10 16 0 14 7 11 14 -7z m121 -4 c3 -5 1 -10 -4 -10 -6 0 -11
5 -11 10 0 6 2 10 4 10 3 0 8 -4 11 -10z m4982 -82 c-2 -13 -4 -5 -4 17 -1 22
1 32 4 23 2 -10 2 -28 0 -40z m3022 -44 c34 -24 54 -79 46 -131 -5 -36 -3 -47
13 -61 19 -16 21 -34 25 -247 3 -126 3 -224 0 -217 -2 6 -12 12 -22 12 -9 0
-22 5 -27 10 -6 6 -25 14 -42 19 -29 9 -33 7 -38 -14 -4 -16 -11 -22 -21 -18
-8 3 -10 8 -5 12 6 3 12 22 13 41 4 34 3 35 -41 43 -25 4 -63 5 -85 2 -29 -4
-36 -2 -25 5 13 9 13 11 0 20 -8 5 -26 10 -40 10 l-25 1 28 24 c15 14 37 25
48 25 22 0 25 10 7 28 -9 9 -9 12 0 12 7 0 12 -5 12 -11 0 -5 4 -8 9 -4 12 7
8 -42 -4 -53 -4 -4 -5 -1 -1 6 10 17 -25 16 -50 -3 -18 -13 -17 -14 14 -21 18
-4 35 -10 37 -14 6 -9 45 -1 45 9 0 4 9 7 20 7 25 0 26 -13 3 -19 -13 -3 -11
-6 10 -12 32 -9 48 1 27 16 -12 9 -12 10 3 5 15 -5 17 2 17 57 0 34 7 97 15
140 8 43 15 97 15 119 0 33 3 39 16 34 14 -5 15 -4 4 9 -12 14 -11 35 5 113 4
21 2 32 -5 32 -6 0 -8 -4 -5 -10 3 -5 1 -10 -5 -10 -6 0 -9 8 -6 18 4 12 -3
21 -22 30 -49 24 -56 26 -48 14 5 -8 2 -10 -9 -5 -12 4 -13 8 -4 13 8 6 5 11
-10 19 -11 7 -21 16 -21 21 0 8 57 -26 129 -76z m-5568 -21 c6 -15 8 -42 4
-59 -3 -18 -2 -34 2 -36 12 -5 -1 -306 -14 -319 -7 -7 -19 -9 -27 -6 -14 6
-16 35 -16 215 0 202 4 232 32 232 5 0 13 -12 19 -27z m3861 -2 c13 -11 37
-37 52 -59 23 -34 26 -44 16 -62 l-11 -21 -18 23 c-24 30 -81 123 -81 132 0
11 17 6 42 -13z m2388 -26 c-7 -8 -17 -15 -23 -15 -6 0 -2 7 9 15 25 19 30 19
14 0z m-3847 -20 c-7 -21 -13 -19 -13 6 0 11 4 18 10 14 5 -3 7 -12 3 -20z
m-2473 -191 c0 -148 -2 -174 -15 -174 -13 0 -15 26 -15 173 0 96 3 177 6 180
19 19 24 -20 24 -179z m6294 177 c3 -5 -1 -11 -9 -14 -9 -4 -12 -1 -8 9 6 16
10 17 17 5z m-6503 -38 c-8 -15 -10 -15 -11 -2 0 17 10 32 18 25 2 -3 -1 -13
-7 -23z m6527 0 c-10 -2 -28 -2 -40 0 -13 2 -5 4 17 4 22 1 32 -1 23 -4z
m-8841 -95 c-2 -18 -4 -6 -4 27 0 33 2 48 4 33 2 -15 2 -42 0 -60z m2363 -88
c0 -146 -7 -192 -29 -188 -25 5 -29 238 -5 291 25 56 34 30 34 -103z m-531 86
c6 -25 11 -79 11 -120 0 -69 -2 -76 -20 -76 -19 0 -20 7 -20 120 0 66 4 120 9
120 5 0 14 -20 20 -44z m5932 -46 c14 0 11 -17 -4 -23 -10 -4 -14 6 -14 36 0
26 2 32 4 15 2 -16 9 -28 14 -28z m1049 -10 c-20 -13 -33 -13 -25 0 3 6 14 10
23 10 15 0 15 -2 2 -10z m-935 -20 c-3 -5 -10 -10 -16 -10 -5 0 -9 5 -9 10 0
6 7 10 16 10 8 0 12 -4 9 -10z m-11476 -74 c-9 -8 -10 -7 -5 7 3 10 7 28 7 40
2 16 3 14 6 -7 3 -16 -1 -34 -8 -40z m1639 -452 c-2 -363 -6 -468 -15 -471
-10 -4 -12 81 -9 404 2 224 6 437 7 473 1 36 -1 76 -5 90 -7 24 -7 24 9 -2 13
-24 15 -85 13 -494z m9832 496 c0 -5 -5 -10 -11 -10 -5 0 -7 5 -4 10 3 6 8 10
11 10 2 0 4 -4 4 -10z m975 -19 c-3 -6 -11 -11 -16 -11 -5 0 -4 6 3 14 14 16
24 13 13 -3z m-940 -51 c-3 -5 -11 -10 -16 -10 -6 0 -7 5 -4 10 3 6 11 10 16
10 6 0 7 -4 4 -10z m-2708 -203 c-2 -23 -3 -1 -3 48 0 50 1 68 3 42 2 -26 2
-67 0 -90z m3551 108 c-6 -14 -13 -23 -15 -21 -5 5 15 46 22 46 3 0 -1 -11 -7
-25z m-5280 -152 c-1 -110 -5 -97 -10 35 -2 39 0 72 5 72 4 0 6 -48 5 -107z
m5259 -50 c-2 -32 -3 -8 -3 52 0 61 1 87 3 58 2 -29 2 -78 0 -110z m-651 72
c-9 -9 -21 -13 -27 -9 -8 4 -3 11 12 20 30 15 37 10 15 -11z m-4539 -42 c-3
-10 -5 -4 -5 12 0 17 2 24 5 18 2 -7 2 -21 0 -30z m4623 -4 c0 -11 -4 -17 -10
-14 -5 3 -10 13 -10 21 0 8 5 14 10 14 6 0 10 -9 10 -21z m-3060 -29 c0 -16
-4 -32 -10 -35 -6 -4 -10 10 -10 35 0 25 4 39 10 35 6 -3 10 -19 10 -35z
m3094 24 c3 -8 2 -12 -4 -9 -6 3 -10 10 -10 16 0 14 7 11 14 -7z m-104 -24 c0
-5 -2 -10 -4 -10 -3 0 -8 5 -11 10 -3 6 -1 10 4 10 6 0 11 -4 11 -10z m-1811
-39 c17 -11 6 -31 -18 -31 -25 0 -33 11 -20 27 13 15 19 16 38 4z m-1171 -117
c-2 -44 -7 -79 -13 -79 -11 0 -20 139 -10 163 13 36 26 -9 23 -84z m-1631 64
c-3 -8 -6 -5 -6 6 -1 11 2 17 5 13 3 -3 4 -12 1 -19z m2981 -34 c12 -14 22
-30 22 -35 0 -6 -9 -7 -22 -3 -13 4 -41 10 -63 13 -23 4 -40 11 -39 19 4 45 3
44 42 38 21 -4 47 -18 60 -32z m1452 7 c0 -12 -20 -25 -27 -18 -7 7 6 27 18
27 5 0 9 -4 9 -9z m171 -18 c13 -16 12 -17 -3 -4 -10 7 -18 15 -18 17 0 8 8 3
21 -13z m-31 -13 c0 -5 -5 -10 -11 -10 -5 0 -7 5 -4 10 3 6 8 10 11 10 2 0 4
-4 4 -10z m-1579 -60 c31 -26 15 -26 -18 0 -14 11 -21 20 -15 20 5 0 20 -9 33
-20z m1609 -14 c-1 -23 -26 -63 -35 -54 -3 3 1 18 9 33 11 21 12 32 4 42 -8
11 -7 12 6 7 9 -3 16 -16 16 -28z m27 -30 c-3 -8 -9 -31 -13 -50 -8 -46 19
-62 45 -27 16 21 17 18 30 -89 7 -62 10 -114 8 -117 -3 -2 -12 -5 -20 -7 -8
-1 -25 -9 -39 -18 l-26 -17 4 82 c2 45 6 91 9 103 2 11 -2 29 -9 40 -9 12 -13
38 -11 64 4 54 3 50 16 50 6 0 9 -6 6 -14z m-3483 -28 c3 -13 6 -30 6 -37 0
-25 -21 4 -24 33 -4 32 9 35 18 4z m1901 -47 c47 -72 69 -137 45 -129 -25 8
-117 198 -96 198 4 0 27 -31 51 -69z m2212 17 c-3 -8 -6 -5 -6 6 -1 11 2 17 5
13 3 -3 4 -12 1 -19z m-5032 -82 c19 -42 25 -71 25 -124 0 -40 7 -85 16 -107
27 -65 12 -71 -33 -15 l-43 53 0 123 c0 68 2 124 5 124 3 0 16 -24 30 -54z
m4533 -108 c-1 -48 -3 -65 -5 -40 -3 30 -8 42 -17 39 -10 -4 -9 6 3 39 9 24
17 44 18 44 2 0 2 -37 1 -82z m-8168 19 c0 -2 -12 -14 -27 -28 l-26 -24 19 27
c16 23 34 36 34 25z m3714 -33 c12 -31 7 -94 -8 -94 -17 0 -26 22 -26 64 0 45
21 64 34 30z m-332 -87 c65 -14 138 -50 138 -68 0 -12 -17 -12 -25 0 -3 5 -22
15 -43 21 -20 6 -46 15 -57 20 -53 23 -85 29 -85 17 -1 -14 -26 17 -47 58
l-15 30 33 -32 c26 -24 51 -36 101 -46z m1565 51 c-3 -8 -6 -5 -6 6 -1 11 2
17 5 13 3 -3 4 -12 1 -19z m1543 -8 c0 -28 -2 -30 -26 -24 -24 6 -25 5 -16
-13 16 -30 -5 -48 -30 -26 -27 24 -22 40 17 59 19 9 35 20 35 25 0 5 5 9 10 9
6 0 10 -14 10 -30z m2177 -132 c-2 -29 -3 -6 -3 52 0 58 1 81 3 53 2 -29 2
-77 0 -105z m-6057 113 c-10 -21 -30 -37 -30 -26 0 14 21 45 31 45 6 0 6 -7
-1 -19z m562 -1 c28 0 40 -5 49 -21 10 -20 9 -21 -33 -14 -43 7 -98 30 -98 41
0 4 10 4 23 0 12 -3 39 -6 59 -6z m1748 -117 c-1 -78 -3 -103 -11 -91 -9 16
-2 198 7 198 2 0 4 -48 4 -107z m1380 79 c0 -4 -9 -8 -20 -9 -11 -1 -18 2 -15
8 7 11 35 12 35 1z m-2674 -68 c23 -34 6 -51 -24 -24 -23 22 -27 32 -15 43 12
12 22 7 39 -19z m-3581 -83 c8 -39 -10 -80 -56 -123 l-39 -36 0 39 c0 26 7 47
21 62 15 16 19 30 15 50 -3 16 -1 38 5 49 10 18 12 19 29 3 10 -9 22 -29 25
-44z m3879 33 c9 -24 7 -69 -3 -58 -12 13 -22 74 -12 74 5 0 12 -7 15 -16z
m2586 -144 c0 -44 -3 -50 -20 -50 -26 0 -70 43 -70 68 0 11 3 41 7 67 l6 48
39 -41 c34 -37 38 -47 38 -92z m2161 8 c2 -20 0 -40 -4 -44 -4 -4 -7 14 -7 41
0 56 7 57 11 3z m-9626 2 c8 -13 -15 -13 -35 0 -12 8 -11 10 7 10 12 0 25 -4
28 -10z m4994 -19 c10 -6 30 -28 45 -50 25 -36 29 -51 33 -146 3 -58 1 -105
-4 -105 -4 0 -24 40 -43 88 -31 76 -38 87 -61 90 -18 2 -29 11 -33 25 -8 30
-8 92 1 100 9 10 41 9 62 -2z m1103 -62 l-10 -54 -1 65 c-1 46 2 61 10 53 8
-8 8 -27 1 -64z m1514 -63 c29 -60 31 -88 7 -79 -64 23 -104 82 -117 173 l-7
45 46 -45 c26 -25 58 -67 71 -94z m1171 112 c-3 -8 -6 -5 -6 6 -1 11 2 17 5
13 3 -3 4 -12 1 -19z m-5299 -47 c4 -71 0 -79 -37 -73 -30 4 -31 6 -31 56 0
56 13 78 45 74 17 -3 20 -12 23 -57z m-3284 24 c-4 -8 -8 -15 -10 -15 -2 0 -4
7 -4 15 0 8 4 15 10 15 5 0 7 -7 4 -15z m8566 -45 c5 0 11 6 13 13 3 6 6 8 6
2 0 -5 -4 -17 -9 -25 -9 -13 -11 -13 -20 0 -5 8 -9 22 -9 30 1 11 3 10 6 -2 2
-10 8 -18 13 -18z m-8803 -30 c-18 -33 -23 -36 -25 -19 -2 11 4 29 14 40 28
32 34 22 11 -21z m5843 -47 c0 -36 -4 -63 -10 -63 -6 0 -10 32 -10 78 0 53 3
72 10 62 5 -8 10 -43 10 -77z m-5670 52 c-7 -8 -16 -15 -21 -15 -5 0 -1 8 9
18 20 22 31 19 12 -3z m8471 -96 c-12 -12 -25 -19 -28 -16 -8 8 20 36 36 37
10 0 8 -7 -8 -21z m-37 -79 c-3 -14 -9 -47 -13 -75 l-7 -50 -7 55 c-4 30 -10
70 -14 89 -4 24 -2 32 6 27 6 -4 11 -1 11 6 1 8 7 5 16 -7 9 -13 12 -29 8 -45z
m-2464 -60 c0 -5 -4 -10 -10 -10 -5 0 -10 5 -10 10 0 6 5 10 10 10 6 0 10 -4
10 -10z m-5939 -27 c13 -16 12 -17 -3 -4 -10 7 -18 15 -18 17 0 8 8 3 21 -13z
m8396 -90 c-3 -10 -5 -2 -5 17 0 19 2 27 5 18 2 -10 2 -26 0 -35z m-8301 -2
c-6 -9 20 -35 44 -44 12 -4 12 -6 -2 -6 -11 -1 -16 -8 -13 -20 4 -21 -17 -23
-37 -3 -9 9 -8 12 5 12 21 0 22 8 1 31 -14 15 -13 39 2 39 3 0 3 -4 0 -9z
m6776 -56 c0 -5 -5 -11 -11 -13 -6 -2 -11 4 -11 13 0 9 5 15 11 13 6 -2 11 -8
11 -13z m286 -13 c17 -11 21 -67 4 -67 -15 0 -53 55 -46 67 7 10 25 10 42 0z
m2299 -114 c-2 -24 -4 -7 -4 37 0 44 2 63 4 43 2 -21 2 -57 0 -80z m-2047 86
c0 -2 -7 -4 -15 -4 -8 0 -15 4 -15 10 0 5 7 7 15 4 8 -4 15 -8 15 -10z m-7493
-36 c-3 -7 -5 -2 -5 12 0 14 2 19 5 13 2 -7 2 -19 0 -25z m233 10 c0 -6 -6 -5
-15 2 -8 7 -15 14 -15 16 0 2 7 1 15 -2 8 -4 15 -11 15 -16z m-19 -24 c13 -16
12 -16 -7 -6 -11 6 -27 19 -35 28 -13 16 -12 16 7 6 11 -6 27 -19 35 -28z
m6873 21 c4 -12 -17 -45 -30 -45 -2 0 -4 14 -4 30 0 32 23 42 34 15z m452 -32
c-2 -27 -5 -77 -6 -113 -2 -55 -3 -60 -11 -35 -4 17 -23 46 -41 64 l-33 34 35
-6 c32 -6 35 -5 35 16 0 20 -5 22 -50 21 -65 -1 -75 -4 -45 -14 20 -6 21 -8 5
-8 -11 0 -28 3 -38 6 -14 6 -9 12 27 29 34 17 44 19 39 8 -6 -17 6 -19 41 -5
16 6 26 17 26 30 0 11 5 20 11 20 6 0 9 -17 5 -47z m-567 5 c6 -18 7 -28 2
-23 -10 12 -25 55 -18 55 3 0 10 -15 16 -32z m41 -4 c0 -8 -4 -14 -10 -14 -5
0 -10 4 -10 9 0 5 -3 18 -7 28 -6 16 -5 16 10 4 9 -7 17 -20 17 -27z m490 16
c-8 -5 -17 -7 -19 -4 -3 3 1 9 9 14 8 5 17 7 19 4 3 -3 -1 -9 -9 -14z m-7507
-68 c4 -21 3 -31 -3 -27 -6 3 -10 20 -10 37 0 38 5 34 13 -10z m217 18 c0 -5
-5 -10 -11 -10 -5 0 -7 5 -4 10 3 6 8 10 11 10 2 0 4 -4 4 -10z m30 -20 c0
-11 -4 -20 -9 -20 -5 0 -16 -3 -25 -6 -9 -3 -16 -1 -16 5 0 6 7 11 15 11 8 0
15 7 15 15 0 8 5 15 10 15 6 0 10 -9 10 -20z m1874 -16 c3 -8 2 -12 -4 -9 -6
3 -10 10 -10 16 0 14 7 11 14 -7z m4929 -1 c-4 -11 -3 -14 5 -9 16 10 15 -3
-3 -34 -14 -25 -14 -24 -15 18 0 23 4 42 10 42 5 0 6 -7 3 -17z m-2045 -11 c5
-16 -74 -16 -84 -1 -5 8 3 10 25 7 17 -2 31 0 31 5 0 12 23 3 28 -11z m-4797
-25 c-8 -8 -16 -7 -27 5 -14 14 -14 15 11 10 19 -3 23 -8 16 -15z m2047 -187
c32 -47 97 -137 146 -200 49 -63 105 -135 124 -160 l34 -45 -48 50 c-102 107
-384 511 -384 550 0 6 16 -17 36 -50 20 -33 61 -98 92 -145z m6269 168 c-3 -7
-5 -2 -5 12 0 14 2 19 5 13 2 -7 2 -19 0 -25z m-8649 11 c-2 -6 -8 -10 -13
-10 -5 0 -11 4 -13 10 -2 6 4 11 13 11 9 0 15 -5 13 -11z m7586 -8 c4 -5 -3
-7 -14 -4 -23 6 -26 13 -6 13 8 0 17 -4 20 -9z m-7384 -16 c-7 -9 -15 -13 -19
-10 -3 3 1 10 9 15 21 14 24 12 10 -5z m106 -16 c10 -12 28 -25 39 -29 17 -7
20 -15 17 -54 -5 -54 -14 -55 -14 -2 0 20 -4 33 -9 30 -5 -3 -9 0 -9 5 0 6
-14 24 -31 41 -18 16 -27 30 -22 30 5 0 18 -10 29 -21z m7328 -15 c3 -8 2 -12
-4 -9 -6 3 -10 10 -10 16 0 14 7 11 14 -7z m-7659 -14 c-3 -5 1 -10 9 -10 9 0
16 -7 16 -15 0 -8 7 -15 16 -15 9 0 14 -7 12 -16 -2 -8 -7 -14 -13 -14 -5 1
-9 6 -7 11 1 6 -5 9 -14 7 -9 -2 -21 9 -29 30 -12 28 -12 32 1 32 8 0 12 -4 9
-10z m-78 -25 c15 -13 22 -25 15 -25 -7 0 -15 7 -18 15 -4 8 -17 15 -29 15
-13 0 -27 5 -30 10 -13 20 35 9 62 -15z m7363 -115 c-6 -10 -10 -32 -10 -49 0
-21 -5 -31 -15 -31 -8 0 -15 -5 -15 -12 0 -6 -6 -4 -12 5 -12 16 -15 15 -40
-8 -33 -30 -41 -21 -27 31 14 48 34 89 68 133 l25 33 18 -42 c13 -30 15 -47 8
-60z m1407 58 c-3 -8 -6 -5 -6 6 -1 11 2 17 5 13 3 -3 4 -12 1 -19z m-8667 -4
c0 -8 -4 -12 -10 -9 -5 3 -10 10 -10 16 0 5 5 9 10 9 6 0 10 -7 10 -16z
m-1416 -10 c9 -24 2 -26 -12 -4 -7 11 -8 20 -3 20 5 0 12 -7 15 -16z m1496 -3
c13 -26 13 -31 -4 -31 -7 0 -20 8 -27 18 -13 15 -12 16 4 3 19 -15 24 -2 5 17
-9 9 -9 12 0 12 6 0 16 -9 22 -19z m-155 -12 c11 -16 1 -19 -13 -3 -7 8 -8 14
-3 14 5 0 13 -5 16 -11z m82 -20 c2 -16 -1 -19 -9 -11 -5 5 -7 15 -4 21 10 15
12 14 13 -10z m7497 -14 c5 -22 4 -26 -4 -15 -5 8 -10 24 -10 34 0 26 6 18 14
-19z m-7464 5 c0 -5 -5 -10 -11 -10 -5 0 -7 5 -4 10 3 6 8 10 11 10 2 0 4 -4
4 -10z m45 -11 c12 -18 -3 -22 -20 -5 -14 14 -14 16 -1 16 8 0 18 -5 21 -11z
m8608 -53 c3 -30 1 -43 -4 -35 -5 8 -8 34 -8 59 1 53 6 44 12 -24z m-8643 20
c0 -2 -8 -10 -17 -17 -16 -13 -17 -12 -4 4 13 16 21 21 21 13z m60 -26 c0 -5
-5 -10 -11 -10 -5 0 -7 5 -4 10 3 6 8 10 11 10 2 0 4 -4 4 -10z m-65 -10 c-3
-5 -16 -15 -28 -21 -19 -9 -19 -8 3 10 28 23 34 26 25 11z m302 -12 c-3 -8 -6
-5 -6 6 -1 11 2 17 5 13 3 -3 4 -12 1 -19z m7073 18 c0 -2 -8 -10 -17 -17 -16
-13 -17 -12 -4 4 13 16 21 21 21 13z m-7290 -26 c0 -5 -7 -10 -15 -10 -8 0
-15 5 -15 10 0 6 7 10 15 10 8 0 15 -4 15 -10z m10804 -117 c4 -49 9 -109 13
-135 5 -44 4 -48 -16 -48 -14 0 -23 9 -28 28 l-7 27 -6 -35 c-3 -24 -11 -36
-24 -38 -18 -4 -19 2 -14 102 5 93 9 112 32 146 14 22 30 40 35 40 4 0 11 -39
15 -87z m-3877 35 c-3 -7 -5 -2 -5 12 0 14 2 19 5 13 2 -7 2 -19 0 -25z m3934
1 c27 -55 31 -75 33 -140 1 -69 0 -74 -19 -71 -11 2 -22 6 -24 8 -2 2 -7 44
-12 94 -5 50 -11 95 -14 100 -8 13 4 32 18 27 6 -2 14 -10 18 -18z m-706 -181
c5 -59 4 -88 -3 -88 -15 0 -21 25 -23 105 -2 88 -1 91 10 80 5 -6 12 -49 16
-97z m-45 -8 c0 -47 -4 -80 -10 -80 -11 0 -14 101 -4 138 11 38 14 25 14 -58z
m1100 -66 c0 -59 -3 -74 -15 -74 -12 0 -15 15 -15 73 0 41 3 77 6 80 16 16 24
-10 24 -79z m49 3 c-1 -76 -18 -89 -18 -14 -1 43 3 66 9 62 6 -3 10 -25 9 -48z
m-1659 -272 c-24 -63 -61 -117 -45 -64 8 24 45 89 51 89 2 0 -1 -11 -6 -25z
m1590 -192 c-8 -3 -28 -15 -45 -26 -16 -11 -24 -14 -17 -7 18 20 15 29 -8 23
-11 -3 -17 -9 -14 -14 5 -8 -9 -13 -28 -10 -4 0 -4 -7 -1 -16 4 -10 2 -14 -5
-9 -6 3 -14 1 -18 -5 -3 -6 -2 -14 4 -18 6 -3 -14 -26 -45 -51 -34 -27 -71
-71 -94 -109 -51 -85 -49 -73 6 36 75 150 141 209 237 211 24 0 36 -2 28 -5z
m-8761 -98 c0 -5 -6 1 -14 15 -8 14 -14 30 -14 35 0 6 6 -1 14 -15 8 -14 14
-29 14 -35z m3574 -137 c42 -20 32 -27 -14 -11 -41 14 -42 13 -93 -21 -28 -19
-62 -37 -76 -41 -22 -5 -20 -2 14 30 22 19 47 35 57 35 10 0 21 5 24 10 9 14
56 13 88 -2z m52 -7 c3 -5 2 -12 -3 -15 -5 -3 -9 1 -9 9 0 17 3 19 12 6z
m-3836 -156 c12 -22 15 -31 6 -20 -23 28 -95 144 -95 153 0 8 58 -78 89 -133z
m7900 103 c-13 -11 -41 -37 -61 -57 -21 -19 -38 -30 -38 -25 0 16 92 104 109
104 10 0 7 -7 -10 -22z m750 -57 c-6 -18 -13 -30 -15 -28 -2 2 1 18 7 36 6 18
13 30 15 28 2 -2 -1 -18 -7 -36z m-4579 10 c-14 -4 -41 -30 -62 -61 -37 -52
-49 -60 -27 -17 29 56 60 87 87 86 l27 -1 -25 -7z m839 -36 c-13 -13 -28 -25
-33 -25 -6 0 3 13 19 30 16 16 31 28 33 25 3 -2 -6 -16 -19 -30z m-4369 -25
c0 -5 -7 -7 -15 -4 -8 4 -15 8 -15 10 0 2 7 4 15 4 8 0 15 -4 15 -10z m45 -50
c12 -15 31 -59 21 -49 -19 19 -53 79 -48 84 4 3 8 0 11 -7 2 -7 9 -20 16 -28z
m2876 -37 c-5 -10 -17 -27 -26 -38 -16 -19 -17 -19 -3 5 26 46 29 50 34 50 3
0 0 -8 -5 -17z m-2197 -118 c30 -55 5 -26 -33 39 -13 23 -17 34 -9 26 9 -8 28
-37 42 -65z m3411 49 c-69 -57 -218 -167 -340 -249 -71 -48 -151 -103 -176
-121 -25 -19 -49 -31 -53 -29 -3 3 -4 2 -1 -2 6 -8 -14 -33 -27 -33 -5 0 -6 5
-2 12 4 7 3 8 -5 4 -6 -4 -9 -11 -6 -16 9 -14 -76 -52 -89 -40 -7 5 -17 5 -26
0 -12 -8 -11 -10 5 -10 16 0 14 -4 -11 -19 -18 -11 -43 -17 -60 -15 -21 3 -24
2 -11 -4 15 -6 7 -13 -40 -36 -32 -15 -63 -26 -68 -25 -16 4 -65 -13 -60 -20
2 -4 -1 -8 -8 -8 -7 0 -26 -3 -42 -6 -17 -3 76 47 205 111 129 65 258 131 285
148 161 98 382 251 493 341 30 24 57 43 60 43 4 -1 -6 -12 -23 -26z m-935 -7
c0 -2 -15 -13 -32 -26 l-33 -22 28 25 c26 24 37 31 37 23z m-550 -82 c-35 -35
-66 -62 -69 -59 -6 6 115 124 126 124 4 0 -21 -29 -57 -65z m-3426 -22 c69
-75 53 -66 -24 13 -36 37 -56 61 -45 53 11 -8 42 -38 69 -66z m1073 53 c24
-12 170 -164 213 -221 8 -11 -35 26 -95 83 -125 116 -144 130 -194 149 l-36
13 42 -4 c24 -3 55 -12 70 -20z m-1846 -43 c13 -16 12 -17 -3 -4 -10 7 -18 15
-18 17 0 8 8 3 21 -13z m2311 -49 c16 -8 39 -12 51 -9 16 5 18 4 8 -3 -10 -7
-5 -12 20 -17 19 -5 29 -10 22 -12 -6 -2 -58 9 -115 26 -56 16 -114 32 -128
35 -14 3 6 3 44 0 38 -3 82 -12 98 -20z m-657 -51 c45 -52 45 -63 1 -18 -19
18 -37 31 -41 27 -3 -3 -3 1 1 11 4 13 2 16 -9 11 -8 -3 -18 -1 -22 5 -4 7 2
10 14 8 12 -2 37 -22 56 -44z m1978 -24 c-9 -9 -70 -9 -235 -2 l-223 10 235 1
c174 2 231 -1 223 -9z m87 -1 c0 -5 -11 -8 -24 -8 -14 0 -27 3 -29 8 -3 4 8 7
24 7 16 0 29 -3 29 -7z m-4624 -26 c-4 -3 -14 2 -24 12 -16 18 -16 18 6 6 13
-6 21 -14 18 -18z m4014 -36 c0 -2 -8 -10 -17 -17 -16 -13 -17 -12 -4 4 13 16
21 21 21 13z m6707 -22 c-3 -3 -12 -4 -19 -1 -8 3 -5 6 6 6 11 1 17 -2 13 -5z
m-6353 -24 c188 0 266 -3 256 -11 -21 -14 -645 -3 -668 11 -13 9 3 10 62 6 43
-3 201 -6 350 -6z m-434 -10 c0 -5 -4 -10 -10 -10 -5 0 -10 5 -10 10 0 6 5 10
10 10 6 0 10 -4 10 -10z m-43 -16 c-3 -3 -12 -4 -19 -1 -8 3 -5 6 6 6 11 1 17
-2 13 -5z m6748 -2 c-16 -14 -205 -113 -205 -107 0 9 84 60 145 86 69 31 72
32 60 21z m-6810 -12 c3 -5 -1 -10 -9 -10 -9 0 -16 5 -16 10 0 6 4 10 9 10 6
0 13 -4 16 -10z m-148 -16 c-3 -3 -12 -4 -19 -1 -8 3 -5 6 6 6 11 1 17 -2 13
-5z m1852 2 c-2 -1 -19 -8 -36 -14 -37 -12 -45 -6 -10 8 22 9 54 13 46 6z
m-3079 -16 c12 -8 9 -10 -12 -10 -15 0 -30 5 -33 10 -8 13 25 13 45 0z m1443
-27 c23 -3 84 -6 135 -7 50 -1 91 -5 90 -10 -2 -5 -43 -8 -92 -7 -80 2 -92 0
-127 -23 -43 -29 -49 -31 -49 -16 0 6 6 10 14 10 7 0 19 6 25 14 10 11 8 16
-8 21 -12 3 -25 3 -31 0 -5 -3 -10 1 -10 9 0 9 -8 16 -19 16 -10 0 -21 6 -24
14 -5 11 0 11 24 -1 17 -8 49 -17 72 -20z m344 -9 c-3 -3 -12 -4 -19 -1 -8 3
-5 6 6 6 11 1 17 -2 13 -5z m408 -10 c19 -15 19 -16 -10 -10 -16 3 -110 6
-207 8 -98 2 -178 6 -178 11 0 4 84 7 188 7 154 -1 191 -3 207 -16z m-845 -21
c0 -21 -3 -24 -9 -14 -5 8 -7 20 -4 28 8 21 13 15 13 -14z m16 -39 c-11 -8
-27 -14 -35 -14 -9 0 -3 8 14 19 34 21 50 17 21 -5z m834 -52 c-19 -16 -21
-22 -11 -40 l12 -22 -149 0 c-179 0 -315 10 -287 21 16 6 13 8 -13 8 -18 1
-44 -6 -57 -15 -13 -9 -30 -14 -37 -11 -8 3 -3 9 12 15 23 9 23 10 -13 10 -20
0 -40 -5 -44 -11 -3 -6 -1 -7 5 -3 7 4 12 2 12 -3 0 -6 -19 -11 -42 -11 -40 1
-42 2 -24 15 26 19 12 24 -89 28 -44 2 19 4 140 4 283 1 574 13 581 24 3 5 10
9 16 9 5 0 0 -8 -12 -18z m-810 -10 c0 -5 -13 -7 -30 -4 -16 2 -30 6 -30 8 0
2 14 4 30 4 17 0 30 -4 30 -8z m140 -31 c0 5 4 9 10 9 5 0 7 -7 4 -15 -5 -11
-23 -15 -78 -15 -54 1 -67 3 -53 11 10 6 25 8 33 5 8 -3 14 -1 14 3 0 5 16 5
35 1 20 -4 35 -4 35 1z m-207 -8 c-13 -2 -35 -2 -50 0 -16 2 -5 4 22 4 28 0
40 -2 28 -4z m414 1 c-3 -3 -12 -4 -19 -1 -8 3 -5 6 6 6 11 1 17 -2 13 -5z
m4473 -141 c-1 -5 -28 -26 -61 -48 -33 -22 -70 -47 -82 -55 -12 -8 -6 2 13 22
54 56 131 104 130 81z m-4003 -39 c-3 -3 -12 -4 -19 -1 -8 3 -5 6 6 6 11 1 17
-2 13 -5z m-511 -31 c-4 -5 -23 -8 -41 -8 -18 0 -31 3 -28 8 2 4 20 7 40 7 20
0 33 -3 29 -7z m152 -38 c10 -9 -33 -5 -48 5 -11 8 -8 9 14 6 16 -3 31 -8 34
-11z m195 8 c-7 -2 -19 -2 -25 0 -7 3 -2 5 12 5 14 0 19 -2 13 -5z"/>
<path d="M4070 7920 c13 -24 17 -25 17 -5 0 8 -6 16 -14 19 -11 4 -11 1 -3
-14z"/>
<path d="M3973 7865 c0 -8 4 -12 9 -9 5 3 6 10 3 15 -9 13 -12 11 -12 -6z"/>
<path d="M3992 7820 c7 -11 16 -20 20 -20 5 0 3 9 -4 20 -7 11 -16 20 -20 20
-5 0 -3 -9 4 -20z"/>
<path d="M4190 7762 c0 -18 -7 -49 -15 -69 -16 -39 -15 -52 4 -30 16 20 32
110 20 122 -5 5 -9 -3 -9 -23z"/>
<path d="M4061 7723 c7 -12 15 -20 18 -17 3 2 -3 12 -13 22 -17 16 -18 16 -5
-5z"/>
<path d="M4100 7701 c0 -12 39 -35 46 -28 3 2 -7 12 -21 21 -14 9 -25 12 -25
7z"/>
<path d="M4001 7213 c-1 -34 -4 -68 -7 -77 -3 -9 -1 -16 4 -16 15 0 25 100 13
130 -8 21 -10 15 -10 -37z"/>
<path d="M3762 6913 c-38 -59 -52 -96 -51 -131 l0 -27 11 25 c6 14 26 58 45
99 18 41 32 76 29 78 -2 2 -17 -18 -34 -44z"/>
<path d="M3787 6250 c-4 -14 -29 -50 -57 -79 -47 -52 -68 -89 -35 -61 11 9 15
9 15 1 0 -7 4 -10 10 -6 5 3 7 12 4 19 -3 9 1 13 12 13 12 -2 24 15 41 57 13
32 22 63 20 70 -2 6 -7 0 -10 -14z"/>
<path d="M3800 6226 c0 -2 7 -7 16 -10 8 -3 12 -2 9 4 -6 10 -25 14 -25 6z"/>
<path d="M3921 6113 c-16 -55 -15 -56 37 -146 38 -66 48 -77 50 -59 2 13 -3
31 -12 41 -8 9 -27 43 -42 74 -19 44 -24 67 -20 93 9 46 0 44 -13 -3z"/>
<path d="M4405 5810 c3 -5 8 -10 11 -10 2 0 4 5 4 10 0 6 -5 10 -11 10 -5 0
-7 -4 -4 -10z"/>
<path d="M4375 5730 c3 -5 8 -10 11 -10 2 0 4 5 4 10 0 6 -5 10 -11 10 -5 0
-7 -4 -4 -10z"/>
<path d="M4328 5707 c-12 -21 -38 -87 -38 -96 0 -3 6 3 13 14 8 10 19 15 25
11 9 -5 9 0 2 19 -8 20 -6 32 5 48 8 12 15 16 15 9 0 -6 5 -12 10 -12 15 0 12
17 -5 24 -9 3 -20 -4 -27 -17z"/>
<path d="M4340 5671 c0 -25 6 -27 13 -6 4 8 2 17 -3 20 -6 4 -10 -3 -10 -14z"/>
<path d="M3942 5335 c0 -16 2 -22 5 -12 2 9 2 23 0 30 -3 6 -5 -1 -5 -18z"/>
<path d="M4350 5119 c0 -5 5 -7 10 -4 6 3 10 8 10 11 0 2 -4 4 -10 4 -5 0 -10
-5 -10 -11z"/>
<path d="M4001 4897 c-13 -21 -12 -21 5 -5 10 10 16 20 13 22 -3 3 -11 -5 -18
-17z"/>
<path d="M4200 4805 c0 -8 2 -15 4 -15 2 0 6 7 10 15 3 8 1 15 -4 15 -6 0 -10
-7 -10 -15z"/>
<path d="M3940 4795 c-7 -9 -8 -15 -2 -15 5 0 12 7 16 15 3 8 4 15 2 15 -2 0
-9 -7 -16 -15z"/>
<path d="M4151 4764 c0 -11 3 -14 6 -6 3 7 2 16 -1 19 -3 4 -6 -2 -5 -13z"/>
<path d="M4216 4735 c4 -8 1 -22 -5 -29 -8 -9 -8 -16 -2 -20 6 -4 8 -13 5 -20
-3 -8 0 -17 7 -22 7 -4 10 -3 6 4 -4 5 -4 18 0 29 6 14 9 10 13 -17 3 -21 8
-29 11 -20 7 19 -19 110 -31 110 -5 0 -7 -7 -4 -15z"/>
<path d="M4224 4608 c-4 -7 -3 -8 4 -4 8 5 12 -1 12 -14 0 -12 5 -18 10 -15
15 9 12 45 -4 45 -8 0 -18 -5 -22 -12z"/>
<path d="M4270 4567 c0 -10 -4 -15 -10 -12 -6 3 -7 -1 -4 -9 3 -9 10 -16 14
-16 13 0 19 26 9 41 -7 11 -9 10 -9 -4z"/>
<path d="M4220 4550 c6 -11 13 -20 16 -20 2 0 0 9 -6 20 -6 11 -13 20 -16 20
-2 0 0 -9 6 -20z"/>
<path d="M4240 4510 c-9 -17 -8 -19 7 -13 16 6 17 5 3 -12 -9 -11 -10 -16 -2
-11 7 4 12 2 12 -6 1 -8 6 -6 15 6 20 26 19 33 -5 46 -15 8 -21 6 -30 -10z"/>
<path d="M4230 4456 c0 -2 7 -7 16 -10 8 -3 12 -2 9 4 -6 10 -25 14 -25 6z"/>
<path d="M4237 4340 c-3 -11 -1 -23 4 -26 5 -3 9 6 9 20 0 31 -6 34 -13 6z"/>
<path d="M3942 3685 c0 -16 2 -22 5 -12 2 9 2 23 0 30 -3 6 -5 -1 -5 -18z"/>
<path d="M3771 3494 c0 -11 3 -14 6 -6 3 7 2 16 -1 19 -3 4 -6 -2 -5 -13z"/>
<path d="M3942 3350 c0 -14 2 -19 5 -12 2 6 2 18 0 25 -3 6 -5 1 -5 -13z"/>
<path d="M3945 2949 c-4 -6 -3 -15 3 -21 6 -6 11 -4 15 6 7 18 -9 31 -18 15z"/>
<path d="M4135 2670 c3 -5 8 -10 11 -10 2 0 4 5 4 10 0 6 -5 10 -11 10 -5 0
-7 -4 -4 -10z"/>
<path d="M4475 8479 c-4 -5 -13 -8 -21 -5 -7 3 -16 1 -19 -4 -3 -5 9 -7 26 -5
36 5 45 10 30 19 -5 4 -13 1 -16 -5z"/>
<path d="M4670 8035 c0 -5 5 -17 10 -25 5 -8 10 -10 10 -5 0 6 -5 17 -10 25
-5 8 -10 11 -10 5z"/>
<path d="M4708 7941 c9 -22 19 -38 20 -36 7 6 -19 75 -28 75 -5 0 -1 -18 8
-39z"/>
<path d="M7460 8443 c0 -6 -11 -27 -25 -48 -14 -20 -20 -35 -13 -33 15 5 52
77 44 86 -3 3 -6 1 -6 -5z"/>
<path d="M5863 8145 c-3 -9 -3 -18 -1 -21 3 -3 8 4 11 16 6 23 -1 27 -10 5z"/>
<path d="M8010 8137 c0 -4 18 -35 40 -67 22 -32 40 -65 40 -72 0 -10 3 -9 9 1
6 10 5 24 -4 40 -17 32 -84 109 -85 98z"/>
<path d="M7093 8069 c3 -9 0 -23 -6 -30 -7 -8 -3 -6 8 3 16 15 17 20 6 30 -11
11 -13 10 -8 -3z"/>
<path d="M6585 7959 c-4 -6 -5 -12 -2 -15 2 -3 7 2 10 11 7 17 1 20 -8 4z"/>
<path d="M6500 7930 l-45 -7 53 -1 c33 -1 51 2 47 8 -3 6 -7 9 -8 8 -1 0 -22
-4 -47 -8z"/>
<path d="M5551 7724 c0 -11 3 -14 6 -6 3 7 2 16 -1 19 -3 4 -6 -2 -5 -13z"/>
<path d="M8595 7454 c-27 -25 -86 -64 -130 -86 -76 -39 -82 -40 -148 -34 -67
6 -117 1 -117 -13 0 -4 48 -20 106 -36 96 -26 107 -32 119 -59 l13 -31 1 31
c1 31 27 64 49 64 17 0 15 -8 -18 -61 -25 -41 -31 -64 -37 -136 -4 -64 -3 -84
5 -79 7 4 12 12 12 17 0 36 119 313 166 385 30 46 48 84 42 84 -7 -1 -35 -21
-63 -46z"/>
<path d="M5524 7328 l-29 -33 33 29 c30 28 37 36 29 36 -2 0 -16 -15 -33 -32z"/>
<path d="M5381 7227 c-19 -11 -62 -29 -95 -38 -50 -15 -56 -18 -31 -20 52 -4
65 0 113 33 26 18 50 32 55 30 4 -1 7 3 7 8 0 14 -10 11 -49 -13z"/>
<path d="M5903 6545 c-7 -22 -13 -68 -13 -102 0 -66 -4 -72 -29 -49 -23 21
-175 86 -200 86 -38 0 -22 -21 34 -45 130 -58 164 -95 184 -196 7 -32 24 -84
38 -115 22 -49 25 -66 20 -124 -4 -48 -2 -73 7 -86 12 -16 16 -11 35 41 12 32
35 83 51 114 17 31 37 73 44 93 11 27 26 43 58 59 51 26 78 48 78 64 0 8 -32
-3 -82 -29 -66 -33 -86 -48 -101 -78 l-19 -38 -41 83 -42 82 -5 140 c-5 130
-6 137 -17 100z"/>
<path d="M8734 6484 c-18 -14 -18 -15 4 -4 12 6 22 13 22 15 0 8 -5 6 -26 -11z"/>
<path d="M10280 6169 c0 -12 53 -83 86 -115 11 -11 23 -27 26 -35 4 -12 7 -12
22 1 16 13 20 12 32 -5 8 -10 14 -23 14 -27 0 -5 12 -7 27 -6 21 2 30 -3 38
-19 11 -26 44 -37 52 -17 7 19 -22 62 -52 76 -14 6 -32 22 -40 35 -9 12 -25
23 -36 23 -33 0 -60 19 -74 53 -10 21 -14 26 -15 13 0 -17 -3 -16 -34 8 -38
29 -46 31 -46 15z"/>
<path d="M5896 5371 c-3 -4 4 -21 14 -39 l19 -31 32 30 c17 16 30 31 28 33 -9
8 -89 14 -93 7z"/>
<path d="M8752 5120 c0 -14 2 -19 5 -12 2 6 2 18 0 25 -3 6 -5 1 -5 -13z"/>
<path d="M8782 5095 c0 -16 2 -22 5 -12 2 9 2 23 0 30 -3 6 -5 -1 -5 -18z"/>
<path d="M8762 5050 c0 -14 2 -19 5 -12 2 6 2 18 0 25 -3 6 -5 1 -5 -13z"/>
<path d="M8791 5033 c0 -18 -5 -33 -11 -33 -5 0 -10 -8 -10 -17 0 -14 3 -13
16 5 8 12 13 35 11 50 -4 25 -4 25 -6 -5z"/>
<path d="M5889 4865 c-22 -36 -33 -43 -44 -25 -12 19 -25 10 -25 -19 0 -33
-20 -54 -44 -45 -11 4 -16 2 -14 -7 2 -8 -10 -15 -31 -19 -19 -3 -36 -9 -38
-15 -3 -10 50 -45 68 -45 5 0 18 8 28 18 11 9 40 33 66 52 47 35 75 80 75 120
0 31 -18 24 -41 -15z"/>
<path d="M8987 4655 c-9 -19 -15 -35 -12 -35 7 0 37 61 33 66 -3 2 -12 -12
-21 -31z"/>
<path d="M5325 4624 c-16 -9 -43 -28 -58 -43 -27 -25 -29 -25 -42 -7 -17 23
-35 13 -35 -20 0 -21 -4 -25 -22 -22 -13 2 -22 8 -21 13 1 6 4 24 8 40 6 28 5
28 -7 9 -7 -11 -26 -37 -42 -57 -21 -28 -30 -53 -36 -100 -4 -34 -12 -75 -19
-92 -7 -16 -21 -60 -31 -97 -21 -75 -9 -94 17 -28 17 42 27 49 37 25 3 -8 14
-15 24 -15 10 0 23 -5 29 -11 7 -7 14 4 23 38 17 63 26 72 35 34 7 -31 25 -43
25 -17 0 8 7 22 16 30 14 15 14 17 0 22 -20 8 -21 24 -1 24 24 0 31 51 9 68
-18 13 -18 14 6 7 14 -3 41 -24 61 -46 20 -21 39 -39 42 -39 4 0 9 16 13 35 3
19 8 35 11 35 2 0 19 -11 37 -25 18 -14 36 -25 40 -25 11 0 -3 42 -25 73 -11
15 -15 27 -9 27 20 0 9 31 -15 42 -31 14 -23 28 18 28 30 0 30 1 14 18 -13 12
-32 17 -70 16 l-52 -1 40 18 c22 10 45 19 51 19 6 0 17 7 24 15 10 12 9 15 -6
15 -11 0 -28 2 -39 5 -11 3 -33 -2 -50 -11z m-171 -131 c9 -22 -20 -51 -35
-36 -8 8 -8 17 0 32 14 25 27 27 35 4z m122 -16 c4 -4 -5 -7 -20 -7 -15 0 -25
4 -22 9 7 10 31 9 42 -2z m-125 -61 c-9 -11 -9 -15 1 -19 8 -4 7 -6 -4 -6 -21
-1 -23 10 -6 27 17 17 23 15 9 -2z m69 -27 c0 -5 -7 -9 -15 -9 -15 0 -20 12
-9 23 8 8 24 -1 24 -14z m-66 -25 c15 -6 15 -8 -1 -19 -21 -16 -34 -10 -26 10
6 17 6 17 27 9z"/>
<path d="M5965 4445 c-6 -9 -27 -18 -47 -20 -21 -3 -41 -5 -45 -6 -4 -1 -12 0
-18 1 -15 4 -75 6 -75 2 0 -13 24 -43 40 -52 14 -8 26 -7 41 0 16 9 24 8 37
-3 27 -24 67 9 86 71 8 25 -4 30 -19 7z"/>
<path d="M5387 4106 c-20 -46 -21 -60 -4 -74 31 -26 96 20 97 67 l0 24 -23
-21 c-32 -30 -45 -27 -49 11 l-3 32 -18 -39z"/>
<path d="M10405 4120 c4 -12 19 -49 35 -83 22 -48 35 -65 59 -74 21 -7 31 -18
31 -31 0 -11 11 -29 25 -40 14 -11 25 -24 25 -30 0 -5 7 -15 16 -23 13 -11 21
-6 54 29 21 23 43 42 49 42 6 0 11 7 11 15 0 8 13 28 30 43 21 20 31 40 36 75
8 59 -6 62 -40 9 -13 -21 -37 -50 -53 -63 -15 -13 -36 -36 -46 -51 -23 -37
-32 -35 -51 12 -9 22 -21 40 -27 40 -6 0 -27 18 -46 40 -20 22 -42 40 -49 40
-7 0 -22 16 -34 35 -24 39 -35 45 -25 15z"/>
<path d="M5700 4016 c0 -1 18 -17 40 -35 33 -26 40 -29 40 -14 0 11 -15 24
-40 35 -22 9 -40 15 -40 14z"/>
<path d="M5542 3813 c4 -28 -31 -78 -45 -64 -20 20 -27 12 -27 -29 0 -34 3
-40 20 -40 27 0 70 29 65 43 -3 7 16 27 40 46 52 39 57 53 16 45 -16 -3 -38
-1 -51 6 -19 10 -21 9 -18 -7z"/>
<path d="M5856 3725 c-9 -14 -24 -25 -32 -25 -18 0 -74 -37 -74 -49 0 -4 23
-9 50 -10 47 -1 51 1 70 31 35 57 21 107 -14 53z"/>
<path d="M5335 3644 c-21 -21 -7 -38 49 -59 l43 -17 31 32 c18 17 32 34 32 37
0 5 -27 1 -83 -13 -23 -5 -29 -3 -34 15 -6 25 -16 26 -38 5z"/>
<path d="M5244 3471 c24 -24 28 -25 50 -11 39 23 30 35 -25 36 l-51 1 26 -26z"/>
<path d="M5333 3280 c-35 -16 -38 -33 -6 -38 22 -3 46 20 41 40 -2 10 -10 10
-35 -2z"/>
<path d="M9510 8509 c0 -5 5 -7 10 -4 6 3 10 8 10 11 0 2 -4 4 -10 4 -5 0 -10
-5 -10 -11z"/>
<path d="M10464 8485 c3 -21 16 -31 16 -12 0 9 -4 18 -9 21 -5 4 -8 -1 -7 -9z"/>
<path d="M4277 8236 c-4 -11 -1 -13 10 -9 12 5 14 3 8 -7 -5 -8 -4 -11 3 -6
12 7 5 36 -8 36 -4 0 -10 -7 -13 -14z"/>
<path d="M4341 8234 c0 -11 3 -14 6 -6 3 7 2 16 -1 19 -3 4 -6 -2 -5 -13z"/>
<path d="M4226 8043 c-6 -14 -5 -15 5 -6 7 7 10 15 7 18 -3 3 -9 -2 -12 -12z"/>
<path d="M4280 7973 c0 -5 5 -15 10 -23 8 -12 10 -11 10 8 0 12 -4 22 -10 22
-5 0 -10 -3 -10 -7z"/>
<path d="M4270 7941 c0 -6 4 -13 10 -16 6 -3 7 1 4 9 -7 18 -14 21 -14 7z"/>
<path d="M12356 7784 c-9 -23 -7 -34 5 -34 6 0 8 7 5 16 -4 10 -1 14 6 11 7
-2 12 -12 12 -21 -2 -23 13 -20 19 4 3 11 1 18 -4 14 -5 -3 -9 -1 -9 4 0 17
-28 21 -34 6z"/>
<path d="M12094 7759 c-3 -6 -1 -16 5 -22 8 -8 11 -5 11 11 0 24 -5 28 -16 11z"/>
<path d="M12324 7741 c3 -5 -2 -12 -11 -15 -12 -5 -14 -9 -5 -18 9 -9 18 -8
37 2 14 7 25 18 25 23 0 5 -7 4 -15 -3 -12 -10 -15 -10 -15 4 0 9 -5 16 -11
16 -5 0 -8 -4 -5 -9z"/>
<path d="M12055 7727 c-4 -9 -5 -26 -2 -37 3 -11 1 -18 -4 -14 -14 8 -10 -9 6
-30 15 -19 15 -19 16 5 0 22 1 22 8 4 9 -22 3 -48 -9 -40 -9 6 -30 -35 -30
-60 0 -11 -1 -49 -2 -85 -3 -55 0 -65 15 -68 9 -2 17 1 17 7 0 6 -3 10 -7 9
-5 -2 -8 2 -8 7 0 6 2 9 5 8 5 -1 10 47 11 121 2 56 19 70 44 37 18 -24 18
-25 0 -11 -17 14 -18 14 -6 -8 12 -22 13 -23 26 -6 11 16 10 24 -6 56 -10 20
-19 47 -19 58 0 13 -5 20 -12 17 -7 -2 -18 8 -24 22 -10 23 -13 24 -19 8z"/>
<path d="M12184 7689 c-3 -6 1 -18 10 -27 11 -11 16 -12 16 -4 0 7 5 10 10 7
6 -4 7 -11 4 -17 -5 -7 -2 -8 5 -3 9 5 7 13 -10 31 -26 28 -26 28 -35 13z"/>
<path d="M12140 7660 c0 -5 7 -7 15 -4 8 4 15 8 15 10 0 2 -7 4 -15 4 -8 0
-15 -4 -15 -10z"/>
<path d="M4521 7944 c0 -11 3 -14 6 -6 3 7 2 16 -1 19 -3 4 -6 -2 -5 -13z"/>
<path d="M4540 7909 c0 -5 5 -7 10 -4 6 3 10 8 10 11 0 2 -4 4 -10 4 -5 0 -10
-5 -10 -11z"/>
<path d="M4512 7885 c0 -16 2 -22 5 -12 2 9 2 23 0 30 -3 6 -5 -1 -5 -18z"/>
<path d="M11100 7092 c0 -4 14 -23 30 -42 l31 -35 -27 43 c-26 42 -34 49 -34
34z"/>
<path d="M3707 7607 c-3 -8 -1 -20 4 -28 6 -10 9 -7 9 14 0 29 -5 35 -13 14z"/>
<path d="M3736 7555 c-11 -8 -15 -15 -9 -15 6 0 16 7 23 15 16 19 11 19 -14 0z"/>
<path d="M5031 7407 c-18 -22 -41 -85 -40 -109 0 -16 4 -11 13 17 7 22 20 55
30 73 17 33 16 41 -3 19z"/>
<path d="M13019 7218 c-1 -2 -2 -15 -3 -30 -2 -22 1 -25 12 -15 11 8 11 12 2
15 -10 4 -10 6 0 12 9 5 9 9 1 14 -6 4 -12 6 -12 4z"/>
<path d="M12521 6314 c0 -11 3 -14 6 -6 3 7 2 16 -1 19 -3 4 -6 -2 -5 -13z"/>
<path d="M12825 5935 c0 -13 6 -30 13 -37 11 -11 12 -8 6 17 -9 40 -20 51 -19
20z"/>
<path d="M12812 5800 c7 -10 14 -17 17 -15 2 3 10 -3 17 -13 7 -9 14 -12 14
-6 0 10 -45 54 -55 54 -3 0 0 -9 7 -20z"/>
<path d="M12756 5792 c-3 -5 1 -9 9 -9 8 0 12 4 9 9 -3 4 -7 8 -9 8 -2 0 -6
-4 -9 -8z"/>
<path d="M12770 5495 c0 -8 2 -15 4 -15 2 0 6 7 10 15 3 8 1 15 -4 15 -6 0
-10 -7 -10 -15z"/>
<path d="M12260 5389 c0 -5 9 -9 20 -9 11 0 20 2 20 4 0 2 -9 6 -20 9 -11 3
-20 1 -20 -4z"/>
<path d="M12350 5365 c14 -8 30 -14 35 -14 6 0 -1 6 -15 14 -14 8 -29 14 -35
14 -5 0 1 -6 15 -14z"/>
<path d="M12686 4798 c3 -5 10 -6 15 -3 13 9 11 12 -6 12 -8 0 -12 -4 -9 -9z"/>
<path d="M12396 4784 c-4 -10 -4 -15 0 -11 4 3 26 -17 48 -47 34 -43 44 -50
54 -40 17 19 15 24 -10 21 -14 -1 -23 4 -26 16 -2 9 -16 31 -31 48 -25 27 -29
28 -35 13z"/>
<path d="M12806 4423 c-6 -14 -5 -15 5 -6 7 7 10 15 7 18 -3 3 -9 -2 -12 -12z"/>
<path d="M12600 4280 c-9 -6 -10 -10 -3 -10 6 0 15 5 18 10 8 12 4 12 -15 0z"/>
<path d="M12767 3811 c-5 -35 -6 -65 -3 -68 7 -7 18 80 14 108 -2 13 -7 -5
-11 -40z"/>
<path d="M12552 3800 c0 -14 2 -19 5 -12 2 6 2 18 0 25 -3 6 -5 1 -5 -13z"/>
<path d="M12586 3745 c8 -37 14 -45 14 -19 0 10 -5 26 -10 34 -8 11 -9 7 -4
-15z"/>
<path d="M12755 3680 c-3 -5 -1 -10 4 -10 6 0 11 5 11 10 0 6 -2 10 -4 10 -3
0 -8 -4 -11 -10z"/>
<path d="M12700 3660 c6 -11 15 -20 20 -20 6 0 2 9 -7 20 -10 11 -19 20 -21
20 -1 0 2 -9 8 -20z"/>
<path d="M12687 3629 c4 -13 8 -18 11 -10 2 7 -1 18 -6 23 -8 8 -9 4 -5 -13z"/>
<path d="M12572 3610 c0 -19 2 -27 5 -17 2 9 2 25 0 35 -3 9 -5 1 -5 -18z"/>
<path d="M12630 6476 c0 -3 9 -10 20 -16 11 -6 20 -8 20 -6 0 3 -9 10 -20 16
-11 6 -20 8 -20 6z"/>
<path d="M12680 6447 c0 -2 6 -10 14 -16 11 -9 16 -9 22 1 4 7 4 10 -1 6 -4
-4 -14 -3 -22 3 -7 6 -13 9 -13 6z"/>
<path d="M12685 6400 c3 -5 8 -10 11 -10 2 0 4 5 4 10 0 6 -5 10 -11 10 -5 0
-7 -4 -4 -10z"/>
<path d="M12725 6391 c-5 -17 -10 -18 -38 -10 -46 13 -47 11 -3 -11 44 -22 46
-23 45 -12 -3 19 3 21 26 6 23 -15 25 -15 31 0 3 9 11 13 18 9 6 -4 4 2 -4 12
-14 18 -15 18 -18 -3 -4 -26 -32 -18 -32 9 0 25 -17 25 -25 0z"/>
<path d="M13165 6651 c-3 -5 -1 -12 5 -16 5 -3 10 1 10 9 0 18 -6 21 -15 7z"/>
<path d="M13160 6551 c0 -11 -5 -21 -11 -23 -8 -3 -8 -30 1 -103 6 -55 11
-113 11 -129 -1 -21 2 -27 14 -22 8 3 15 0 15 -6 0 -6 2 -9 5 -6 3 3 2 13 -1
22 -5 14 -9 15 -15 4 -5 -8 -7 6 -5 35 3 26 1 47 -3 47 -5 0 -7 45 -5 100 1
55 1 100 -2 100 -2 0 -4 -9 -4 -19z"/>
<path d="M13006 6125 c-3 -8 -1 -15 3 -15 5 0 11 7 15 15 3 8 1 15 -3 15 -5 0
-11 -7 -15 -15z"/>
<path d="M13027 6089 c7 -7 15 -10 18 -7 3 3 -2 9 -12 12 -14 6 -15 5 -6 -5z"/>
<path d="M13152 5680 c0 -14 2 -19 5 -12 2 6 2 18 0 25 -3 6 -5 1 -5 -13z"/>
<path d="M13172 5540 c0 -14 2 -19 5 -12 2 6 2 18 0 25 -3 6 -5 1 -5 -13z"/>
<path d="M13125 5148 c7 -34 22 -42 17 -8 -2 16 -8 30 -13 30 -4 0 -6 -10 -4
-22z"/>
<path d="M13120 5100 c8 -5 20 -10 25 -10 6 0 3 5 -5 10 -8 5 -19 10 -25 10
-5 0 -3 -5 5 -10z"/>
<path d="M13120 5019 c0 -5 5 -7 10 -4 6 3 10 8 10 11 0 2 -4 4 -10 4 -5 0
-10 -5 -10 -11z"/>
<path d="M13061 4673 c0 -5 4 -17 9 -28 8 -17 8 -16 7 8 -1 15 -5 27 -9 27 -4
0 -8 -3 -7 -7z"/>
<path d="M13110 4616 c0 -2 9 -6 20 -9 11 -3 18 -1 14 4 -5 9 -34 13 -34 5z"/>
<path d="M13065 4150 c3 -5 8 -10 11 -10 2 0 4 5 4 10 0 6 -5 10 -11 10 -5 0
-7 -4 -4 -10z"/>
<path d="M10145 670 c-3 -6 1 -7 9 -4 18 7 21 14 7 14 -6 0 -13 -4 -16 -10z"/>
<path d="M8868 643 c6 -2 18 -2 25 0 6 3 1 5 -13 5 -14 0 -19 -2 -12 -5z"/>
<path d="M8723 633 c15 -2 39 -2 55 0 15 2 2 4 -28 4 -30 0 -43 -2 -27 -4z"/>
</g>
</svg>
